G04 Layer: TopLayer*
G04 EasyEDA Pro v2.2.31.6, 2024-09-26 20:12:08*
G04 Gerber Generator version 0.3*
G04 Scale: 100 percent, Rotated: No, Reflected: No*
G04 Dimensions in millimeters*
G04 Leading zeros omitted, absolute positions, 3 integers and 5 decimals*
%FSLAX35Y35*%
%MOMM*%
%AMPolygonMacro1*4,1,5,0.215,0.25,0.215,-0.25,-0.09999,-0.25,-0.215,-0.09999,-0.215,0.25,0.215,0.25,0*%
%ADD10C,0.254*%
%ADD11C,0.5*%
%ADD12C,8.0*%
%ADD13C,4.0*%
%ADD14R,1.6X3.49999*%
%ADD15R,2.235X3.888*%
%ADD16R,3.99999X2.75001*%
%ADD17R,2.6094X2.0*%
%ADD18R,2.59999X2.0*%
%ADD19R,1.5X2.3*%
%ADD20R,3.19999X2.4*%
%ADD21R,5.99999X3.49999*%
%ADD22R,1.2X3.49999*%
%ADD23R,1.65001X4.49999*%
%ADD24R,1.1X2.79999*%
%ADD25R,1.6X4.59999*%
%ADD26R,0.4064X0.762*%
%ADD27R,0.85001X0.85001*%
%ADD28R,1.0X1.3*%
%ADD29R,1.335X3.456*%
%ADD30R,2.0X3.39999*%
%ADD31R,0.532X1.07201*%
%ADD32R,0.3X0.8*%
%ADD33R,0.28001X0.54501*%
%ADD34R,0.98001X2.47*%
%ADD35R,3.59999X2.47*%
%ADD36R,0.532X1.03749*%
%ADD37R,0.4X0.6*%
%ADD38R,0.29401X0.489*%
%ADD39R,0.43401X0.489*%
%ADD40O,0.63X1.865*%
%ADD41O,0.6X2.0*%
%ADD42R,0.595X1.0*%
%ADD43R,4.49999X4.49999*%
%ADD44R,5.99948X6.49986*%
%ADD45R,1.35128X2.79908*%
%ADD46R,1.50114X2.79908*%
%ADD47R,0.5X1.25999*%
%ADD48R,0.59995X0.29997*%
%ADD49R,0.8X0.8*%
%ADD50R,0.8X0.6*%
%ADD51R,1.4X1.2*%
%ADD52R,2.024X2.94*%
%ADD53R,2.0X2.0*%
%ADD54R,1.1X1.0*%
%ADD55R,2.69999X3.29999*%
%ADD56R,1.0X0.75001*%
%ADD57R,0.35001X0.5*%
%ADD58PolygonMacro1*%
%ADD59R,1.0X0.8*%
%ADD60R,1.13254X1.37701*%
%ADD61R,1.0X1.8*%
%ADD62R,5.49999X2.0*%
%ADD63C,1.6*%
%ADD64C,1.75001*%
%ADD65C,1.1*%
%ADD66R,0.80648X0.86401*%
%ADD67R,0.56566X0.54*%
%ADD68R,0.30312X0.324*%
%ADD69R,1.20752X1.70101*%
%ADD70R,0.18001X0.216*%
%ADD71R,1.0X1.7*%
%ADD72R,1.28252X2.69999*%
%ADD73C,0.4*%
%ADD74O,0.28001X1.6*%
%ADD75O,1.6X0.28001*%
%ADD76R,5.29999X5.29999*%
%ADD77O,0.28001X0.85001*%
%ADD78O,0.85001X0.28001*%
%ADD79R,2.0X2.0*%
%ADD80R,2.0X2.0*%
%ADD81R,0.665X0.28001*%
%ADD82R,0.28001X0.665*%
%ADD83O,0.28001X1.03*%
%ADD84O,1.03X0.28001*%
%ADD85R,3.09999X3.09999*%
%ADD86C,0.24*%
G75*


G04 PolygonModel Start*
G54D10*
G01X100000Y0D02*
G01X100000Y-600000D01*
G01X1100000Y0D02*
G01X1100000Y-600000D01*
G01X200000Y0D02*
G01X200000Y-200000D01*
G01X300000Y0D02*
G01X300000Y-200000D01*
G01X400000Y0D02*
G01X400000Y-200000D01*
G01X500000Y0D02*
G01X500000Y-200000D01*
G01X600000Y0D02*
G01X600000Y-300000D01*
G01X700000Y0D02*
G01X700000Y-200000D01*
G01X800000Y0D02*
G01X800000Y-200000D01*
G01X900000Y0D02*
G01X900000Y-200000D01*
G01X1000000Y0D02*
G01X1000000Y-200000D01*
G01X30100000Y0D02*
G01X30100000Y-600000D01*
G01X29100000Y0D02*
G01X29100000Y-600000D01*
G01X28100000Y0D02*
G01X28100000Y-600000D01*
G01X27100000Y0D02*
G01X27100000Y-600000D01*
G01X26100000Y0D02*
G01X26100000Y-600000D01*
G01X25100000Y0D02*
G01X25100000Y-600000D01*
G01X24100000Y0D02*
G01X24100000Y-600000D01*
G01X23100000Y0D02*
G01X23100000Y-600000D01*
G01X22100000Y0D02*
G01X22100000Y-600000D01*
G01X21100000Y0D02*
G01X21100000Y-600000D01*
G01X20100000Y0D02*
G01X20100000Y-600000D01*
G01X19100000Y0D02*
G01X19100000Y-600000D01*
G01X18100000Y0D02*
G01X18100000Y-600000D01*
G01X17100000Y0D02*
G01X17100000Y-600000D01*
G01X16100000Y0D02*
G01X16100000Y-600000D01*
G01X15100000Y0D02*
G01X15100000Y-600000D01*
G01X14100000Y0D02*
G01X14100000Y-600000D01*
G01X13100000Y0D02*
G01X13100000Y-600000D01*
G01X12100000Y0D02*
G01X12100000Y-600000D01*
G01X11100000Y0D02*
G01X11100000Y-600000D01*
G01X10100000Y0D02*
G01X10100000Y-600000D01*
G01X9100000Y0D02*
G01X9100000Y-600000D01*
G01X8100000Y0D02*
G01X8100000Y-600000D01*
G01X7100000Y0D02*
G01X7100000Y-600000D01*
G01X6100000Y0D02*
G01X6100000Y-600000D01*
G01X5100000Y0D02*
G01X5100000Y-600000D01*
G01X4100000Y0D02*
G01X4100000Y-600000D01*
G01X3100000Y0D02*
G01X3100000Y-600000D01*
G01X2100000Y0D02*
G01X2100000Y-600000D01*
G01X1200000Y0D02*
G01X1200000Y-200000D01*
G01X1300000Y0D02*
G01X1300000Y-200000D01*
G01X1400000Y0D02*
G01X1400000Y-200000D01*
G01X1500000Y0D02*
G01X1500000Y-200000D01*
G01X1600000Y0D02*
G01X1600000Y-300000D01*
G01X1700000Y0D02*
G01X1700000Y-200000D01*
G01X1800000Y0D02*
G01X1800000Y-200000D01*
G01X1900000Y0D02*
G01X1900000Y-200000D01*
G01X2000000Y0D02*
G01X2000000Y-200000D01*
G01X2200000Y0D02*
G01X2200000Y-200000D01*
G01X2300000Y0D02*
G01X2300000Y-200000D01*
G01X2400000Y0D02*
G01X2400000Y-200000D01*
G01X2500000Y0D02*
G01X2500000Y-200000D01*
G01X2600000Y0D02*
G01X2600000Y-300000D01*
G01X2700000Y0D02*
G01X2700000Y-200000D01*
G01X2800000Y0D02*
G01X2800000Y-200000D01*
G01X2900000Y0D02*
G01X2900000Y-200000D01*
G01X3000000Y0D02*
G01X3000000Y-200000D01*
G01X3200000Y0D02*
G01X3200000Y-200000D01*
G01X3300000Y0D02*
G01X3300000Y-200000D01*
G01X3400000Y0D02*
G01X3400000Y-200000D01*
G01X3500000Y0D02*
G01X3500000Y-200000D01*
G01X3600000Y0D02*
G01X3600000Y-300000D01*
G01X3700000Y0D02*
G01X3700000Y-200000D01*
G01X3800000Y0D02*
G01X3800000Y-200000D01*
G01X3900000Y0D02*
G01X3900000Y-200000D01*
G01X4000000Y0D02*
G01X4000000Y-200000D01*
G01X4200000Y0D02*
G01X4200000Y-200000D01*
G01X4300000Y0D02*
G01X4300000Y-200000D01*
G01X4400000Y0D02*
G01X4400000Y-200000D01*
G01X4500000Y0D02*
G01X4500000Y-200000D01*
G01X4600000Y0D02*
G01X4600000Y-300000D01*
G01X4700000Y0D02*
G01X4700000Y-200000D01*
G01X4800000Y0D02*
G01X4800000Y-200000D01*
G01X4900000Y0D02*
G01X4900000Y-200000D01*
G01X5000000Y0D02*
G01X5000000Y-200000D01*
G01X5200000Y0D02*
G01X5200000Y-200000D01*
G01X5300000Y0D02*
G01X5300000Y-200000D01*
G01X5400000Y0D02*
G01X5400000Y-200000D01*
G01X5500000Y0D02*
G01X5500000Y-200000D01*
G01X5600000Y0D02*
G01X5600000Y-300000D01*
G01X5700000Y0D02*
G01X5700000Y-200000D01*
G01X5800000Y0D02*
G01X5800000Y-200000D01*
G01X5900000Y0D02*
G01X5900000Y-200000D01*
G01X6000000Y0D02*
G01X6000000Y-200000D01*
G01X6200000Y0D02*
G01X6200000Y-200000D01*
G01X6300000Y0D02*
G01X6300000Y-200000D01*
G01X6400000Y0D02*
G01X6400000Y-200000D01*
G01X6500000Y0D02*
G01X6500000Y-200000D01*
G01X6600000Y0D02*
G01X6600000Y-300000D01*
G01X6700000Y0D02*
G01X6700000Y-200000D01*
G01X6800000Y0D02*
G01X6800000Y-200000D01*
G01X6900000Y0D02*
G01X6900000Y-200000D01*
G01X7000000Y0D02*
G01X7000000Y-200000D01*
G01X7200000Y0D02*
G01X7200000Y-200000D01*
G01X7300000Y0D02*
G01X7300000Y-200000D01*
G01X7400000Y0D02*
G01X7400000Y-200000D01*
G01X7500000Y0D02*
G01X7500000Y-200000D01*
G01X7600000Y0D02*
G01X7600000Y-300000D01*
G01X7700000Y0D02*
G01X7700000Y-200000D01*
G01X7800000Y0D02*
G01X7800000Y-200000D01*
G01X7900000Y0D02*
G01X7900000Y-200000D01*
G01X8000000Y0D02*
G01X8000000Y-200000D01*
G01X8200000Y0D02*
G01X8200000Y-200000D01*
G01X8300000Y0D02*
G01X8300000Y-200000D01*
G01X8400000Y0D02*
G01X8400000Y-200000D01*
G01X8500000Y0D02*
G01X8500000Y-200000D01*
G01X8600000Y0D02*
G01X8600000Y-300000D01*
G01X8700000Y0D02*
G01X8700000Y-200000D01*
G01X8800000Y0D02*
G01X8800000Y-200000D01*
G01X8900000Y0D02*
G01X8900000Y-200000D01*
G01X9000000Y0D02*
G01X9000000Y-200000D01*
G01X9200000Y0D02*
G01X9200000Y-200000D01*
G01X9300000Y0D02*
G01X9300000Y-200000D01*
G01X9400000Y0D02*
G01X9400000Y-200000D01*
G01X9500000Y0D02*
G01X9500000Y-200000D01*
G01X9600000Y0D02*
G01X9600000Y-300000D01*
G01X9700000Y0D02*
G01X9700000Y-200000D01*
G01X9800000Y0D02*
G01X9800000Y-200000D01*
G01X9900000Y0D02*
G01X9900000Y-200000D01*
G01X10000000Y0D02*
G01X10000000Y-200000D01*
G01X10200000Y0D02*
G01X10200000Y-200000D01*
G01X10300000Y0D02*
G01X10300000Y-200000D01*
G01X10400000Y0D02*
G01X10400000Y-200000D01*
G01X10500000Y0D02*
G01X10500000Y-200000D01*
G01X10600000Y0D02*
G01X10600000Y-300000D01*
G01X10700000Y0D02*
G01X10700000Y-200000D01*
G01X10800000Y0D02*
G01X10800000Y-200000D01*
G01X10900000Y0D02*
G01X10900000Y-200000D01*
G01X11000000Y0D02*
G01X11000000Y-200000D01*
G01X11200000Y0D02*
G01X11200000Y-200000D01*
G01X11300000Y0D02*
G01X11300000Y-200000D01*
G01X11400000Y0D02*
G01X11400000Y-200000D01*
G01X11500000Y0D02*
G01X11500000Y-200000D01*
G01X11600000Y0D02*
G01X11600000Y-300000D01*
G01X11700000Y0D02*
G01X11700000Y-200000D01*
G01X11800000Y0D02*
G01X11800000Y-200000D01*
G01X11900000Y0D02*
G01X11900000Y-200000D01*
G01X12000000Y0D02*
G01X12000000Y-200000D01*
G01X12200000Y0D02*
G01X12200000Y-200000D01*
G01X12300000Y0D02*
G01X12300000Y-200000D01*
G01X12400000Y0D02*
G01X12400000Y-200000D01*
G01X12500000Y0D02*
G01X12500000Y-200000D01*
G01X12600000Y0D02*
G01X12600000Y-300000D01*
G01X12700000Y0D02*
G01X12700000Y-200000D01*
G01X12800000Y0D02*
G01X12800000Y-200000D01*
G01X12900000Y0D02*
G01X12900000Y-200000D01*
G01X13000000Y0D02*
G01X13000000Y-200000D01*
G01X13200000Y0D02*
G01X13200000Y-200000D01*
G01X13300000Y0D02*
G01X13300000Y-200000D01*
G01X13400000Y0D02*
G01X13400000Y-200000D01*
G01X13500000Y0D02*
G01X13500000Y-200000D01*
G01X13600000Y0D02*
G01X13600000Y-300000D01*
G01X13700000Y0D02*
G01X13700000Y-200000D01*
G01X13800000Y0D02*
G01X13800000Y-200000D01*
G01X13900000Y0D02*
G01X13900000Y-200000D01*
G01X14000000Y0D02*
G01X14000000Y-200000D01*
G01X14200000Y0D02*
G01X14200000Y-200000D01*
G01X14300000Y0D02*
G01X14300000Y-200000D01*
G01X14400000Y0D02*
G01X14400000Y-200000D01*
G01X14500000Y0D02*
G01X14500000Y-200000D01*
G01X14600000Y0D02*
G01X14600000Y-300000D01*
G01X14700000Y0D02*
G01X14700000Y-200000D01*
G01X14800000Y0D02*
G01X14800000Y-200000D01*
G01X14900000Y0D02*
G01X14900000Y-200000D01*
G01X15000000Y0D02*
G01X15000000Y-200000D01*
G01X15200000Y0D02*
G01X15200000Y-200000D01*
G01X15300000Y0D02*
G01X15300000Y-200000D01*
G01X15400000Y0D02*
G01X15400000Y-200000D01*
G01X15500000Y0D02*
G01X15500000Y-200000D01*
G01X15600000Y0D02*
G01X15600000Y-300000D01*
G01X15700000Y0D02*
G01X15700000Y-200000D01*
G01X15800000Y0D02*
G01X15800000Y-200000D01*
G01X15900000Y0D02*
G01X15900000Y-200000D01*
G01X16000000Y0D02*
G01X16000000Y-200000D01*
G01X16200000Y0D02*
G01X16200000Y-200000D01*
G01X16300000Y0D02*
G01X16300000Y-200000D01*
G01X16400000Y0D02*
G01X16400000Y-200000D01*
G01X16500000Y0D02*
G01X16500000Y-200000D01*
G01X16600000Y0D02*
G01X16600000Y-300000D01*
G01X16700000Y0D02*
G01X16700000Y-200000D01*
G01X16800000Y0D02*
G01X16800000Y-200000D01*
G01X16900000Y0D02*
G01X16900000Y-200000D01*
G01X17000000Y0D02*
G01X17000000Y-200000D01*
G01X17200000Y0D02*
G01X17200000Y-200000D01*
G01X17300000Y0D02*
G01X17300000Y-200000D01*
G01X17400000Y0D02*
G01X17400000Y-200000D01*
G01X17500000Y0D02*
G01X17500000Y-200000D01*
G01X17600000Y0D02*
G01X17600000Y-300000D01*
G01X17700000Y0D02*
G01X17700000Y-200000D01*
G01X17800000Y0D02*
G01X17800000Y-200000D01*
G01X17900000Y0D02*
G01X17900000Y-200000D01*
G01X18000000Y0D02*
G01X18000000Y-200000D01*
G01X18200000Y0D02*
G01X18200000Y-200000D01*
G01X18300000Y0D02*
G01X18300000Y-200000D01*
G01X18400000Y0D02*
G01X18400000Y-200000D01*
G01X18500000Y0D02*
G01X18500000Y-200000D01*
G01X18600000Y0D02*
G01X18600000Y-300000D01*
G01X18700000Y0D02*
G01X18700000Y-200000D01*
G01X18800000Y0D02*
G01X18800000Y-200000D01*
G01X18900000Y0D02*
G01X18900000Y-200000D01*
G01X19000000Y0D02*
G01X19000000Y-200000D01*
G01X19200000Y0D02*
G01X19200000Y-200000D01*
G01X19300000Y0D02*
G01X19300000Y-200000D01*
G01X19400000Y0D02*
G01X19400000Y-200000D01*
G01X19500000Y0D02*
G01X19500000Y-200000D01*
G01X19600000Y0D02*
G01X19600000Y-300000D01*
G01X19700000Y0D02*
G01X19700000Y-200000D01*
G01X19800000Y0D02*
G01X19800000Y-200000D01*
G01X19900000Y0D02*
G01X19900000Y-200000D01*
G01X20000000Y0D02*
G01X20000000Y-200000D01*
G01X20200000Y0D02*
G01X20200000Y-200000D01*
G01X20300000Y0D02*
G01X20300000Y-200000D01*
G01X20400000Y0D02*
G01X20400000Y-200000D01*
G01X20500000Y0D02*
G01X20500000Y-200000D01*
G01X20600000Y0D02*
G01X20600000Y-300000D01*
G01X20700000Y0D02*
G01X20700000Y-200000D01*
G01X20800000Y0D02*
G01X20800000Y-200000D01*
G01X20900000Y0D02*
G01X20900000Y-200000D01*
G01X21000000Y0D02*
G01X21000000Y-200000D01*
G01X21200000Y0D02*
G01X21200000Y-200000D01*
G01X21300000Y0D02*
G01X21300000Y-200000D01*
G01X21400000Y0D02*
G01X21400000Y-200000D01*
G01X21500000Y0D02*
G01X21500000Y-200000D01*
G01X21600000Y0D02*
G01X21600000Y-300000D01*
G01X21700000Y0D02*
G01X21700000Y-200000D01*
G01X21800000Y0D02*
G01X21800000Y-200000D01*
G01X21900000Y0D02*
G01X21900000Y-200000D01*
G01X22000000Y0D02*
G01X22000000Y-200000D01*
G01X22200000Y0D02*
G01X22200000Y-200000D01*
G01X22300000Y0D02*
G01X22300000Y-200000D01*
G01X22400000Y0D02*
G01X22400000Y-200000D01*
G01X22500000Y0D02*
G01X22500000Y-200000D01*
G01X22600000Y0D02*
G01X22600000Y-300000D01*
G01X22700000Y0D02*
G01X22700000Y-200000D01*
G01X22800000Y0D02*
G01X22800000Y-200000D01*
G01X22900000Y0D02*
G01X22900000Y-200000D01*
G01X23000000Y0D02*
G01X23000000Y-200000D01*
G01X23200000Y0D02*
G01X23200000Y-200000D01*
G01X23300000Y0D02*
G01X23300000Y-200000D01*
G01X23400000Y0D02*
G01X23400000Y-200000D01*
G01X23500000Y0D02*
G01X23500000Y-200000D01*
G01X23600000Y0D02*
G01X23600000Y-300000D01*
G01X23700000Y0D02*
G01X23700000Y-200000D01*
G01X23800000Y0D02*
G01X23800000Y-200000D01*
G01X23900000Y0D02*
G01X23900000Y-200000D01*
G01X24000000Y0D02*
G01X24000000Y-200000D01*
G01X24200000Y0D02*
G01X24200000Y-200000D01*
G01X24300000Y0D02*
G01X24300000Y-200000D01*
G01X24400000Y0D02*
G01X24400000Y-200000D01*
G01X24500000Y0D02*
G01X24500000Y-200000D01*
G01X24600000Y0D02*
G01X24600000Y-300000D01*
G01X24700000Y0D02*
G01X24700000Y-200000D01*
G01X24800000Y0D02*
G01X24800000Y-200000D01*
G01X24900000Y0D02*
G01X24900000Y-200000D01*
G01X25000000Y0D02*
G01X25000000Y-200000D01*
G01X25211111Y0D02*
G01X25211111Y-200000D01*
G01X25322222Y0D02*
G01X25322222Y-200000D01*
G01X25433333Y0D02*
G01X25433333Y-200000D01*
G01X25544444Y0D02*
G01X25544444Y-200000D01*
G01X25655555Y0D02*
G01X25655555Y-300000D01*
G01X25766667Y0D02*
G01X25766667Y-200000D01*
G01X25877778Y0D02*
G01X25877778Y-200000D01*
G01X25988889Y0D02*
G01X25988889Y-200000D01*
G01X26200000Y0D02*
G01X26200000Y-200000D01*
G01X26300000Y0D02*
G01X26300000Y-200000D01*
G01X26400000Y0D02*
G01X26400000Y-200000D01*
G01X26500000Y0D02*
G01X26500000Y-200000D01*
G01X26600000Y0D02*
G01X26600000Y-300000D01*
G01X26700000Y0D02*
G01X26700000Y-200000D01*
G01X26800000Y0D02*
G01X26800000Y-200000D01*
G01X26900000Y0D02*
G01X26900000Y-200000D01*
G01X27000000Y0D02*
G01X27000000Y-200000D01*
G01X27200000Y0D02*
G01X27200000Y-200000D01*
G01X27300000Y0D02*
G01X27300000Y-200000D01*
G01X27400000Y0D02*
G01X27400000Y-200000D01*
G01X27500000Y0D02*
G01X27500000Y-200000D01*
G01X27600000Y0D02*
G01X27600000Y-300000D01*
G01X27700000Y0D02*
G01X27700000Y-200000D01*
G01X27800000Y0D02*
G01X27800000Y-200000D01*
G01X27900000Y0D02*
G01X27900000Y-200000D01*
G01X28000000Y0D02*
G01X28000000Y-200000D01*
G01X28200000Y0D02*
G01X28200000Y-200000D01*
G01X28300000Y0D02*
G01X28300000Y-200000D01*
G01X28400000Y0D02*
G01X28400000Y-200000D01*
G01X28500000Y0D02*
G01X28500000Y-200000D01*
G01X28600000Y0D02*
G01X28600000Y-300000D01*
G01X28700000Y0D02*
G01X28700000Y-200000D01*
G01X28800000Y0D02*
G01X28800000Y-200000D01*
G01X28900000Y0D02*
G01X28900000Y-200000D01*
G01X29000000Y0D02*
G01X29000000Y-200000D01*
G01X29200000Y0D02*
G01X29200000Y-200000D01*
G01X29300000Y0D02*
G01X29300000Y-200000D01*
G01X29400000Y0D02*
G01X29400000Y-200000D01*
G01X29500000Y0D02*
G01X29500000Y-200000D01*
G01X29600000Y0D02*
G01X29600000Y-300000D01*
G01X29700000Y0D02*
G01X29700000Y-200000D01*
G01X29800000Y0D02*
G01X29800000Y-200000D01*
G01X29900000Y0D02*
G01X29900000Y-200000D01*
G01X30000000Y0D02*
G01X30000000Y-200000D01*
G01X30200000Y0D02*
G01X30200000Y-200000D01*
G01X30300000Y0D02*
G01X30300000Y-200000D01*
G01X30400000Y0D02*
G01X30400000Y-200000D01*
G01X30500000Y0D02*
G01X30500000Y-200000D01*
G01X30600000Y0D02*
G01X30600000Y-300000D01*
G01X30700000Y0D02*
G01X30700000Y-200000D01*
G01X30800000Y0D02*
G01X30800000Y-200000D01*
G01X100000Y-3800000D02*
G01X100000Y-3200000D01*
G01X2640076Y-3800000D02*
G01X2640076Y-3200000D01*
G01X5180076Y-3800000D02*
G01X5180076Y-3200000D01*
G01X7720076Y-3800000D02*
G01X7720076Y-3200000D01*
G01X10260076Y-3800000D02*
G01X10260076Y-3200000D01*
G01X12800076Y-3800000D02*
G01X12800076Y-3200000D01*
G01X15340076Y-3800000D02*
G01X15340076Y-3200000D01*
G01X17880076Y-3800000D02*
G01X17880076Y-3200000D01*
G01X20420076Y-3800000D02*
G01X20420076Y-3200000D01*
G01X22960076Y-3800000D02*
G01X22960076Y-3200000D01*
G01X25500076Y-3800000D02*
G01X25500076Y-3200000D01*
G01X28040076Y-3800000D02*
G01X28040076Y-3200000D01*
G01X30580076Y-3800120D02*
G01X30580076Y-3200120D01*
G01X354008Y-3600000D02*
G01X354008Y-3800000D01*
G01X608015Y-3600000D02*
G01X608015Y-3800000D01*
G01X862023Y-3600000D02*
G01X862023Y-3800000D01*
G01X1116030Y-3600000D02*
G01X1116030Y-3800000D01*
G01X1370038Y-3500000D02*
G01X1370038Y-3800000D01*
G01X1624046Y-3600000D02*
G01X1624046Y-3800000D01*
G01X1878053Y-3600000D02*
G01X1878053Y-3800000D01*
G01X2132061Y-3600000D02*
G01X2132061Y-3800000D01*
G01X2386068Y-3600000D02*
G01X2386068Y-3800000D01*
G01X2894076Y-3600000D02*
G01X2894076Y-3800000D01*
G01X3148076Y-3600000D02*
G01X3148076Y-3800000D01*
G01X3402076Y-3600000D02*
G01X3402076Y-3800000D01*
G01X3656076Y-3600000D02*
G01X3656076Y-3800000D01*
G01X3910076Y-3500000D02*
G01X3910076Y-3800000D01*
G01X4164076Y-3600000D02*
G01X4164076Y-3800000D01*
G01X4418076Y-3600000D02*
G01X4418076Y-3800000D01*
G01X4672076Y-3600000D02*
G01X4672076Y-3800000D01*
G01X4926076Y-3600000D02*
G01X4926076Y-3800000D01*
G01X5434076Y-3600000D02*
G01X5434076Y-3800000D01*
G01X5688076Y-3600000D02*
G01X5688076Y-3800000D01*
G01X5942076Y-3600000D02*
G01X5942076Y-3800000D01*
G01X6196076Y-3600000D02*
G01X6196076Y-3800000D01*
G01X6450076Y-3500000D02*
G01X6450076Y-3800000D01*
G01X6704076Y-3600000D02*
G01X6704076Y-3800000D01*
G01X6958076Y-3600000D02*
G01X6958076Y-3800000D01*
G01X7212076Y-3600000D02*
G01X7212076Y-3800000D01*
G01X7466076Y-3600000D02*
G01X7466076Y-3800000D01*
G01X7974076Y-3600000D02*
G01X7974076Y-3800000D01*
G01X8228076Y-3600000D02*
G01X8228076Y-3800000D01*
G01X8482076Y-3600000D02*
G01X8482076Y-3800000D01*
G01X8736076Y-3600000D02*
G01X8736076Y-3800000D01*
G01X8990076Y-3500000D02*
G01X8990076Y-3800000D01*
G01X9244076Y-3600000D02*
G01X9244076Y-3800000D01*
G01X9498076Y-3600000D02*
G01X9498076Y-3800000D01*
G01X9752076Y-3600000D02*
G01X9752076Y-3800000D01*
G01X10006076Y-3600000D02*
G01X10006076Y-3800000D01*
G01X10514076Y-3600000D02*
G01X10514076Y-3800000D01*
G01X10768076Y-3600000D02*
G01X10768076Y-3800000D01*
G01X11022076Y-3600000D02*
G01X11022076Y-3800000D01*
G01X11276076Y-3600000D02*
G01X11276076Y-3800000D01*
G01X11530076Y-3500000D02*
G01X11530076Y-3800000D01*
G01X11784076Y-3600000D02*
G01X11784076Y-3800000D01*
G01X12038076Y-3600000D02*
G01X12038076Y-3800000D01*
G01X12292076Y-3600000D02*
G01X12292076Y-3800000D01*
G01X12546076Y-3600000D02*
G01X12546076Y-3800000D01*
G01X13054076Y-3600000D02*
G01X13054076Y-3800000D01*
G01X13308076Y-3600000D02*
G01X13308076Y-3800000D01*
G01X13562076Y-3600000D02*
G01X13562076Y-3800000D01*
G01X13816076Y-3600000D02*
G01X13816076Y-3800000D01*
G01X14070076Y-3500000D02*
G01X14070076Y-3800000D01*
G01X14324076Y-3600000D02*
G01X14324076Y-3800000D01*
G01X14578076Y-3600000D02*
G01X14578076Y-3800000D01*
G01X14832076Y-3600000D02*
G01X14832076Y-3800000D01*
G01X15086076Y-3600000D02*
G01X15086076Y-3800000D01*
G01X15594076Y-3600000D02*
G01X15594076Y-3800000D01*
G01X15848076Y-3600000D02*
G01X15848076Y-3800000D01*
G01X16102076Y-3600000D02*
G01X16102076Y-3800000D01*
G01X16356076Y-3600000D02*
G01X16356076Y-3800000D01*
G01X16610076Y-3500000D02*
G01X16610076Y-3800000D01*
G01X16864076Y-3600000D02*
G01X16864076Y-3800000D01*
G01X17118076Y-3600000D02*
G01X17118076Y-3800000D01*
G01X17372076Y-3600000D02*
G01X17372076Y-3800000D01*
G01X17626076Y-3600000D02*
G01X17626076Y-3800000D01*
G01X18134076Y-3600000D02*
G01X18134076Y-3800000D01*
G01X18388076Y-3600000D02*
G01X18388076Y-3800000D01*
G01X18642076Y-3600000D02*
G01X18642076Y-3800000D01*
G01X18896076Y-3600000D02*
G01X18896076Y-3800000D01*
G01X19150076Y-3500000D02*
G01X19150076Y-3800000D01*
G01X19404076Y-3600000D02*
G01X19404076Y-3800000D01*
G01X19658076Y-3600000D02*
G01X19658076Y-3800000D01*
G01X19912076Y-3600000D02*
G01X19912076Y-3800000D01*
G01X20166076Y-3600000D02*
G01X20166076Y-3800000D01*
G01X20674076Y-3600000D02*
G01X20674076Y-3800000D01*
G01X20928076Y-3600000D02*
G01X20928076Y-3800000D01*
G01X21182076Y-3600000D02*
G01X21182076Y-3800000D01*
G01X21436076Y-3600000D02*
G01X21436076Y-3800000D01*
G01X21690076Y-3500000D02*
G01X21690076Y-3800000D01*
G01X21944076Y-3600000D02*
G01X21944076Y-3800000D01*
G01X22198076Y-3600000D02*
G01X22198076Y-3800000D01*
G01X22452076Y-3600000D02*
G01X22452076Y-3800000D01*
G01X22706076Y-3600000D02*
G01X22706076Y-3800000D01*
G01X23214076Y-3600000D02*
G01X23214076Y-3800000D01*
G01X23468076Y-3600000D02*
G01X23468076Y-3800000D01*
G01X23722076Y-3600000D02*
G01X23722076Y-3800000D01*
G01X23976076Y-3600000D02*
G01X23976076Y-3800000D01*
G01X24230076Y-3500000D02*
G01X24230076Y-3800000D01*
G01X24484076Y-3600000D02*
G01X24484076Y-3800000D01*
G01X24738076Y-3600000D02*
G01X24738076Y-3800000D01*
G01X24992076Y-3600000D02*
G01X24992076Y-3800000D01*
G01X25246076Y-3600000D02*
G01X25246076Y-3800000D01*
G01X25754076Y-3600000D02*
G01X25754076Y-3800000D01*
G01X26008076Y-3600000D02*
G01X26008076Y-3800000D01*
G01X26262076Y-3600000D02*
G01X26262076Y-3800000D01*
G01X26516076Y-3600000D02*
G01X26516076Y-3800000D01*
G01X26770076Y-3500000D02*
G01X26770076Y-3800000D01*
G01X27024076Y-3600000D02*
G01X27024076Y-3800000D01*
G01X27278076Y-3600000D02*
G01X27278076Y-3800000D01*
G01X27532076Y-3600000D02*
G01X27532076Y-3800000D01*
G01X27786076Y-3600000D02*
G01X27786076Y-3800000D01*
G01X28294076Y-3600000D02*
G01X28294076Y-3800000D01*
G01X28548076Y-3600000D02*
G01X28548076Y-3800000D01*
G01X28802076Y-3600000D02*
G01X28802076Y-3800000D01*
G01X29056076Y-3600000D02*
G01X29056076Y-3800000D01*
G01X29310076Y-3500000D02*
G01X29310076Y-3800000D01*
G01X29564076Y-3600000D02*
G01X29564076Y-3800000D01*
G01X29818076Y-3600000D02*
G01X29818076Y-3800000D01*
G01X30072076Y-3600000D02*
G01X30072076Y-3800000D01*
G01X30326076Y-3600000D02*
G01X30326076Y-3800000D01*
G01X21699019Y-3077638D02*
G01X21699019Y-693001D01*
G01X21701140Y-690880D01*
G01X14132438Y-3098500D02*
G01X14138059Y-3092878D01*
G01X14138059Y-698500D01*
G01X10102783Y-3101559D02*
G01X10102783Y-701559D01*
G01X6701723Y-3082808D02*
G01X6701723Y-682808D01*

G04 Rect Start*
G54D11*
G01X1343618Y-3088155D02*
G01X1343618Y-688155D01*
G01X29605618Y-688155D01*
G01X29605618Y-3088155D01*
G01X1343618Y-3088155D01*
G36*
G01X31394347Y-2854041D02*
G01X31394347Y-2754041D01*
G01X31994347Y-2754041D01*
G01X31994347Y-2854041D01*
G01X31394347Y-2854041D01*
G37*
G36*
G01X31394347Y-2437240D02*
G01X31394347Y-2337240D01*
G01X31994347Y-2337240D01*
G01X31994347Y-2437240D01*
G01X31394347Y-2437240D01*
G37*
G36*
G01X31394347Y-2576173D02*
G01X31394347Y-2476173D01*
G01X31994347Y-2476173D01*
G01X31994347Y-2576173D01*
G01X31394347Y-2576173D01*
G37*
G36*
G01X31394347Y-2715107D02*
G01X31394347Y-2615107D01*
G01X31994347Y-2615107D01*
G01X31994347Y-2715107D01*
G01X31394347Y-2715107D01*
G37*
G36*
G01X31394347Y-2992975D02*
G01X31394347Y-2892975D01*
G01X31994347Y-2892975D01*
G01X31994347Y-2992975D01*
G01X31394347Y-2992975D01*
G37*
G36*
G01X31394347Y-3131908D02*
G01X31394347Y-3031908D01*
G01X31994347Y-3031908D01*
G01X31994347Y-3131908D01*
G01X31394347Y-3131908D01*
G37*
G36*
G01X31394347Y-3270842D02*
G01X31394347Y-3170842D01*
G01X31994347Y-3170842D01*
G01X31994347Y-3270842D01*
G01X31394347Y-3270842D01*
G37*
G36*
G01X31394347Y-214300D02*
G01X31394347Y-114300D01*
G01X31994347Y-114300D01*
G01X31994347Y-214300D01*
G01X31394347Y-214300D01*
G37*
G36*
G01X31394347Y-353234D02*
G01X31394347Y-253234D01*
G01X31994347Y-253234D01*
G01X31994347Y-353234D01*
G01X31394347Y-353234D01*
G37*
G36*
G01X31394347Y-492167D02*
G01X31394347Y-392167D01*
G01X31994347Y-392167D01*
G01X31994347Y-492167D01*
G01X31394347Y-492167D01*
G37*
G36*
G01X31394347Y-1047902D02*
G01X31394347Y-947902D01*
G01X31994347Y-947902D01*
G01X31994347Y-1047902D01*
G01X31394347Y-1047902D01*
G37*
G36*
G01X31394347Y-631101D02*
G01X31394347Y-531101D01*
G01X31994347Y-531101D01*
G01X31994347Y-631101D01*
G01X31394347Y-631101D01*
G37*
G36*
G01X31394347Y-770035D02*
G01X31394347Y-670035D01*
G01X31994347Y-670035D01*
G01X31994347Y-770035D01*
G01X31394347Y-770035D01*
G37*
G36*
G01X31394347Y-908969D02*
G01X31394347Y-808969D01*
G01X31994347Y-808969D01*
G01X31994347Y-908969D01*
G01X31394347Y-908969D01*
G37*
G36*
G01X31394347Y-3687643D02*
G01X31394347Y-3587643D01*
G01X31994347Y-3587643D01*
G01X31994347Y-3687643D01*
G01X31394347Y-3687643D01*
G37*
G36*
G01X31394347Y-3548709D02*
G01X31394347Y-3448709D01*
G01X31994347Y-3448709D01*
G01X31994347Y-3548709D01*
G01X31394347Y-3548709D01*
G37*
G36*
G01X31394347Y-3409776D02*
G01X31394347Y-3309776D01*
G01X31994347Y-3309776D01*
G01X31994347Y-3409776D01*
G01X31394347Y-3409776D01*
G37*
G36*
G01X31394347Y-1186836D02*
G01X31394347Y-1086836D01*
G01X31994347Y-1086836D01*
G01X31994347Y-1186836D01*
G01X31394347Y-1186836D01*
G37*
G36*
G01X31394347Y-1325770D02*
G01X31394347Y-1225770D01*
G01X31994347Y-1225770D01*
G01X31994347Y-1325770D01*
G01X31394347Y-1325770D01*
G37*
G36*
G01X31394347Y-1464704D02*
G01X31394347Y-1364704D01*
G01X31994347Y-1364704D01*
G01X31994347Y-1464704D01*
G01X31394347Y-1464704D01*
G37*
G36*
G01X31394347Y-1603637D02*
G01X31394347Y-1503637D01*
G01X31994347Y-1503637D01*
G01X31994347Y-1603637D01*
G01X31394347Y-1603637D01*
G37*
G36*
G01X31394347Y-1742571D02*
G01X31394347Y-1642571D01*
G01X31994347Y-1642571D01*
G01X31994347Y-1742571D01*
G01X31394347Y-1742571D01*
G37*
G36*
G01X31394347Y-1881505D02*
G01X31394347Y-1781505D01*
G01X31994347Y-1781505D01*
G01X31994347Y-1881505D01*
G01X31394347Y-1881505D01*
G37*
G36*
G01X31394347Y-2020438D02*
G01X31394347Y-1920438D01*
G01X31994347Y-1920438D01*
G01X31994347Y-2020438D01*
G01X31394347Y-2020438D01*
G37*
G36*
G01X31394347Y-2159372D02*
G01X31394347Y-2059372D01*
G01X31994347Y-2059372D01*
G01X31994347Y-2159372D01*
G01X31394347Y-2159372D01*
G37*
G36*
G01X31394347Y-2298306D02*
G01X31394347Y-2198306D01*
G01X31994347Y-2198306D01*
G01X31994347Y-2298306D01*
G01X31394347Y-2298306D01*
G37*
G04 Rect End*

G04 Pad Start*
G54D12*
G01X665480Y-1899920D03*
G54D13*
G01X30629860Y-932180D03*
G01X30629860Y-2849880D03*
G54D14*
G01X4368775Y-1265837D03*
G01X4048785Y-1265837D03*
G54D15*
G01X4938065Y-1273665D03*
G01X5311547Y-1273665D03*
G54D16*
G01X4212584Y-2646646D03*
G01X4212584Y-1871641D03*
G54D18*
G01X6133765Y-2671447D03*
G01X6133765Y-2171453D03*
G54D19*
G01X6306083Y-1315486D03*
G01X5896077Y-1315486D03*
G54D20*
G01X5263297Y-2752805D03*
G01X5263297Y-1912802D03*
G54D21*
G01X2959335Y-2672706D03*
G01X2959335Y-1602681D03*
G54D22*
G01X16631907Y-1594563D03*
G01X16631907Y-1060579D03*
G54D23*
G01X18754529Y-1984146D03*
G01X18754529Y-1084174D03*
G54D24*
G01X15871814Y-1025579D03*
G01X15871814Y-1445594D03*
G54D25*
G01X17564100Y-1089174D03*
G01X17564100Y-1834054D03*
G54D26*
G01X20017739Y-1109980D03*
G01X20088859Y-1109980D03*
G54D27*
G01X19980793Y-1371488D03*
G01X20125802Y-1371488D03*
G54D28*
G01X19963305Y-1672569D03*
G01X20143290Y-1672569D03*
G54D29*
G01X19821548Y-2099934D03*
G01X20285047Y-2099934D03*
G54D30*
G01X19763550Y-2641600D03*
G01X20343051Y-2641600D03*
G54D31*
G01X22555831Y-1199490D03*
G01X22650827Y-1199490D03*
G01X22745823Y-1199490D03*
G01X22745823Y-969670D03*
G01X22650827Y-969670D03*
G01X22555831Y-969670D03*
G54D32*
G01X23353799Y-1162438D03*
G01X23418797Y-1162438D03*
G01X23483796Y-1162438D03*
G01X23483796Y-1032441D03*
G01X23418797Y-1032441D03*
G01X23353799Y-1032441D03*
G54D33*
G01X24018254Y-1159370D03*
G01X24068241Y-1159370D03*
G01X24118254Y-1159370D03*
G01X24118254Y-1014870D03*
G01X24068241Y-1014870D03*
G01X24018254Y-1014870D03*
G54D34*
G01X24695023Y-1712608D03*
G01X24925020Y-1712608D03*
G01X25155017Y-1712608D03*
G54D35*
G01X24925020Y-1145629D03*
G54D36*
G01X22538181Y-1800048D03*
G01X22728173Y-1800048D03*
G01X22633177Y-1579779D03*
G54D37*
G01X23362793Y-1782635D03*
G01X23492790Y-1782635D03*
G01X23427792Y-1600644D03*
G54D38*
G01X24021415Y-1743705D03*
G01X24101425Y-1743705D03*
G54D39*
G01X24061420Y-1637787D03*
G54D40*
G01X22458680Y-2759989D03*
G01X22585680Y-2759989D03*
G01X22712680Y-2759989D03*
G01X22839680Y-2759989D03*
G01X22458680Y-2223491D03*
G01X22585680Y-2223491D03*
G01X22712680Y-2223491D03*
G01X22839680Y-2223491D03*
G54D41*
G01X24099546Y-2176819D03*
G01X23845546Y-2176819D03*
G01X23718546Y-2176819D03*
G01X23464546Y-2176819D03*
G01X24099546Y-2816820D03*
G01X23845546Y-2816820D03*
G01X23718546Y-2816820D03*
G01X23464546Y-2816820D03*
G01X23972546Y-2176819D03*
G01X24226546Y-2176819D03*
G01X23337546Y-2176819D03*
G01X23591546Y-2176819D03*
G01X23972546Y-2816820D03*
G01X24226546Y-2816820D03*
G01X23337546Y-2816820D03*
G01X23591546Y-2816820D03*
G54D42*
G01X24742963Y-2776332D03*
G01X24869963Y-2776332D03*
G01X24996963Y-2776332D03*
G01X25123963Y-2776332D03*
G54D43*
G01X24933463Y-2384948D03*
G54D44*
G01X25808178Y-1661541D03*
G54D45*
G01X25577292Y-2356485D03*
G54D46*
G01X26035508Y-2356485D03*
G54D47*
G01X27114288Y-1145515D03*
G54D48*
G01X27190539Y-1094740D03*
G01X27190539Y-1145540D03*
G01X27190437Y-1196340D03*
G01X27038037Y-1196340D03*
G01X27038037Y-1145540D03*
G01X27038037Y-1094740D03*
G54D49*
G01X27191562Y-1611578D03*
G01X27031669Y-1611603D03*
G54D50*
G01X27197130Y-2056507D03*
G01X27197130Y-2156507D03*
G01X27037135Y-2156507D03*
G01X27037135Y-2056507D03*
G54D51*
G01X26983157Y-2756926D03*
G01X27223166Y-2756926D03*
G01X26983157Y-2566914D03*
G01X27223166Y-2566914D03*
G54D52*
G01X8098492Y-2047253D03*
G01X8562906Y-2047253D03*
G54D53*
G01X8557286Y-1623060D03*
G01X8097292Y-1623060D03*
G54D54*
G01X8504194Y-1262372D03*
G01X8157204Y-1262372D03*
G54D55*
G01X7962069Y-2619147D03*
G01X8699329Y-2619147D03*
G54D56*
G01X8447946Y-967735D03*
G01X8213453Y-967735D03*
G54D57*
G01X28385460Y-1283308D03*
G01X28505460Y-1283308D03*
G01X28505460Y-1358307D03*
G54D58*
G01X28389459Y-1358308D03*
G54D59*
G01X28921629Y-1388415D03*
G01X29101613Y-1388415D03*
G01X29101613Y-1268425D03*
G01X28921629Y-1268425D03*
G54D60*
G01X28333814Y-1930400D03*
G01X28527058Y-1930400D03*
G54D61*
G01X28881794Y-1933224D03*
G01X29131806Y-1933224D03*
G54D62*
G01X29169868Y-2623820D03*
G01X28279852Y-2623820D03*
G54D63*
G01X16057880Y-2688734D03*
G01X16057880Y-2188735D03*
G01X17219721Y-2709926D03*
G01X17219721Y-2359914D03*
G54D64*
G01X18195908Y-2498717D03*
G01X18195908Y-2748703D03*
G54D65*
G01X19022060Y-2788708D03*
G01X19022060Y-2588709D03*
G54D66*
G01X9222392Y-2062480D03*
G01X9071719Y-2062480D03*
G54D67*
G01X9190337Y-2339340D03*
G01X9103774Y-2339340D03*
G54D68*
G01X9175510Y-2606040D03*
G01X9127199Y-2606040D03*
G54D60*
G01X9247707Y-1723450D03*
G01X9047707Y-1723450D03*
G54D69*
G01X9300042Y-1387466D03*
G01X9004285Y-1387466D03*
G54D70*
G01X9161200Y-2852420D03*
G01X9127199Y-2852420D03*
G54D71*
G01X3598615Y-1168400D03*
G01X3428615Y-1168400D03*
G54D72*
G01X9383700Y-961181D03*
G01X8905469Y-961181D03*
G54D73*
G01X13849299Y-2858719D03*
G01X13769289Y-2858719D03*
G01X13689305Y-2858719D03*
G01X13609295Y-2858719D03*
G01X13529310Y-2858719D03*
G01X13449300Y-2858719D03*
G01X13369290Y-2858719D03*
G01X13289305Y-2858719D03*
G01X13209295Y-2858719D03*
G01X13129311Y-2858719D03*
G01X13049301Y-2858719D03*
G01X13849299Y-2778709D03*
G01X13769289Y-2778709D03*
G01X13689305Y-2778709D03*
G01X13609295Y-2778709D03*
G01X13529310Y-2778709D03*
G01X13449300Y-2778709D03*
G01X13369290Y-2778709D03*
G01X13289305Y-2778709D03*
G01X13209295Y-2778709D03*
G01X13129311Y-2778709D03*
G01X13049301Y-2778709D03*
G01X13849299Y-2698725D03*
G01X13769289Y-2698725D03*
G01X13689305Y-2698725D03*
G01X13609295Y-2698725D03*
G01X13529310Y-2698725D03*
G01X13449300Y-2698725D03*
G01X13369290Y-2698725D03*
G01X13289305Y-2698725D03*
G01X13209295Y-2698725D03*
G01X13129311Y-2698725D03*
G01X13049301Y-2698725D03*
G01X13849299Y-2618715D03*
G01X13769289Y-2618715D03*
G01X13689305Y-2618715D03*
G01X13609295Y-2618715D03*
G01X13529310Y-2618715D03*
G01X13449300Y-2618715D03*
G01X13369290Y-2618715D03*
G01X13289305Y-2618715D03*
G01X13209295Y-2618715D03*
G01X13129311Y-2618715D03*
G01X13049301Y-2618715D03*
G01X13849299Y-2538730D03*
G01X13769289Y-2538730D03*
G01X13689305Y-2538730D03*
G01X13609295Y-2538730D03*
G01X13529310Y-2538730D03*
G01X13449300Y-2538730D03*
G01X13369290Y-2538730D03*
G01X13289305Y-2538730D03*
G01X13209295Y-2538730D03*
G01X13129311Y-2538730D03*
G01X13049301Y-2538730D03*
G01X13849299Y-2458720D03*
G01X13769289Y-2458720D03*
G01X13689305Y-2458720D03*
G01X13609295Y-2458720D03*
G01X13529310Y-2458720D03*
G01X13449300Y-2458720D03*
G01X13369290Y-2458720D03*
G01X13289305Y-2458720D03*
G01X13209295Y-2458720D03*
G01X13129311Y-2458720D03*
G01X13049301Y-2458720D03*
G01X13849299Y-2378710D03*
G01X13769289Y-2378710D03*
G01X13689305Y-2378710D03*
G01X13609295Y-2378710D03*
G01X13529310Y-2378710D03*
G01X13449300Y-2378710D03*
G01X13369290Y-2378710D03*
G01X13289305Y-2378710D03*
G01X13209295Y-2378710D03*
G01X13129311Y-2378710D03*
G01X13049301Y-2378710D03*
G01X13849299Y-2298725D03*
G01X13769289Y-2298725D03*
G01X13689305Y-2298725D03*
G01X13609295Y-2298725D03*
G01X13529310Y-2298725D03*
G01X13449300Y-2298725D03*
G01X13369290Y-2298725D03*
G01X13289305Y-2298725D03*
G01X13209295Y-2298725D03*
G01X13129311Y-2298725D03*
G01X13049301Y-2298725D03*
G01X13849299Y-2218715D03*
G01X13769289Y-2218715D03*
G01X13689305Y-2218715D03*
G01X13609295Y-2218715D03*
G01X13529310Y-2218715D03*
G01X13449300Y-2218715D03*
G01X13369290Y-2218715D03*
G01X13289305Y-2218715D03*
G01X13209295Y-2218715D03*
G01X13129311Y-2218715D03*
G01X13049301Y-2218715D03*
G01X13849299Y-2138731D03*
G01X13769289Y-2138731D03*
G01X13689305Y-2138731D03*
G01X13609295Y-2138731D03*
G01X13529310Y-2138731D03*
G01X13449300Y-2138731D03*
G01X13369290Y-2138731D03*
G01X13289305Y-2138731D03*
G01X13209295Y-2138731D03*
G01X13129311Y-2138731D03*
G01X13049301Y-2138731D03*
G01X13849299Y-2058721D03*
G01X13769289Y-2058721D03*
G01X13689305Y-2058721D03*
G01X13609295Y-2058721D03*
G01X13529310Y-2058721D03*
G01X13449300Y-2058721D03*
G01X13369290Y-2058721D03*
G01X13289305Y-2058721D03*
G01X13209295Y-2058721D03*
G01X13129311Y-2058721D03*
G01X13049301Y-2058721D03*
G54D74*
G01X11692534Y-2896641D03*
G01X11742547Y-2896641D03*
G01X11792534Y-2896641D03*
G01X11842547Y-2896641D03*
G01X11892534Y-2896641D03*
G01X11942547Y-2896641D03*
G01X11992534Y-2896641D03*
G01X12042546Y-2896641D03*
G01X12092534Y-2896641D03*
G01X12142546Y-2896641D03*
G01X12192533Y-2896641D03*
G01X12242546Y-2896641D03*
G01X12292533Y-2896641D03*
G01X12342546Y-2896641D03*
G01X12392533Y-2896641D03*
G01X12442546Y-2896641D03*
G54D75*
G01X12637541Y-2701646D03*
G01X12637541Y-2651633D03*
G01X12637541Y-2601646D03*
G01X12637541Y-2551633D03*
G01X12637541Y-2501646D03*
G01X12637541Y-2451633D03*
G01X12637541Y-2401646D03*
G01X12637541Y-2351634D03*
G01X12637541Y-2301646D03*
G01X12637541Y-2251634D03*
G01X12637541Y-2201647D03*
G01X12637541Y-2151634D03*
G01X12637541Y-2101647D03*
G01X12637541Y-2051634D03*
G01X12637541Y-2001647D03*
G01X12637541Y-1951634D03*
G54D74*
G01X12442546Y-1756639D03*
G01X12392533Y-1756639D03*
G01X12342546Y-1756639D03*
G01X12292533Y-1756639D03*
G01X12242546Y-1756639D03*
G01X12192533Y-1756639D03*
G01X12142546Y-1756639D03*
G01X12092534Y-1756639D03*
G01X12042546Y-1756639D03*
G01X11992534Y-1756639D03*
G01X11942547Y-1756639D03*
G01X11892534Y-1756639D03*
G01X11842547Y-1756639D03*
G01X11792534Y-1756639D03*
G01X11742547Y-1756639D03*
G01X11692534Y-1756639D03*
G54D75*
G01X11497539Y-1951634D03*
G01X11497539Y-2001647D03*
G01X11497539Y-2051634D03*
G01X11497539Y-2101647D03*
G01X11497539Y-2151634D03*
G01X11497539Y-2201647D03*
G01X11497539Y-2251634D03*
G01X11497539Y-2301646D03*
G01X11497539Y-2351634D03*
G01X11497539Y-2401646D03*
G01X11497539Y-2451633D03*
G01X11497539Y-2501646D03*
G01X11497539Y-2551633D03*
G01X11497539Y-2601646D03*
G01X11497539Y-2651633D03*
G01X11497539Y-2701646D03*
G54D76*
G01X12067540Y-2326640D03*
G54D77*
G01X10890174Y-2880647D03*
G01X10940186Y-2880647D03*
G01X10990174Y-2880647D03*
G01X11040186Y-2880647D03*
G54D78*
G01X11130181Y-2790652D03*
G01X11130181Y-2740640D03*
G01X11130181Y-2690652D03*
G01X11130181Y-2640640D03*
G54D77*
G01X11040186Y-2550645D03*
G01X10990174Y-2550645D03*
G01X10940186Y-2550645D03*
G01X10890174Y-2550645D03*
G54D78*
G01X10800179Y-2640640D03*
G01X10800179Y-2690652D03*
G01X10800179Y-2740640D03*
G01X10800179Y-2790652D03*
G54D79*
G01X10965180Y-2715646D03*
G54D80*
G01X10961362Y-2021840D03*
G54D81*
G01X10770608Y-2121840D03*
G01X10770608Y-2071853D03*
G01X10770608Y-2021840D03*
G01X10770608Y-1971853D03*
G01X10770608Y-1921840D03*
G54D82*
G01X10861363Y-1831086D03*
G01X10911375Y-1831086D03*
G01X10961362Y-1831086D03*
G01X11011375Y-1831086D03*
G01X11061362Y-1831086D03*
G54D81*
G01X11152116Y-1921840D03*
G01X11152116Y-1971853D03*
G01X11152116Y-2021840D03*
G01X11152116Y-2071853D03*
G01X11152116Y-2121840D03*
G54D82*
G01X11061362Y-2212594D03*
G01X11011375Y-2212594D03*
G01X10961362Y-2212594D03*
G01X10911375Y-2212594D03*
G01X10861363Y-2212594D03*
G54D83*
G01X10815193Y-1492504D03*
G01X10865180Y-1492504D03*
G01X10915193Y-1492504D03*
G01X10965180Y-1492504D03*
G01X11015193Y-1492504D03*
G01X11065180Y-1492504D03*
G01X11115192Y-1492504D03*
G54D84*
G01X11202924Y-1404772D03*
G01X11202924Y-1354760D03*
G01X11202924Y-1304773D03*
G01X11202924Y-1254760D03*
G01X11202924Y-1204773D03*
G01X11202924Y-1154760D03*
G01X11202924Y-1104773D03*
G54D83*
G01X11115192Y-1017016D03*
G01X11065180Y-1017016D03*
G01X11015193Y-1017016D03*
G01X10965180Y-1017016D03*
G01X10915193Y-1017016D03*
G01X10865180Y-1017016D03*
G01X10815193Y-1017016D03*
G54D84*
G01X10727436Y-1104773D03*
G01X10727436Y-1154760D03*
G01X10727436Y-1204773D03*
G01X10727436Y-1254760D03*
G01X10727436Y-1304773D03*
G01X10727436Y-1354760D03*
G01X10727436Y-1404772D03*
G54D85*
G01X10965180Y-1254760D03*
G54D86*
G01X13483515Y-1114920D03*
G01X13483515Y-1164907D03*
G01X13483515Y-1214920D03*
G01X13483515Y-1264907D03*
G01X13483515Y-1314920D03*
G01X13483515Y-1364907D03*
G01X13483515Y-1414920D03*
G01X13533502Y-1114920D03*
G01X13533502Y-1164907D03*
G01X13533502Y-1214920D03*
G01X13533502Y-1264907D03*
G01X13533502Y-1314920D03*
G01X13533502Y-1364907D03*
G01X13533502Y-1414920D03*
G01X13583515Y-1114920D03*
G01X13583515Y-1164907D03*
G01X13583515Y-1214920D03*
G01X13583515Y-1264907D03*
G01X13583515Y-1314920D03*
G01X13583515Y-1364907D03*
G01X13583515Y-1414920D03*
G01X13633502Y-1114920D03*
G01X13633502Y-1164907D03*
G01X13633502Y-1214920D03*
G01X13633502Y-1314920D03*
G01X13633502Y-1364907D03*
G01X13633502Y-1414920D03*
G01X13683515Y-1114920D03*
G01X13683515Y-1164907D03*
G01X13683515Y-1214920D03*
G01X13683515Y-1264907D03*
G01X13683515Y-1314920D03*
G01X13683515Y-1364907D03*
G01X13683515Y-1414920D03*
G01X13733502Y-1114920D03*
G01X13733502Y-1164907D03*
G01X13733502Y-1214920D03*
G01X13733502Y-1264907D03*
G01X13733502Y-1314920D03*
G01X13733502Y-1364907D03*
G01X13733502Y-1414920D03*
G01X13783514Y-1114920D03*
G01X13783514Y-1164907D03*
G01X13783514Y-1214920D03*
G01X13783514Y-1264907D03*
G01X13783514Y-1314920D03*
G01X13783514Y-1364907D03*
G01X13783514Y-1414920D03*
G01X12723289Y-1342606D03*
G01X12773289Y-1342606D03*
G01X12823289Y-1342606D03*
G01X12873292Y-1342606D03*
G01X12923291Y-1342606D03*
G01X12973291Y-1342606D03*
G01X12723289Y-1292606D03*
G01X12773289Y-1292606D03*
G01X12823289Y-1292606D03*
G01X12873292Y-1292606D03*
G01X12923291Y-1292606D03*
G01X12973291Y-1292606D03*
G01X12723289Y-1242606D03*
G01X12773289Y-1242606D03*
G01X12823289Y-1242606D03*
G01X12873292Y-1242606D03*
G01X12923291Y-1242606D03*
G01X12973291Y-1242606D03*
G01X12723289Y-1192604D03*
G01X12773289Y-1192604D03*
G01X12823289Y-1192604D03*
G01X12873292Y-1192604D03*
G01X12923291Y-1192604D03*
G01X12973291Y-1192604D03*
G01X12723289Y-1142604D03*
G01X12773289Y-1142604D03*
G01X12823289Y-1142604D03*
G01X12873292Y-1142604D03*
G01X12923291Y-1142604D03*
G01X12973291Y-1142604D03*
G01X12723289Y-1092604D03*
G01X12773289Y-1092604D03*
G01X12823289Y-1092604D03*
G01X12873292Y-1092604D03*
G01X12923291Y-1092604D03*
G01X12973291Y-1092604D03*
G01X11884330Y-1306514D03*
G01X11884330Y-1266509D03*
G01X11884330Y-1226504D03*
G01X11884330Y-1186524D03*
G01X11884330Y-1146519D03*
G01X11884330Y-1106514D03*
G01X11918950Y-1286524D03*
G01X11918950Y-1246519D03*
G01X11918950Y-1206514D03*
G01X11918950Y-1166509D03*
G01X11918950Y-1126504D03*
G01X11953545Y-1306514D03*
G01X11953545Y-1266509D03*
G01X11953545Y-1226504D03*
G01X11953545Y-1186524D03*
G01X11953545Y-1146519D03*
G01X11953545Y-1106514D03*
G01X11988165Y-1286524D03*
G01X11988165Y-1246519D03*
G01X11988165Y-1206514D03*
G01X11988165Y-1166509D03*
G01X11988165Y-1126504D03*
G01X12022760Y-1306514D03*
G01X12022760Y-1266509D03*
G01X12022760Y-1226504D03*
G01X12022760Y-1186524D03*
G01X12022760Y-1146519D03*
G01X12022760Y-1106514D03*
G01X12057380Y-1286524D03*
G01X12057380Y-1246519D03*
G01X12057380Y-1206514D03*
G01X12057380Y-1166509D03*
G01X12057380Y-1126504D03*
G01X12092000Y-1306514D03*
G01X12092000Y-1266509D03*
G01X12092000Y-1226504D03*
G01X12092000Y-1186524D03*
G01X12092000Y-1146519D03*
G01X12092000Y-1106514D03*
G01X12126595Y-1286524D03*
G01X12126595Y-1246519D03*
G01X12126595Y-1206514D03*
G01X12126595Y-1166509D03*
G01X12126595Y-1126504D03*
G01X12161215Y-1306514D03*
G01X12161215Y-1266509D03*
G01X12161215Y-1226504D03*
G01X12161215Y-1186524D03*
G01X12161215Y-1146519D03*
G01X12161215Y-1106514D03*
G01X12195810Y-1286524D03*
G01X12195810Y-1246519D03*
G01X12195810Y-1206514D03*
G01X12195810Y-1166509D03*
G01X12195810Y-1126504D03*
G01X12230430Y-1306514D03*
G01X12230430Y-1266509D03*
G01X12230430Y-1226504D03*
G01X12230430Y-1186524D03*
G01X12230430Y-1146519D03*
G01X12230430Y-1106514D03*
G04 Pad End*

M02*

