G04 Layer: BottomSolderMaskLayer*
G04 EasyEDA Pro v2.2.31.6, 2024-09-26 20:12:08*
G04 Gerber Generator version 0.3*
G04 Scale: 100 percent, Rotated: No, Reflected: No*
G04 Dimensions in millimeters*
G04 Leading zeros omitted, absolute positions, 3 integers and 5 decimals*
%FSLAX35Y35*%
%MOMM*%
%AMRoundRect*1,1,$1,$2,$3*1,1,$1,$4,$5*1,1,$1,0-$2,0-$3*1,1,$1,0-$4,0-$5*20,1,$1,$2,$3,$4,$5,0*20,1,$1,$4,$5,0-$2,0-$3,0*20,1,$1,0-$2,0-$3,0-$4,0-$5,0*20,1,$1,0-$4,0-$5,$2,$3,0*4,1,4,$2,$3,$4,$5,0-$2,0-$3,0-$4,0-$5,$2,$3,0*%
%AMOval*1,1,$1,$2,$3*1,1,$1,$4,$5*20,1,$1,$2,$3,$4,$5,0*%
%AMRect*21,1,$1,$2,0,0,$3*%
%ADD10C,0.508*%
%ADD11C,0.254*%
%ADD12C,0.29972*%
%ADD13C,0.152*%
%ADD14C,0.1524*%
%ADD15C,0.2032*%
%ADD16C,0.3083*%
%ADD17C,0.3*%
%ADD18C,0.762*%
%ADD19C,0.76*%
%ADD20C,0.89*%
%ADD21C,8.1016*%
%ADD22C,4.1016*%
%ADD23C,0.5334*%
%ADD24C,1.6256*%
%ADD25RoundRect,0.08875X-1.26296X0.37534X-0.95653X0.90609*%
%ADD26Oval,0.38161X-0.43X-0.74478X0.43X0.74478*%
%ADD27Oval,0.38161X0.74478X-0.43X-0.74478X0.43*%
%ADD28Oval,0.38161X-0.74478X0.43X0.74478X-0.43*%
%ADD29RoundRect,0.08875X0.11284X0.8083X0.64358X0.50187*%
%ADD30RoundRect,0.09763X0.61316X-1.74194X-1.81514X-0.33996*%
%ADD31RoundRect,0.08875X1.26296X-0.37534X0.95653X-0.90609*%
%ADD32RoundRect,0.09302X0.06542X1.12188X0.93887X0.61759*%
%ADD33RoundRect,0.09302X-0.18058X0.6958X0.69287X0.19151*%
%ADD34RoundRect,0.08332X-0.22432X-0.80401X-0.58414X-0.59627*%
%ADD35RoundRect,0.09368X-1.06016X-0.02747X-0.50629X0.93186*%
%ADD36RoundRect,0.08107X-0.4783X0.09125X-0.31817X0.36859*%
%ADD37RoundRect,0.08693X0.06576X0.62895X0.51181X0.37142*%
%ADD38RoundRect,0.08107X0.15158X0.58278X0.42892X0.42266*%
%ADD39C,0.60198*%
%ADD40Oval,0.7316X-0.70149X0.405X0.70149X-0.405*%
%ADD41Oval,0.7316X-0.27713X0.16X0.27713X-0.16*%
%ADD42RoundRect,0.08875X-0.56854X-0.37194X0.03784X0.67834*%
%ADD43RoundRect,0.09131X0.19159X-0.57844X-0.59674X-0.12329*%
%ADD44RoundRect,0.08709X-0.30867X0.47988X0.56993X-0.02737*%
%ADD45RoundRect,0.09131X-0.19159X0.57844X0.59674X0.12329*%
%ADD46RoundRect,0.08875X0.56854X0.37194X-0.03784X-0.67834*%
%ADD47RoundRect,0.08771X-0.38473X-0.11248X-0.09496X0.38942*%
%ADD48RoundRect,0.08771X-0.20966X0.44084X0.48661X0.03885*%
%ADD49RoundRect,0.09131X0.12329X-0.59674X-0.57844X-0.19159*%
%ADD50RoundRect,0.08771X-0.11248X0.38473X0.38942X0.09496*%
%ADD51RoundRect,0.08771X0.20966X-0.44084X-0.48661X-0.03885*%
%ADD52RoundRect,0.08771X-0.20966X0.44084X0.48661X0.03885*%
%ADD53RoundRect,0.08771X-0.44084X-0.20966X-0.03885X0.48661*%
%ADD54RoundRect,0.08771X0.11248X-0.38473X-0.38942X-0.09496*%
%ADD55RoundRect,0.09131X-0.19159X0.57844X0.59674X0.12329*%
%ADD56RoundRect,0.08875X0.56854X0.37194X-0.03784X-0.67834*%
%ADD57RoundRect,0.09516X-0.51688X1.11016X1.21987X0.10745*%
%ADD58RoundRect,0.08771X0.44084X0.20966X0.03885X-0.48661*%
%ADD59RoundRect,0.09303X-0.88941X-0.53117X0.0153X1.03584*%
%ADD60RoundRect,0.09017X-0.62342X-0.36836X0.0073X0.72408*%
%ADD61RoundRect,0.09303X-0.0153X-1.03584X-0.88941X-0.53117*%
%ADD62RoundRect,0.09303X0.73892X0.27051X0.13519X-0.77518*%
%ADD63Oval,0.38003X0.13X0.22516X-0.13X-0.22516*%
%ADD64Oval,0.38003X-0.22516X0.13X0.22516X-0.13*%
%ADD65RoundRect,0.09658X-0.49476X1.84649X1.84649X0.49476*%
%ADD66RoundRect,0.09131X-0.14829X0.55344X0.55344X0.14829*%
%ADD67RoundRect,0.09131X-0.14829X0.55344X0.55344X0.14829*%
%ADD68RoundRect,0.08875X1.26296X-0.37534X0.95653X-0.90609*%
%ADD69RoundRect,0.09548X-0.24158X1.58511X1.49353X0.58334*%
%ADD70RoundRect,0.08001X0.17897X0.62973X0.45588X0.46986*%
%ADD71RoundRect,0.09368X0.7995X0.17797X0.24563X-0.78137*%
%ADD72Rect,0.89916X1.50114X60.0*%
%ADD73RoundRect,0.08875X0.11284X0.8083X0.64358X0.50187*%
%ADD74RoundRect,0.08693X0.06576X0.62895X0.51181X0.37142*%
%ADD75RoundRect,0.08107X0.15158X0.58278X0.42892X0.42266*%
%ADD76RoundRect,0.08771X0.38473X0.11248X0.09496X-0.38942*%
%ADD77RoundRect,0.09017X0.36836X-0.62342X-0.72408X0.0073*%
%ADD78RoundRect,0.09131X-0.59674X-0.12329X-0.19159X0.57844*%
%ADD79RoundRect,0.09131X0.55344X0.14829X0.14829X-0.55344*%
%ADD80RoundRect,0.09131X0.59674X0.12329X0.19159X-0.57844*%
%ADD81RoundRect,0.09489X-0.2043X0.98785X0.95765X0.317*%
%ADD82RoundRect,0.09368X0.02206X1.14595X0.98139X0.59208*%
%ADD83Oval,0.7316X-0.405X-0.70149X0.405X0.70149*%
%ADD84RoundRect,0.09424X-0.30756X0.87464X0.91124X0.17096*%
%ADD85RoundRect,0.09746X0.67762X-2.52889X-2.52889X-0.67762*%
%ADD86RoundRect,0.07144X-0.31414X0.28448X0.40343X-0.12981*%
%ADD87RoundRect,0.07144X0.31414X-0.28448X-0.40343X0.12981*%
%ADD88RoundRect,0.07144X-0.28448X-0.31414X0.12981X0.40343*%
%ADD89RoundRect,0.07144X0.28448X0.31414X-0.12981X-0.40343*%
%ADD90RoundRect,0.09489X-0.2043X0.98785X0.95765X0.317*%
%ADD91RoundRect,0.09368X0.02206X1.14595X0.98139X0.59208*%
%ADD92RoundRect,0.09368X0.7995X0.17797X0.24563X-0.78137*%
%ADD93RoundRect,0.07604X0.41408X-0.10846X0.30097X-0.30437*%
%ADD94RoundRect,0.07604X0.10846X0.41408X0.30437X0.30097*%
%ADD95RoundRect,0.07604X-0.10846X-0.41408X-0.30437X-0.30097*%
%ADD96RoundRect,0.09617X0.31198X-1.16432X-1.16432X-0.31198*%
%ADD97RoundRect,0.09302X0.06542X1.12188X0.93887X0.61759*%
G75*


G04 PolygonModel Start*
G54D10*
G01X680070Y-349765D02*
G01X1008327Y-539285D01*
G01X1097490Y-515394D01*
G54D11*
G01X1140670Y-440604D02*
G01X1282661Y-522583D01*
G01X1365873Y-500286D01*
G01X1520947Y-231690D01*
G01X1606176Y-208853D01*
G01X1689839Y-63945D01*
G54D12*
G01X1288088Y-193950D02*
G01X1538037Y-126976D01*
G01X1582420Y-50800D01*
G01X727388Y-832193D02*
G01X730691Y-831308D01*
G01X772037Y-759694D01*
G54D13*
G01X480438Y-818582D02*
G01X506319Y-915171D01*
G01X900388Y-1142687D01*
G54D12*
G01X480520Y-818542D02*
G01X632985Y-777689D01*
G54D13*
G01X2503501Y-17483D02*
G01X2460037Y-92764D01*
G01X2196958Y-163256D01*
G01X2044605Y-75295D01*
G01X1958579Y-98346D01*
G01X1906290Y-188913D01*
G54D11*
G01X1992958Y-238951D02*
G01X1802154Y-569433D01*
G01X1814374Y-615037D01*
G01X1665043Y-873687D01*
G01X1704191Y-1019789D01*
G54D14*
G01X2079627Y-288989D02*
G01X2012557Y-405156D01*
G01X2166295Y-339027D02*
G01X2099296Y-455074D01*
G54D12*
G01X1210806Y-1111976D02*
G01X1223619Y-1159794D01*
G01X1474276Y-1304511D01*
G01X1427040Y-1386327D01*
G01X969488Y-1105560D02*
G01X1126722Y-1063430D01*
G54D11*
G01X1517128Y-616075D02*
G01X1535137Y-584883D01*
G01X1772116Y-521384D01*
G01X1949586Y-213998D01*
G01X1949690Y-213970D01*
G54D15*
G01X2296078Y-413957D02*
G01X2215084Y-554242D01*
G01X2258708Y-717052D01*
G01X2224963Y-775501D01*
G01X2246838Y-857142D01*
G54D11*
G01X1646505Y-38926D02*
G01X1566761Y-177047D01*
G01X1440159Y-210970D01*
G01X1396066Y-287341D01*
G54D15*
G01X2161032Y-728576D02*
G01X2195475Y-668919D01*
G01X2162388Y-545437D01*
G01X2263044Y-371097D01*
G54D14*
G01X1526615Y-290824D02*
G01X1669521Y-252533D01*
G01X1786439Y-320035D01*
G01X1838666Y-306041D01*
G01X1906290Y-188913D01*
G01X2209409Y-363919D02*
G01X2108435Y-538811D01*
G01X2115269Y-564314D01*
G01X1945765Y-431016D02*
G01X1943890Y-424016D01*
G01X2036293Y-263970D01*
G01X2122895Y-313970D02*
G01X2122923Y-314074D01*
G01X2036344Y-464032D01*
G01X2339412Y-438976D02*
G01X2268313Y-562122D01*
G54D12*
G01X1474276Y-1304511D02*
G01X1474276Y-1304511D01*
G01X1523963Y-1291198D01*
G01X1726421Y-1408087D01*
G01X1728265Y-1414971D01*
G54D14*
G01X2705045Y-1104899D02*
G01X2302936Y-1801371D01*
G01X2127838Y-1848289D01*
G01X992931Y-1193050D01*
G01X969488Y-1105560D01*
G01X900388Y-1142687D02*
G01X919800Y-1215132D01*
G01X886981Y-1271975D01*
G01X899864Y-1320056D01*
G01X1119825Y-1447050D01*
G01X1175701Y-1432078D01*
G01X1207093Y-1377705D01*
G01X1235681Y-1370045D01*
G01X1451523Y-1494661D01*
G01X1465799Y-1547939D01*
G01X1448676Y-1577597D01*
G01X1464344Y-1636073D01*
G01X1673046Y-1756566D01*
G01X1724591Y-1742755D01*
G01X1745836Y-1705958D01*
G01X1793483Y-1693191D01*
G01X2128722Y-1886741D01*
G01X2314272Y-1837023D01*
G01X2428029Y-1639989D01*
G01X2459425Y-1631577D01*
G01X2727212Y-1167757D01*
G01X2727449Y-1167694D01*
G01X2772424Y-688975D02*
G01X2491984Y-1174712D01*
G01X2510043Y-1242110D01*
G01X2815736Y-714836D02*
G01X2564801Y-1149467D01*
G01X2638800Y-1120317D02*
G01X2359109Y-1604756D01*
G01X2159062Y-1658358D01*
G01X1812386Y-1458204D01*
G01X1715551Y-1484151D01*
G01X1577552Y-1404478D01*
G01X1521828Y-1419409D01*
G54D12*
G01X2847744Y-458695D02*
G01X2616379Y-859431D01*
G54D14*
G01X2572643Y-1704831D02*
G01X2516430Y-1672376D01*
G01X2455075Y-1688816D01*
G01X2315044Y-1931357D01*
G54D11*
G01X2838473Y-1162359D02*
G01X2745187Y-1323936D01*
G01X2642531Y-613982D02*
G01X2401721Y-1031077D01*
G01X2429765Y-1135738D01*
G01X2318629Y-1328232D01*
G01X2320290Y-1334433D01*
G01X2104382Y-1199447D02*
G01X2212593Y-1012019D01*
G01X2380998Y-966895D01*
G01X2599197Y-588963D01*
G54D12*
G01X2730347Y-1365874D02*
G03X2768240Y-1417081I82326J21297D01*
G54D11*
G01X2745187Y-1323936D02*
G03X2732273Y-1428578I123254J-68329D01*
G54D12*
G01X2629564Y-1601760D02*
G01X2731960Y-1424406D01*
G01X2766422Y-1415172D01*
G01X2768515Y-1416380D01*
G54D13*
G01X3072770Y-358555D02*
G01X3166515Y-333436D01*
G01X3166515Y-333435D01*
G01X3375642Y-454175D01*
G01X3101183Y-301660D02*
G01X3103044Y-301162D01*
G54D12*
G01X3325985Y-771886D02*
G01X2859497Y-502559D01*
G01X2847744Y-458695D01*
G01X2898820Y-370228D01*
G01X2871573Y-268540D01*
G01X2950413Y-131984D01*
G01X3269972Y-46359D01*
G01X3393670Y-117776D01*
G01X3461518Y-99597D01*
G01X3797483Y-293566D01*
G54D13*
G01X3072482Y-458470D02*
G01X3001882Y-477387D01*
G01X2991443Y-471360D01*
G01X2768600Y-99060D02*
G01X2512927Y-538818D01*
G01X2512529Y-538925D01*
G01X2885943Y-99060D02*
G01X2734658Y-355066D01*
G01X2771155Y-491274D01*
G01X2708857Y-599178D01*
G01X3073285Y-457078D02*
G01X3086840Y-433600D01*
G01X3123396Y-423805D01*
G01X3325731Y-540624D01*
G54D12*
G01X2865575Y-506068D02*
G01X2812124Y-520390D01*
G54D14*
G01X2858982Y-738950D02*
G01X2638800Y-1120317D01*
G01X2945628Y-788975D02*
G01X2726516Y-1168490D01*
G01X2726602Y-1168813D01*
G01X2902316Y-763969D02*
G01X2901450Y-764201D01*
G01X2704918Y-1104603D01*
G01X2382746Y-463995D02*
G01X2286774Y-630224D01*
G01X2555863Y-563944D02*
G01X2460686Y-728795D01*
G01X2426086Y-489017D02*
G01X2355477Y-611314D01*
G01X2512529Y-538925D02*
G01X2443403Y-658653D01*
G54D11*
G01X3387659Y-1207940D02*
G01X3170906Y-1082797D01*
G01X3167627Y-1083676D01*
G01X3165768Y-1084349D02*
G01X3167508Y-1083882D01*
G01X3200399Y-1026913D01*
G01X3496859Y-1168661D02*
G01X3453186Y-1244306D01*
G01X3200399Y-1026913D02*
G03X3153776Y-852912I-112349J63143D01*
G01X3056992Y-797034D02*
G01X3146167Y-848519D01*
G54D12*
G01X3325985Y-771886D02*
G01X3358032Y-891487D01*
G01X3381539Y-905058D01*
G54D11*
G01X3328880Y-715778D02*
G01X3425764Y-771714D01*
G01X3436149Y-810471D01*
G54D13*
G01X3400674Y-410819D02*
G01X3822762Y-654512D01*
G01X4132227Y-571591D01*
G01X4221796Y-416452D01*
G01X3103044Y-301162D02*
G01X3313275Y-244831D01*
G01X3853984Y-557009D01*
G01X4001828Y-517395D01*
G01X4128237Y-298448D01*
G01X4179066Y-284828D01*
G01X4179066Y-284828D01*
G01X4177806Y-354451D02*
G01X4119027Y-370200D01*
G01X4012591Y-554552D01*
G01X3833001Y-602674D01*
G01X3425680Y-367507D01*
G01X4166315Y-214021D02*
G01X4166315Y-214021D01*
G01X4136051Y-222130D01*
G01X3983679Y-486046D01*
G01X3879498Y-513961D01*
G01X3317917Y-189732D01*
G01X3037472Y-264877D01*
G01X2970629Y-234277D02*
G01X3328534Y-138376D01*
G01X3899311Y-467914D01*
G01X3970570Y-448821D01*
G01X4143530Y-149247D01*
G01X4144584Y-148964D01*
G01X3564918Y-794276D02*
G01X3131715Y-544166D01*
G01X3113837Y-477442D01*
G01X3171581Y-510347D02*
G01X3172697Y-510048D01*
G01X3647323Y-784073D01*
G54D12*
G01X2920967Y-2425812D02*
G01X3030586Y-2396439D01*
G01X3058596Y-2347924D01*
G54D14*
G01X2483509Y-1810454D02*
G01X2604932Y-1880558D01*
G54D13*
G01X2675870Y-2100331D02*
G01X2829037Y-1835038D01*
G01X2899244Y-1816226D01*
G54D14*
G01X2646289Y-1745512D02*
G01X2646872Y-1747687D01*
G01X2593909Y-1839420D01*
G54D13*
G01X2736868Y-2162175D02*
G01X2768510Y-2107370D01*
G01X3003945Y-2044285D01*
G54D12*
G01X2768515Y-1416380D02*
G01X3332297Y-1741880D01*
G01X3356451Y-1832025D01*
G01X3058596Y-2347924D01*
G54D14*
G01X2646289Y-1745512D02*
G01X2704354Y-1644940D01*
G54D12*
G01X3770518Y-149531D02*
G01X3686894Y-171938D01*
G01X3560038Y-98698D01*
G54D11*
G01X3290778Y-1527129D02*
G01X3338383Y-1444675D01*
G01X3342461Y-1443582D01*
G01X3287710Y-1381057D02*
G03X3010779Y-1357671I-163707J-287213D01*
G01X2893193Y-1199211D02*
G01X2944385Y-1228767D01*
G01X2943846Y-1228456D02*
G03X3108612Y-1184233I59887J105926D01*
G01X3033822Y-1141053D02*
G03X2839318Y-1161891I-82611J-147079D01*
G01X3287257Y-1207752D02*
G03X3108612Y-1184233I-116839J-197249D01*
G01X3034245Y-1140728D02*
G01X3091539Y-1041492D01*
G01X3287257Y-1207752D02*
G01X3362640Y-1251275D01*
G54D13*
G01X2942151Y-1741909D02*
G01X3032832Y-1794264D01*
G01X3061421Y-1786604D01*
G01X4284450Y-450986D02*
G01X4135417Y-709117D01*
G01X3849728Y-785668D01*
G01X3154513Y-384285D01*
G01X3032504Y-416977D01*
G01X3008626Y-403191D01*
G01X3325731Y-540624D02*
G01X3854750Y-846053D01*
G01X4195898Y-754642D01*
G01X4350018Y-487699D01*
G01X4352486Y-487037D01*
G01X4282510Y-451505D02*
G01X4284450Y-450986D01*
G54D11*
G01X3734940Y-1639265D02*
G02X3758331Y-1669748I-25101J-43476D01*
G01X3771187Y-1717730D01*
G03X3799208Y-1754247I58090J15565D01*
G01X3808184Y-1759429D01*
G01X3553120Y-1534291D02*
G01X3734940Y-1639265D01*
G01X3658836Y-1537841D02*
G01X3859775Y-1653853D01*
G01X3862743Y-1664930D01*
G01X3506238Y-1651461D02*
G01X3488651Y-1681922D01*
G03X3522365Y-1807743I79767J-46053D01*
G01X3683692Y-1494114D02*
G01X3683786Y-1494467D01*
G01X3788912Y-1555161D01*
G01X3708698Y-1450802D02*
G01X3788091Y-1496640D01*
G01X3788176Y-1496958D01*
G01X3788912Y-1555161D02*
G03X3841557Y-1562092I34689J60083D01*
G02X3891526Y-1568671I17043J-63607D01*
G01X3908933Y-1578721D01*
G03X3974518Y-1587355I43215J74851D01*
G01X4015930Y-1576259D01*
G03X4032514Y-1563534I-7069J26381D01*
G01X3788176Y-1496958D02*
G03X3861092Y-1506557I48046J83218D01*
G01X3880484Y-1501361D01*
G02X3937926Y-1508924I19592J-73120D01*
G54D12*
G01X3808566Y-1342814D02*
G01X3826215Y-1408682D01*
G01X3926596Y-1466637D01*
G01X3937926Y-1508924D01*
G54D13*
G01X3396142Y-2271394D02*
G01X3396179Y-2271533D01*
G01X3335245Y-2377075D01*
G01X3350533Y-2434130D01*
G01X3217072Y-2419568D02*
G01X3218372Y-2419220D01*
G01X3341812Y-2205415D01*
G01X3379966Y-2195192D01*
G01X3449825Y-2235525D01*
G01X3471020Y-2314625D01*
G01X3471108Y-2314676D01*
G01X3154774Y-2381769D02*
G01X3266574Y-2188125D01*
G01X3373775Y-2159401D01*
G01X3628154Y-2306267D01*
G01X3659454Y-2423081D01*
G01X3586638Y-2381041D02*
G01X3524939Y-2487906D01*
G01X3540857Y-2547310D01*
G01X3882384Y-1377541D02*
G01X3884156Y-1377067D01*
G01X4104358Y-1504200D01*
G01X4121782Y-1499531D01*
G01X4727477Y-1849229D01*
G01X4752241Y-1941649D01*
G01X4892692Y-2022739D01*
G01X4892946Y-2023684D01*
G01X4932945Y-1954402D02*
G01X4788706Y-1871125D01*
G01X4780332Y-1839876D01*
G01X3957900Y-1365045D01*
G01X4023750Y-1345563D02*
G01X4962936Y-1887802D01*
G01X4972945Y-1885120D01*
G01X4503677Y-1307004D02*
G01X4515740Y-1303772D01*
G01X4904222Y-1528062D01*
G01X5075167Y-1482257D01*
G01X5172945Y-1538710D01*
G01X3846587Y-1946575D02*
G01X3916157Y-1927933D01*
G01X4114833Y-1583818D01*
G01X4157410Y-1572409D01*
G01X4645165Y-1854015D01*
G01X4682630Y-1993835D01*
G01X4852692Y-2092021D01*
G01X4852945Y-2092966D01*
G01X4419075Y-1893654D02*
G01X4553084Y-1971024D01*
G01X4595170Y-2128092D01*
G01X4773187Y-2230870D01*
G01X4773381Y-2231595D01*
G01X4471137Y-1807702D02*
G01X4575832Y-1868148D01*
G01X4625410Y-2053176D01*
G01X4814295Y-2162229D01*
G01X4814951Y-2164675D01*
G01X5133621Y-1116024D02*
G01X5143028Y-1151134D01*
G01X5329585Y-1258843D01*
G01X5335991Y-1257127D01*
G01X4964194Y-905464D02*
G01X5180700Y-1030464D01*
G01X5196563Y-1089666D01*
G01X5372692Y-1191354D01*
G01X5372946Y-1192299D01*
G01X4572946Y-2577940D02*
G01X4347520Y-2447791D01*
G01X4328385Y-2376380D01*
G01X3961301Y-2164443D01*
G01X3923401Y-2022998D01*
G01X4400498Y-2385570D02*
G01X4612808Y-2508147D01*
G01X4612945Y-2508658D01*
G01X5902823Y-330530D02*
G01X5730720Y-231167D01*
G01X5611287Y-263169D01*
G01X5425620Y-584753D01*
G01X5274981Y-625117D01*
G01X5123372Y-537585D01*
G01X5095146Y-467213D02*
G01X5273619Y-570255D01*
G01X5423230Y-530167D01*
G01X5611381Y-204279D01*
G01X5770365Y-161680D01*
G01X5933686Y-255973D01*
G01X5936593Y-266824D01*
G01X5982823Y-191966D02*
G01X5832700Y-105293D01*
G01X5590353Y-170230D01*
G01X5411236Y-480469D01*
G01X5273967Y-517250D01*
G01X5068761Y-398774D01*
G01X4364322Y-2207241D02*
G01X4358447Y-2217417D01*
G01X4374908Y-2278851D01*
G01X4652945Y-2439376D01*
G01X4313265Y-2068362D02*
G01X4407867Y-2122981D01*
G01X4433773Y-2219662D01*
G01X4669475Y-2355744D01*
G01X4368462Y-1980249D02*
G01X4491761Y-2051435D01*
G01X4526417Y-2180774D01*
G01X4706618Y-2284813D01*
G01X4714554Y-2282687D01*
G54D11*
G01X5270972Y-1040250D02*
G01X5413291Y-1122418D01*
G01X5273051Y-1041451D02*
G01X5197186Y-997650D01*
G01X5233927Y-882193D02*
G01X5235433Y-887813D01*
G01X5202296Y-945206D01*
G01X5219855Y-1010738D01*
G01X5229176Y-866991D02*
G01X5224943Y-868126D01*
G01X5182280Y-942020D01*
G01X5197186Y-997650D01*
G01X5227949Y-867320D02*
G01X5242523Y-921710D01*
G01X5210748Y-976747D01*
G54D12*
G01X5227144Y-864315D02*
G01X5245610Y-933231D01*
G01X5447864Y-1050003D01*
G54D13*
G01X4215866Y-2590314D02*
G01X4234187Y-2658687D01*
G01X4447864Y-2782054D01*
G01X4261020Y-2510202D02*
G01X4283717Y-2594907D01*
G01X4533964Y-2739388D01*
G01X4182822Y-2353747D02*
G01X4306202Y-2424980D01*
G01X4334900Y-2532082D01*
G01X4532692Y-2646277D01*
G01X4532945Y-2647222D01*
G01X4052760Y-2680269D02*
G01X4053456Y-2682868D01*
G01X4142409Y-2734225D01*
G01X4160232Y-2800742D01*
G01X4367864Y-2920618D01*
G01X4169719Y-2676031D02*
G01X4180226Y-2715243D01*
G01X4406385Y-2845817D01*
G01X4985630Y-1377463D02*
G01X5033039Y-1364760D01*
G01X5207864Y-1465695D01*
G01X5038442Y-1289547D02*
G01X5054111Y-1285348D01*
G01X5252946Y-1400146D01*
G01X5086084Y-1210633D02*
G01X5287864Y-1327131D01*
G01X4087518Y-2816916D02*
G01X4127900Y-2967626D01*
G01X4292945Y-3062914D01*
G01X3949402Y-2683788D02*
G01X4126076Y-2785791D01*
G01X4153846Y-2889430D01*
G01X4327864Y-2989900D01*
G01X10635245Y-458547D02*
G01X10573547Y-565413D01*
G01X10589464Y-624817D01*
G54D12*
G01X9969574Y-503318D02*
G01X10079193Y-473946D01*
G01X10107203Y-425431D01*
G54D13*
G01X11081570Y-106133D02*
G01X11204949Y-177366D01*
G01X11233647Y-284468D01*
G01X11431439Y-398663D01*
G01X11431693Y-399609D01*
G01X11299245Y-137956D02*
G01X11511556Y-260533D01*
G01X11511693Y-261044D01*
G01X10986265Y-569302D02*
G01X11026648Y-720012D01*
G01X11191693Y-815301D01*
G01X10848149Y-436175D02*
G01X11024823Y-538177D01*
G01X11052593Y-641817D01*
G01X11226612Y-742286D01*
G01X10951507Y-432655D02*
G01X10952204Y-435254D01*
G01X11041156Y-486611D01*
G01X11058980Y-553128D01*
G01X11266611Y-673004D01*
G01X11068466Y-428417D02*
G01X11078973Y-467629D01*
G01X11305133Y-598203D01*
G01X11114614Y-342700D02*
G01X11132934Y-411073D01*
G01X11346612Y-534440D01*
G01X11159768Y-262588D02*
G01X11182464Y-347294D01*
G01X11432711Y-491774D01*
G54D12*
G01X8392797Y-388768D02*
G01X8419348Y-404097D01*
G01X8562291Y-365796D01*
G01X8599353Y-387193D01*
G01X8721966Y-354339D01*
G54D13*
G01X8702493Y-2717693D02*
G01X8713953Y-2760460D01*
G01X9038345Y-2947748D01*
G01X9159949Y-3401581D01*
G01X9675666Y-3699331D01*
G01X9650647Y-3742665D02*
G01X9128225Y-3441044D01*
G01X9001817Y-2969285D01*
G01X8671536Y-2778597D01*
G01X8647358Y-2688361D01*
G01X8682878Y-2626838D01*
G01X8065395Y-943064D02*
G01X8131702Y-828217D01*
G01X8233046Y-801062D01*
G01X9146316Y-1328339D01*
G01X9279775Y-1292579D01*
G01X9358130Y-1156865D01*
G01X9141679Y-1031897D02*
G01X9194354Y-940661D01*
G01X9241689Y-927977D01*
G01X9282988Y-856445D01*
G01X9215334Y-856407D02*
G01X9192728Y-895562D01*
G01X9157102Y-905108D01*
G01X9098345Y-1006878D01*
G01X9314796Y-1131846D02*
G01X9243390Y-1255525D01*
G01X9147365Y-1281255D01*
G01X8635048Y-985468D01*
G01X8594855Y-835466D01*
G01X8137623Y-571483D01*
G01X8095221Y-582845D01*
G01X8001481Y-745207D01*
G01X8032292Y-860193D01*
G01X8004683Y-908012D01*
G01X9055011Y-981859D02*
G01X9099768Y-904337D01*
G01X9119840Y-898959D01*
G01X9148303Y-849659D01*
G01X9084499Y-851278D02*
G01X9062199Y-889903D01*
G01X9048149Y-893668D01*
G01X9011677Y-956840D01*
G01X8968342Y-931821D02*
G01X9020503Y-841476D01*
G01X7974451Y-890499D02*
G01X7999775Y-846637D01*
G01X7969931Y-735258D01*
G01X8074428Y-554265D01*
G01X8141340Y-536336D01*
G01X8635244Y-821491D01*
G01X8674255Y-967082D01*
G01X9134361Y-1232725D01*
G01X9210563Y-1212306D01*
G01X9271462Y-1106827D01*
G01X9401464Y-1181884D02*
G01X9306665Y-1346081D01*
G01X9180021Y-1380015D01*
G01X8241107Y-837933D01*
G01X8152925Y-861561D01*
G01X8097654Y-957293D01*
G01X8099192Y-963031D01*
G01X8560034Y-1938552D02*
G01X8735104Y-1635322D01*
G01X8755023Y-1854617D02*
G01X8844924Y-1698904D01*
G01X8845064Y-1698866D01*
G01X8390664Y-1969000D02*
G01X8619033Y-1573453D01*
G01X8657107Y-1879140D02*
G01X8537450Y-2086393D01*
G01X8463190Y-2106291D01*
G01X8382044Y-2246840D01*
G01X9531247Y-1256814D02*
G01X9465969Y-1369878D01*
G01X9182446Y-1445848D01*
G01X8323678Y-950038D01*
G01X8204543Y-981960D01*
G01X8186598Y-1013041D01*
G01X8126011Y-978002D02*
G01X8180501Y-883623D01*
G01X8237835Y-868260D01*
G01X9186388Y-1415907D01*
G01X9349338Y-1372245D01*
G01X9444798Y-1206903D01*
G01X8803903Y-2022658D02*
G01X8600321Y-2375271D01*
G01X8602308Y-2382687D01*
G01X8622186Y-2077677D02*
G01X8490707Y-2305405D01*
G54D12*
G01X8593140Y-1190745D02*
G01X8671096Y-1235753D01*
G01X8704785Y-1226726D01*
G01X9128761Y-1471508D01*
G01X9131429Y-1470793D01*
G54D13*
G01X7845815Y-1393492D02*
G01X7809857Y-1455772D01*
G01X7840220Y-1569086D01*
G01X8064947Y-1698832D01*
G01X8083075Y-1766487D01*
G01X8236404Y-1855012D01*
G01X8336142Y-1828287D01*
G01X8542198Y-1471388D01*
G01X8686038Y-1432847D01*
G01X9392612Y-1840787D01*
G01X9909295Y-1702342D01*
G01X10003847Y-1538575D01*
G01X10015305Y-1535504D01*
G01X9381373Y-1796607D02*
G01X8696457Y-1401170D01*
G01X8523814Y-1447430D01*
G01X8371650Y-1710986D01*
G01X8298135Y-1730685D01*
G01X7932661Y-1519678D01*
G01X7920435Y-1474049D01*
G01X9372245Y-1759120D02*
G01X8700399Y-1371230D01*
G01X8505430Y-1423471D01*
G01X8353265Y-1687028D01*
G01X8302077Y-1700744D01*
G01X8085255Y-1575562D01*
G01X8063181Y-1493179D01*
G01X8027907Y-1472814D01*
G01X8062959Y-1412102D02*
G01X8223189Y-1504610D01*
G01X8374603Y-1464039D01*
G01X8451554Y-1330755D01*
G01X8533599Y-1308771D01*
G01X8607690Y-1351547D01*
G01X8685839Y-1330607D01*
G01X9364612Y-1722497D01*
G01X9348227Y-1680821D02*
G01X8688523Y-1299941D01*
G01X8611968Y-1320454D01*
G01X8520983Y-1267923D01*
G01X8439798Y-1289677D01*
G01X8352686Y-1440558D01*
G01X8236345Y-1471731D01*
G01X8080607Y-1381816D01*
G01X8080503Y-1381844D01*
G01X8097997Y-1351437D02*
G01X8249991Y-1439191D01*
G01X8330449Y-1417632D01*
G01X8419849Y-1262787D01*
G01X8524026Y-1234873D01*
G01X8614920Y-1287350D01*
G01X8688410Y-1267659D01*
G01X9337352Y-1642326D01*
G01X8935359Y-2653199D02*
G01X8978201Y-2677934D01*
G01X9061672Y-2655568D01*
G01X9541397Y-997026D02*
G01X9569312Y-1013143D01*
G01X9583618Y-1066535D01*
G01X9488133Y-1231922D01*
G01X9747918Y-1381909D02*
G01X9664917Y-1525671D01*
G01X9365062Y-1606016D01*
G01X9207751Y-1515193D01*
G01X9320158Y-1509918D02*
G01X9395631Y-1553492D01*
G01X9626844Y-1491539D01*
G01X9704584Y-1356890D01*
G01X9661249Y-1331871D02*
G01X9588909Y-1457169D01*
G01X9439026Y-1497329D01*
G01X9405085Y-1477733D01*
G01X9700685Y-3655996D02*
G01X9416411Y-3491871D01*
G54D17*
G01X9725691Y-3612684D02*
G01X9725682Y-3612650D01*
G01X9511625Y-3489064D01*
G01X9482616Y-3380800D01*
G01X9471519Y-3374393D01*
G54D13*
G01X9921035Y-1481858D02*
G01X9832096Y-1635904D01*
G01X9372245Y-1759120D01*
G01X9364612Y-1722497D02*
G01X9790154Y-1608474D01*
G01X9877700Y-1456839D01*
G01X9834366Y-1431820D02*
G01X9753265Y-1572291D01*
G01X9348227Y-1680821D01*
G01X9337352Y-1642326D02*
G01X9713542Y-1541526D01*
G01X9791252Y-1406928D01*
G01X9559756Y-1409676D02*
G01X9618298Y-1308278D01*
G01X9617915Y-1306852D01*
G01X9486930Y-1432286D02*
G01X9487860Y-1432037D01*
G01X9574581Y-1281833D01*
G01X9531247Y-1256814D02*
G01X9564213Y-1199715D01*
G01X9636230Y-1180418D01*
G01X10190058Y-1500171D01*
G01X10005709Y-3537635D02*
G01X9891496Y-3735459D01*
G01X9890292Y-3735781D01*
G01X10049043Y-3562654D02*
G01X9967205Y-3704403D01*
G01X9965400Y-3704887D01*
G54D14*
G01X10190267Y-1753813D02*
G01X10173606Y-1782672D01*
G01X10111056Y-1799432D01*
G54D11*
G01X9793073Y-1875168D02*
G01X9880877Y-1851641D01*
G01X10051037Y-1556915D01*
G54D13*
G01X9964369Y-1506877D02*
G01X9873175Y-1664829D01*
G01X9381373Y-1796607D01*
G01X10283966Y-2649499D02*
G01X10407395Y-2720760D01*
G01X10447879Y-2871850D01*
G01X10049043Y-3562654D01*
G01X9504542Y-1873328D02*
G01X9477807Y-1919634D01*
G01X9514570Y-2056838D01*
G01X9657053Y-3386460D02*
G01X9548488Y-2981291D01*
G01X9680238Y-2753093D01*
G01X9629881Y-2565156D01*
G01X9545449Y-2516409D01*
G54D12*
G01X9616739Y-2264275D02*
G01X9576755Y-2241190D01*
G01X9517936Y-2256951D01*
G01X9357258Y-2535252D01*
G01X9378340Y-2613930D01*
G01X9510421Y-2690187D01*
G54D13*
G01X9608992Y-2406449D02*
G01X9690604Y-2453568D01*
G01X9761353Y-2717607D01*
G01X9622369Y-2958335D01*
G01X9730177Y-3360679D01*
G01X10052244Y-3756381D02*
G01X10192011Y-3514299D01*
G01X10175966Y-3454418D01*
G01X10545302Y-2814710D01*
G01X10494275Y-2624273D01*
G01X10347422Y-2539488D01*
G54D12*
G01X10567044Y-2178205D02*
G01X10534753Y-2057692D01*
G01X10541059Y-2046769D01*
G54D13*
G01X10666395Y-3269366D02*
G01X10718669Y-3255360D01*
G01X10795620Y-3122077D01*
G54D17*
G01X10600897Y-3606561D02*
G01X10517358Y-3751253D01*
G54D13*
G01X11134650Y-2600956D02*
G01X11089505Y-2613052D01*
G01X11164313Y-2435078D02*
G01X11217579Y-2342819D01*
G01X11262050Y-2330903D01*
G01X11298738Y-2352084D01*
G01X11308316Y-2387832D01*
G01X11253344Y-2483046D01*
G01X11251126Y-2483641D01*
G54D11*
G01X11025516Y-2349069D02*
G01X11059521Y-2290171D01*
G01X11283515Y-2230152D01*
G01X11283515Y-2230151D01*
G01X11472955Y-2339525D01*
G54D12*
G01X11304070Y-3728603D02*
G01X10941278Y-3519145D01*
G01X10932611Y-3486797D01*
G01X11045283Y-3291643D01*
G01X11044881Y-3290140D01*
G54D13*
G01X11294658Y-2509857D02*
G01X11339900Y-2431495D01*
G01X11319984Y-2813799D02*
G01X11347893Y-2765460D01*
G01X11412859Y-2748052D01*
G01X11590955Y-2850876D01*
G01X11624278Y-2975241D01*
G01X11615589Y-2990291D01*
G01X11131350Y-3340166D02*
G01X11203261Y-3320898D01*
G01X11304870Y-3379562D01*
G01X11576847Y-3063755D02*
G01X11600238Y-3151051D01*
G01X11669597Y-3191096D01*
G54D17*
G01X11969442Y-3392398D02*
G01X12017034Y-3419875D01*
G01X12061497Y-3407961D01*
G01X12123014Y-3301410D01*
G01X12098829Y-3211152D01*
G01X11987768Y-3147031D01*
G01X11943807Y-2982965D01*
G54D13*
G01X11713819Y-3515907D02*
G01X11828407Y-3582064D01*
G01X11861281Y-3573255D01*
G54D11*
G01X11379099Y-3422418D02*
G01X11356511Y-3461541D01*
G01X11367577Y-3502836D01*
G01X11367577Y-3502837D01*
G01X11292556Y-3632776D01*
G54D17*
G01X11437764Y-3670449D02*
G01X11519952Y-3648427D01*
G01X11639829Y-3440794D01*
G01X11615327Y-3349350D01*
G54D13*
G01X11174446Y-2665574D02*
G01X11162852Y-2622304D01*
G01X11240551Y-2487725D01*
G01X11210160Y-2470168D02*
G01X11135665Y-2599197D01*
G54D17*
G01X11905496Y-3492996D02*
G01X11899763Y-3494532D01*
G54D13*
G01X11379099Y-3422418D02*
G01X11489837Y-3486353D01*
G54D17*
G01X11964537Y-3394412D02*
G01X11908007Y-3492323D01*
G01X11905496Y-3492996D01*
G54D13*
G01X12283891Y-3078293D02*
G01X12289108Y-3076895D01*
G01X12340066Y-2988632D01*
G01X12376517Y-2978865D01*
G01X12418072Y-3002858D01*
G01X12427279Y-3037218D01*
G01X12371166Y-3134410D01*
G54D10*
G01X13682627Y-3308583D02*
G01X13362824Y-3123944D01*
G01X13322325Y-2972802D01*
G01X12983326Y-2777080D01*
G01X12573149Y-2886987D01*
G54D11*
G01X12140910Y-2995743D02*
G01X12172346Y-2941294D01*
G01X12197485Y-2934558D01*
G01X12289819Y-2774631D01*
G01X12275665Y-3648796D02*
G01X12235166Y-3659647D01*
G01X12275665Y-3648796D01*
G01X13126865Y-3568302D02*
G01X13185209Y-3467247D01*
G01X13241153Y-3452257D01*
G01X12339430Y-3538352D02*
G01X12275665Y-3648796D01*
G01X12321836Y-3675453D01*
G01X12336376Y-3729714D01*
G54D10*
G01X13682627Y-3308583D02*
G01X13702693Y-3383470D01*
G01X13663752Y-3450917D01*
G54D11*
G01X14248591Y-3302105D02*
G01X14236851Y-3322439D01*
G01X14284020Y-3498477D01*
G01X14349979Y-3613138D02*
G01X14274039Y-3569294D01*
G01X14264242Y-3532733D01*
G01X14284020Y-3498477D01*
G54D12*
G01X14248591Y-3302105D02*
G01X14299347Y-3491529D01*
G01X14388909Y-3543238D01*
G54D13*
G01X9228348Y-1081935D02*
G01X9178083Y-1168995D01*
G01X9119151Y-1184786D01*
G01X8717782Y-953055D01*
G01X8678180Y-805258D01*
G01X8145119Y-497495D01*
G01X8058107Y-520809D01*
G01X7938907Y-727271D01*
G01X7967268Y-833117D01*
G01X7944191Y-873087D01*
G01X7913835Y-855561D02*
G01X7934710Y-819406D01*
G01X7907882Y-719284D01*
G01X8038199Y-493569D01*
G01X8149067Y-463862D01*
G01X8724135Y-795878D01*
G01X8762117Y-937629D01*
G01X9107546Y-1137062D01*
G01X9144450Y-1127174D01*
G01X9185013Y-1056916D01*
G54D12*
G01X8925228Y-906929D02*
G01X8965150Y-837783D01*
G01X8948390Y-775235D01*
G01X9093340Y-524173D01*
G54D13*
G01X9132350Y-1994711D02*
G01X9148340Y-1967016D01*
G01X9211779Y-1950018D01*
G01X9249246Y-1885123D01*
G01X9355241Y-1856722D01*
G01X9414765Y-1891088D01*
G01X9429849Y-1887046D01*
G54D14*
G01X6876072Y-2459186D02*
G01X6941894Y-2345180D01*
G01X5813510Y-2239575D02*
G01X6374058Y-2563208D01*
G01X6527239Y-2522163D01*
G01X5838529Y-2196241D02*
G01X6391752Y-2515644D01*
G01X6518375Y-2481716D01*
G01X6113484Y-1720005D02*
G01X6295908Y-1825328D01*
G01X6307198Y-1867462D01*
G01X6476395Y-1965148D01*
G54D13*
G01X7140688Y-1438790D02*
G01X7134999Y-1448643D01*
G01X7092378Y-1460063D01*
G01X6991442Y-1634890D01*
G01X6991504Y-1635122D01*
G54D15*
G01X7612532Y-1192522D02*
G01X7398988Y-1069232D01*
G54D11*
G01X6727541Y-1122162D02*
G02X6669006Y-1114456I-21105J65851D01*
G01X6624601Y-1088818D01*
G01X7020839Y-876304D02*
G02X7031840Y-873357I6974J-4027D01*
G01X7135936Y-933456D01*
G01X6736802Y-896243D02*
G03X6847483Y-895761I54360J225561D01*
G54D14*
G01X6213560Y-1546668D02*
G01X6420219Y-1665983D01*
G01X6439706Y-1738711D01*
G01X6610913Y-1837557D01*
G54D13*
G01X7663899Y-1288463D02*
G01X7610961Y-1380154D01*
G01X7345463Y-1451294D01*
G01X7265759Y-1405277D01*
G01X7140688Y-1438790D01*
G54D14*
G01X6088465Y-1763339D02*
G01X6238746Y-1850104D01*
G01X6252174Y-1900217D01*
G01X6490553Y-2037846D01*
G54D13*
G01X7155117Y-1586518D02*
G01X7211861Y-1488235D01*
G01X7291412Y-1466919D01*
G01X7324231Y-1485867D01*
G01X7639115Y-1401495D01*
G01X7694255Y-1305989D01*
G54D14*
G01X7372282Y-3528588D02*
G01X7372646Y-3529945D01*
G01X7239982Y-3759725D01*
G01X7073477Y-3557452D02*
G01X6986390Y-3708290D01*
G01X6880611Y-3730160D02*
G01X6670085Y-3786570D01*
G01X6128350Y-3473800D01*
G54D15*
G01X7403076Y-1071459D02*
G03X7336365Y-1061082I-45137J-70553D01*
G54D11*
G01X7246767Y-1009235D02*
G01X7336416Y-1060994D01*
G01X6847483Y-895761D02*
G02X6953287Y-867411I535980J-1788709D01*
G01X6953288Y-867411D01*
G01X7020839Y-876304D02*
G03X6953288Y-867411I-43380J-68508D01*
G54D14*
G01X6138503Y-1676671D02*
G01X6333881Y-1789473D01*
G01X6342740Y-1822534D01*
G01X6550414Y-1942435D01*
G01X6188541Y-1590002D02*
G01X6363558Y-1691049D01*
G01X6386564Y-1776906D01*
G01X6537100Y-1863818D01*
G54D12*
G01X7648358Y-2968461D02*
G01X7632145Y-2907952D01*
G01X7781989Y-2648415D01*
G54D13*
G01X8150462Y-1260542D02*
G01X8229089Y-1305937D01*
G01X8254186Y-1299213D01*
G01X8291241Y-1320606D01*
G01X8220439Y-1139338D02*
G01X8276537Y-1171726D01*
G01X8353376Y-1151137D01*
G01X8436818Y-1199312D01*
G54D14*
G01X8282817Y-2900552D02*
G01X8283086Y-2901556D01*
G01X8211366Y-3025779D01*
G54D13*
G01X8204129Y-2809816D02*
G01X8187501Y-2838616D01*
G01X8199857Y-2884730D01*
G01X8120625Y-3021964D01*
G54D14*
G01X7911743Y-2905123D02*
G01X7911432Y-2905206D01*
G01X7911743Y-2905123D01*
G54D13*
G01X8139921Y-2776535D02*
G01X8107481Y-2832723D01*
G01X8117256Y-2869204D01*
G01X8047372Y-2990247D01*
G01X8048869Y-2995833D01*
G01X8115502Y-1321118D02*
G01X8216836Y-1379623D01*
G01X8226082Y-1377145D01*
G01X8132936Y-1290898D02*
G01X8215137Y-1338356D01*
G01X8233065Y-1333553D01*
G01X8284833Y-1363441D01*
G01X8289573Y-1381132D01*
G01X7815459Y-1375966D02*
G01X7773342Y-1448914D01*
G01X7822571Y-1632637D01*
G54D11*
G01X8281464Y-1613696D02*
G01X8367182Y-1590728D01*
G01X8486640Y-1383820D01*
G54D13*
G01X8121532Y-1727995D02*
G01X8110463Y-1686685D01*
G01X7869324Y-1547464D01*
G01X7846430Y-1462021D01*
G01X7875950Y-1410891D01*
G01X8156243Y-995515D02*
G01X8193324Y-931288D01*
G01X8219296Y-924329D01*
G54D15*
G01X8425061Y-1106965D02*
G01X8413815Y-1100472D01*
G01X8283639Y-1135352D01*
G01X8237965Y-1108983D01*
G54D13*
G01X8185387Y-1200050D02*
G01X8256165Y-1240913D01*
G01X8308489Y-1226893D01*
G01X8316626Y-1231591D01*
G01X8202913Y-1169694D02*
G01X8262826Y-1204285D01*
G01X8328173Y-1186775D01*
G01X8378007Y-1215547D01*
G01X8378660Y-1215372D01*
G01X7700035Y-1040962D02*
G01X7618855Y-994093D01*
G01X7551023Y-740943D01*
G01X7671739Y-531857D01*
G01X7660920Y-491481D01*
G01X7564852Y-426231D02*
G01X7606962Y-583388D01*
G01X7517248Y-738777D01*
G01X7592414Y-1019302D01*
G01X7682509Y-1071318D01*
G01X7939960Y-205830D02*
G01X7947688Y-234670D01*
G01X7651132Y-748320D01*
G01X7696549Y-917819D01*
G01X7752486Y-950114D01*
G01X7769991Y-919599D02*
G01X7718134Y-889660D01*
G01X7681240Y-751971D01*
G01X8007167Y-187450D01*
G01X8000836Y-163825D01*
G01X7735087Y-980250D02*
G01X7674824Y-945458D01*
G01X7621023Y-744669D01*
G01X7896491Y-267545D01*
G01X7881561Y-211825D01*
G01X7968563Y-61134D01*
G01X8025386Y-45908D01*
G01X8156493Y-187611D02*
G01X8016427Y-430212D01*
G01X7970756Y-442450D01*
G01X7780992Y-771132D01*
G01X7791624Y-810813D01*
G01X7822590Y-828690D01*
G01X7805064Y-859047D02*
G01X7765451Y-836176D01*
G01X7747295Y-768418D01*
G01X7961018Y-398240D01*
G01X7984183Y-392033D01*
G01X8133684Y-133089D01*
G01X8165647Y-124525D01*
G01X8119383Y-81815D02*
G01X8102336Y-86383D01*
G01X8102336Y-86383D01*
G01X7712808Y-761065D01*
G01X7739813Y-861848D01*
G01X7785336Y-888131D01*
G01X8255491Y-1078626D02*
G01X8281589Y-1093694D01*
G01X8330662Y-1080545D01*
G01X8347546Y-1051300D01*
G54D11*
G01X8220939Y-52512D02*
G01X8333242Y-117351D01*
G01X8370420Y-256102D01*
G01X8319951Y-343517D01*
G01X8321515Y-349355D01*
G54D13*
G01X7664983Y-1101674D02*
G01X7569224Y-1046388D01*
G01X7485424Y-733642D01*
G01X7572516Y-582795D01*
G01X7555655Y-519869D01*
G01X7500445Y-487993D01*
G01X7485391Y-431809D01*
G01X7551815Y-316759D01*
G01X7588983Y-306800D01*
G01X7622600Y-326208D01*
G01X7631234Y-311253D01*
G01X7685086Y-296823D01*
G01X7706340Y-260011D01*
G01X7835043Y-265421D02*
G01X7775250Y-368985D01*
G01X7723662Y-382808D01*
G01X7747014Y-469957D01*
G01X7585304Y-750049D01*
G01X7643692Y-967958D01*
G01X7717561Y-1010606D01*
G54D17*
G01X5696001Y-2005464D02*
G01X5840724Y-1966686D01*
G01X5938478Y-2023124D01*
G54D14*
G01X5638504Y-2542694D02*
G01X6208405Y-2871727D01*
G01X6249170Y-3023864D01*
G01X5663523Y-2499360D02*
G01X6239863Y-2832110D01*
G01X6288118Y-3012203D01*
G01X5688542Y-2456026D02*
G01X6262582Y-2787448D01*
G01X6322022Y-3009281D01*
G01X5800560Y-3337162D02*
G01X5925821Y-3409481D01*
G01X5974345Y-3590578D01*
G01X6064531Y-3642646D01*
G01X6088506Y-3732125D01*
G01X5728475Y-3298888D02*
G01X5744881Y-3360118D01*
G01X5892230Y-3445189D01*
G01X5916431Y-3535510D01*
G01X5855762Y-3640592D01*
G01X6034319Y-3116994D02*
G01X5927454Y-3302091D01*
G01X5998694Y-3567962D01*
G01X5438479Y-2889148D02*
G01X5763045Y-3076536D01*
G01X5783807Y-3070973D01*
G01X5922288Y-3150926D01*
G01X5463498Y-2845814D02*
G01X5767568Y-3021369D01*
G01X5802708Y-3011953D01*
G01X5913648Y-3076004D01*
G01X5513536Y-2759145D02*
G01X6016196Y-3049356D01*
G01X6034319Y-3116994D01*
G01X5538555Y-2715811D02*
G01X6068804Y-3021951D01*
G01X6085479Y-3084184D01*
G01X5563574Y-2672477D02*
G01X6109253Y-2987525D01*
G01X6129619Y-3063531D01*
G01X5588466Y-2629363D02*
G01X6146756Y-2951692D01*
G01X6172004Y-3045918D01*
G01X5613485Y-2586029D02*
G01X6180113Y-2913172D01*
G01X6212049Y-3032358D01*
G01X6917099Y-3668285D02*
G01X7004683Y-3516586D01*
G01X6150316Y-3447981D02*
G01X6647946Y-3735287D01*
G01X6810047Y-3691852D01*
G01X6935072Y-3476628D02*
G01X6847589Y-3628153D01*
G01X6742148Y-3649436D02*
G01X6621791Y-3681686D01*
G01X6173814Y-3423046D01*
G01X6224759Y-3412031D02*
G01X6620572Y-3640554D01*
G01X6662455Y-3629331D01*
G01X6695361Y-3572336D01*
G01X6778298Y-3588148D02*
G01X6865610Y-3436918D01*
G54D13*
G01X8167988Y-1230186D02*
G01X8242800Y-1273379D01*
G01X8281629Y-1262975D01*
G01X8338371Y-1295734D01*
G54D12*
G01X7688729Y-2594570D02*
G01X7699207Y-2633675D01*
G01X7634801Y-2745230D01*
G54D15*
G01X7754747Y-1340914D02*
G01X7635707Y-1547097D01*
G01X7576143Y-1563057D01*
G01X7440023Y-1548968D02*
G01X7465716Y-1504467D01*
G01X7648052Y-1455610D01*
G01X7724379Y-1323409D01*
G54D13*
G01X7906307Y-1428417D02*
G01X7884089Y-1466899D01*
G01X7902141Y-1534274D01*
G01X8163936Y-1685421D01*
G01X8184163Y-1760907D01*
G54D15*
G01X7785103Y-1358440D02*
G01X7715822Y-1478438D01*
G01X7752254Y-1614407D01*
G01X7703864Y-1698222D01*
G01X7727820Y-1787628D01*
G01X7643741Y-1810157D01*
G01X7562061Y-1951631D01*
G01X7601232Y-2097818D01*
G01X7647105Y-1612866D02*
G01X7597403Y-1698953D01*
G01X7603297Y-1720949D01*
G01X7543753Y-1824082D01*
G54D14*
G01X5863548Y-2152907D02*
G01X6412207Y-2469676D01*
G01X6507917Y-2444030D01*
G01X6993263Y-2020137D02*
G01X6670504Y-2106620D01*
G01X6499331Y-2403101D01*
G01X6429419Y-2421834D01*
G01X5888567Y-2109573D01*
G01X5913459Y-2066458D02*
G01X6415758Y-2356461D01*
G01X6429490Y-2352782D01*
G01X6821061Y-3356752D02*
G01X6719291Y-3297996D01*
G01X6659734Y-3313954D01*
G01X6570646Y-3468260D01*
G01X6202802Y-3330086D02*
G01X6224759Y-3412031D01*
G01X6501355Y-3428255D02*
G01X6583888Y-3285304D01*
G01X6735784Y-3244604D01*
G01X6799715Y-3281514D01*
G01X6689597Y-3362528D02*
G01X6700527Y-3403319D01*
G01X6621816Y-3539650D01*
G01X6527239Y-2522163D02*
G01X6725656Y-2178495D01*
G01X6981438Y-2109958D01*
G01X7867143Y-2621321D01*
G01X7874742Y-2649679D01*
G01X7720476Y-2916876D01*
G01X7724849Y-2933196D01*
G01X5763472Y-2326244D02*
G01X6326512Y-2651315D01*
G01X6551987Y-2590899D01*
G01X6551987Y-2590899D02*
G01X6762424Y-2226412D01*
G01X6973555Y-2169840D01*
G01X7490465Y-2468278D01*
G01X7528089Y-2608694D01*
G01X7433166Y-2773107D01*
G01X7432282Y-2773343D01*
G01X6577765Y-2662931D02*
G01X6801392Y-2275599D01*
G01X6967871Y-2230991D01*
G01X7377674Y-2467591D01*
G01X7392605Y-2523314D01*
G01X7283805Y-2711762D01*
G01X7508915Y-2800524D02*
G01X7590567Y-2659098D01*
G01X7538188Y-2463614D01*
G01X6977496Y-2139899D01*
G01X6744040Y-2202454D01*
G01X6539613Y-2556531D01*
G01X7361814Y-2738056D02*
G01X7461500Y-2565396D01*
G01X7435625Y-2468833D01*
G01X6969613Y-2199780D01*
G01X6780808Y-2250370D01*
G01X6564946Y-2624254D01*
G01X8282817Y-2900552D02*
G01X8296288Y-2877220D01*
G01X8252862Y-2715151D01*
G01X6997205Y-1990196D01*
G01X6644581Y-2084682D01*
G01X6537974Y-2269329D01*
G01X6481462Y-2284472D01*
G01X5788491Y-2282909D02*
G01X6350285Y-2607261D01*
G01X6539613Y-2556531D01*
G01X7009487Y-2385639D02*
G01X6840243Y-2678780D01*
G01X6850924Y-2718643D01*
G01X6786421Y-2830366D01*
G01X7222692Y-2658924D02*
G01X7288347Y-2545205D01*
G01X7912926Y-3135775D02*
G01X7899624Y-3086134D01*
G01X8036556Y-2848960D01*
G01X7964766Y-2581034D01*
G01X6993263Y-2020137D01*
G01X5713561Y-2412692D02*
G01X6281339Y-2740499D01*
G01X6575565Y-2661661D01*
G01X6507917Y-2444030D02*
G01X6688888Y-2130578D01*
G01X6989322Y-2050077D01*
G01X7915060Y-2584553D01*
G01X7972677Y-2799583D01*
G01X7911743Y-2905123D01*
G01X7827689Y-3050708D01*
G01X7834387Y-3075703D01*
G01X7761247Y-3008790D02*
G01X7924216Y-2726520D01*
G01X7891102Y-2602937D01*
G01X6985380Y-2080018D01*
G01X6707272Y-2154537D01*
G01X6518375Y-2481716D01*
G01X6480118Y-2213223D02*
G01X6543734Y-2196178D01*
G01X6621159Y-2062073D01*
G01X7001147Y-1960256D01*
G01X8329058Y-2726925D01*
G01X8405101Y-3010723D01*
G01X8343559Y-3117316D01*
G01X5738453Y-2369578D02*
G01X6301726Y-2694784D01*
G01X6564946Y-2624254D01*
G01X6878499Y-3260873D02*
G01X6731987Y-3176284D01*
G01X6521950Y-3232563D01*
G01X6432064Y-3388250D01*
G01X6172004Y-3045918D02*
G01X6020429Y-3308455D01*
G01X6076031Y-3515964D01*
G01X6212049Y-3032358D02*
G01X6053782Y-3306485D01*
G01X6104734Y-3496639D01*
G01X6249170Y-3023864D02*
G01X6084305Y-3309419D01*
G01X6128350Y-3473800D01*
G01X6288118Y-3012203D02*
G01X6114245Y-3313360D01*
G01X6150316Y-3447981D01*
G01X6362774Y-3348245D02*
G01X6459682Y-3180395D01*
G01X6722497Y-3109974D01*
G01X6854955Y-3186449D01*
G01X6322022Y-3009281D02*
G01X6145070Y-3315770D01*
G01X6173814Y-3423046D01*
G01X6268353Y-3369045D02*
G01X6396705Y-3146734D01*
G01X6730102Y-3057400D01*
G01X6085479Y-3084184D02*
G01X5957394Y-3306033D01*
G01X6022652Y-3549578D01*
G01X6129619Y-3063531D02*
G01X5988912Y-3307244D01*
G01X6049341Y-3532771D01*
G01X5388568Y-2975596D02*
G01X5853977Y-3244301D01*
G01X5878585Y-3237707D01*
G01X5413460Y-2932482D02*
G01X5794559Y-3152510D01*
G01X5817132Y-3146462D01*
G54D17*
G01X5912043Y-1631268D02*
G01X5958158Y-1803371D01*
G01X6038554Y-1849788D01*
G54D13*
G01X390450Y-2517136D02*
G01X345305Y-2529232D01*
G54D12*
G01X704894Y-3728512D02*
G01X197078Y-3435325D01*
G01X188411Y-3402977D01*
G01X301083Y-3207823D01*
G01X300681Y-3206320D01*
G54D13*
G01X550458Y-2426037D02*
G01X595700Y-2347675D01*
G01X575784Y-2729979D02*
G01X603693Y-2681640D01*
G01X668659Y-2664232D01*
G01X846755Y-2767056D01*
G01X880078Y-2891421D01*
G01X871389Y-2906471D01*
G01X387150Y-3256346D02*
G01X459061Y-3237078D01*
G01X560670Y-3295742D01*
G01X832647Y-2979935D02*
G01X856038Y-3067231D01*
G01X925397Y-3107276D01*
G54D17*
G01X1225242Y-3308578D02*
G01X1272834Y-3336055D01*
G01X1317297Y-3324141D01*
G01X1378814Y-3217590D01*
G01X1354629Y-3127332D01*
G01X1243568Y-3063211D01*
G01X1199607Y-2899145D01*
G54D13*
G01X969619Y-3432087D02*
G01X1084207Y-3498244D01*
G01X1117081Y-3489435D01*
G54D11*
G01X634899Y-3338598D02*
G01X612311Y-3377721D01*
G01X623377Y-3419016D01*
G01X623377Y-3419017D01*
G01X548356Y-3548956D01*
G54D17*
G01X693564Y-3586629D02*
G01X775752Y-3564607D01*
G01X895629Y-3356974D01*
G01X871127Y-3265530D01*
G54D13*
G01X430246Y-2581754D02*
G01X418652Y-2538484D01*
G01X496351Y-2403905D01*
G01X465960Y-2386348D02*
G01X391465Y-2515377D01*
G54D17*
G01X1161296Y-3409176D02*
G01X1155563Y-3410712D01*
G54D13*
G01X634899Y-3338598D02*
G01X745637Y-3402533D01*
G54D17*
G01X1220337Y-3310592D02*
G01X1163807Y-3408503D01*
G01X1161296Y-3409176D01*
G54D13*
G01X1539691Y-2994473D02*
G01X1544908Y-2993075D01*
G01X1595866Y-2904812D01*
G01X1632317Y-2895045D01*
G01X1673872Y-2919038D01*
G01X1683079Y-2953398D01*
G01X1626966Y-3050590D01*
G54D11*
G01X2456333Y-3415255D02*
G01X2540524Y-3463862D01*
G01X2581509Y-3616822D01*
G01X2554697Y-3663261D01*
G54D10*
G01X2957386Y-3219683D02*
G01X2920533Y-3082147D01*
G01X2578125Y-2888982D01*
G01X2239126Y-2693260D01*
G01X1828949Y-2803167D01*
G54D11*
G01X1396710Y-2911923D02*
G01X1428146Y-2857474D01*
G01X1453285Y-2850738D01*
G01X1545619Y-2690811D01*
G01X1531465Y-3564976D02*
G01X1490966Y-3575827D01*
G01X1531465Y-3564976D01*
G01X2382665Y-3372722D02*
G01X2441009Y-3271667D01*
G01X2496953Y-3256677D01*
G01X1595230Y-3454532D02*
G01X1531465Y-3564976D01*
G01X1577636Y-3591633D01*
G01X1592176Y-3645894D01*
G54D10*
G01X2956286Y-3217437D02*
G01X2971567Y-3274466D01*
G01X2919552Y-3364557D01*
G01X2881430Y-3480880D02*
G01X2945975Y-3518145D01*
G01X3282523Y-3427967D01*
G01X3306260Y-3441671D01*
G54D13*
G01X3406813Y-3447807D02*
G01X3708269Y-3621852D01*
G01X3566572Y-3446794D02*
G01X3589059Y-3459777D01*
G01X3660696Y-3440582D01*
G01X3750843Y-3492628D01*
G54D11*
G01X3732991Y-3124305D02*
G01X3721251Y-3144639D01*
G01X3768420Y-3320677D01*
G01X3834379Y-3435338D02*
G01X3758439Y-3391494D01*
G01X3748642Y-3354933D01*
G01X3768420Y-3320677D01*
G54D12*
G01X3732991Y-3124305D02*
G01X3783747Y-3313729D01*
G01X3873309Y-3365438D01*
G54D13*
G01X15692261Y-3058764D02*
G01X15779663Y-2907381D01*
G01X15839156Y-2891439D01*
G01X16060455Y-3019207D01*
G01X16257846Y-2966316D01*
G01X16357800Y-3024025D01*
G01X16441185Y-3001682D01*
G01X16480843Y-2932992D01*
G01X15617234Y-2778759D02*
G01X15737187Y-2848014D01*
G01X15903102Y-2803557D01*
G01X16042463Y-2884017D01*
G01X16154356Y-2854035D01*
G54D11*
G01X15428735Y-1835844D02*
G01X15457005Y-1786880D01*
G01X15534058Y-1766234D01*
G01X15712981Y-1869536D01*
G01X15744175Y-1985951D01*
G54D13*
G01X16063166Y-1994018D02*
G01X15828290Y-1858412D01*
G01X15756723Y-1591322D01*
G01X14938103Y-1118691D01*
G01X14899129Y-973241D01*
G01X15024757Y-755648D01*
G01X15163338Y-835658D02*
G01X15068220Y-1000407D01*
G01X15094940Y-1100125D01*
G01X15804326Y-1509689D01*
G01X15873851Y-1769159D01*
G01X16116285Y-1909129D01*
G01X16117246Y-1912713D01*
G01X15094048Y-795653D02*
G01X14973516Y-1004419D01*
G01X14998701Y-1098411D01*
G01X15780300Y-1549667D01*
G01X15851070Y-1813786D01*
G01X16088185Y-1950684D01*
G54D17*
G01X15737916Y-765540D02*
G01X15775726Y-906646D01*
G01X15626253Y-1165540D01*
G01X15667524Y-1319565D01*
G01X15979110Y-1499460D01*
G01X15993352Y-1552611D01*
G01X16242201Y-1696284D01*
G54D13*
G01X15469053Y-368193D02*
G01X15480513Y-410960D01*
G01X15804905Y-598248D01*
G01X15926509Y-1052081D01*
G01X16442226Y-1349831D01*
G01X16417207Y-1393165D02*
G01X15894785Y-1091544D01*
G01X15768377Y-619785D01*
G01X15438096Y-429097D01*
G01X15413918Y-338861D01*
G01X15449438Y-277338D01*
G54D12*
G01X15744175Y-1985951D02*
G01X15992265Y-2129186D01*
G54D11*
G01X15935614Y-2154258D02*
G01X15552445Y-1933035D01*
G01X15548288Y-1917521D01*
G01X15505688Y-1892925D01*
G01X15500823Y-1874771D01*
G54D13*
G01X15692291Y-2648756D02*
G01X16032342Y-2845084D01*
G01X16101008Y-2826685D01*
G01X16127275Y-2781191D01*
G01X14665868Y-2476314D02*
G01X14646168Y-2510437D01*
G01X14683303Y-2649029D01*
G01X15079229Y-2877617D01*
G01X15150024Y-2858648D01*
G01X15234692Y-2711998D01*
G01X15352364Y-2680468D01*
G01X15722083Y-2893925D01*
G01X15843097Y-2861499D01*
G01X16056852Y-2984910D01*
G01X16256694Y-2931363D01*
G01X16343394Y-2981419D01*
G01X16412521Y-2962897D01*
G01X15105809Y-2730314D02*
G01X15130159Y-2688139D01*
G01X15355916Y-2627887D01*
G01X15362957Y-2631923D01*
G01X15617247Y-2778737D01*
G01X15717310Y-2605422D02*
G01X16045214Y-2794737D01*
G01X16057659Y-2791403D01*
G54D11*
G01X15264968Y-2494203D02*
G01X15403762Y-2457013D01*
G54D13*
G01X15470779Y-865039D02*
G01X15513621Y-889774D01*
G01X15597092Y-867408D01*
G01X15792253Y-2475618D02*
G01X15792262Y-2475652D01*
G01X16257970Y-2744528D01*
G01X16266519Y-2776435D01*
G01X16223244Y-2851390D01*
G54D12*
G01X15368589Y-2577424D02*
G01X15642253Y-2735425D01*
G54D13*
G01X15745360Y-2561462D02*
G01X16031833Y-2726857D01*
G01X16031945Y-2727275D01*
G01X15767247Y-2518930D02*
G01X16189274Y-2762588D01*
G01X16189293Y-2762657D01*
G01X15817259Y-2432305D02*
G01X16327232Y-2726738D01*
G01X16336124Y-2759926D01*
G01X16295951Y-2829507D01*
G54D11*
G01X15402877Y-3585410D02*
G01X15544868Y-3667389D01*
G01X15628080Y-3645092D01*
G01X15783154Y-3376497D01*
G01X15868384Y-3353659D01*
G01X15952046Y-3208751D01*
G54D14*
G01X15788823Y-3435631D02*
G01X15931729Y-3397339D01*
G01X16048646Y-3464842D01*
G01X16100873Y-3450848D01*
G01X16168497Y-3333719D01*
G54D11*
G01X15908712Y-3183732D02*
G01X15828968Y-3321853D01*
G01X15702367Y-3355776D01*
G01X15658274Y-3432147D01*
G54D12*
G01X15822264Y-3133821D02*
G01X15732064Y-3290051D01*
G01X15550295Y-3338756D01*
G01X15536850Y-3362043D01*
G01X15732064Y-3290051D02*
G01X15800244Y-3271782D01*
G01X15865488Y-3158777D01*
G54D13*
G01X14930803Y-3033433D02*
G01X14952394Y-2996038D01*
G01X15032893Y-2974468D01*
G01X15428091Y-3202636D01*
G01X15642342Y-3145228D01*
G01X15692261Y-3058764D01*
G54D12*
G01X15667272Y-2692090D02*
G01X15523435Y-2609046D01*
G01X15497144Y-2510926D01*
G01X15418570Y-2465562D01*
G54D13*
G01X16142252Y-1869401D02*
G01X16275857Y-1946538D01*
G01X16300059Y-2036863D01*
G01X16220765Y-2174204D01*
G54D14*
G01X16428502Y-3483833D02*
G01X16361503Y-3599880D01*
G01X16385102Y-3458776D02*
G01X16385130Y-3458880D01*
G01X16298552Y-3608838D01*
G01X16207973Y-3575823D02*
G01X16206097Y-3568822D01*
G01X16298500Y-3408776D01*
G01X16341834Y-3433795D02*
G01X16274765Y-3549963D01*
G54D13*
G01X15778930Y-3108802D02*
G01X15835580Y-3010681D01*
G01X15881639Y-2998339D01*
G01X16061149Y-3101980D01*
G01X16279762Y-3043403D01*
G01X16385715Y-3104574D01*
G01X16521857Y-3068095D01*
G01X16570243Y-2984288D01*
G01X16570082Y-2983686D01*
G01X16498414Y-3006555D02*
G01X16481162Y-3036435D01*
G01X16373474Y-3065291D01*
G01X16276736Y-3009439D01*
G01X16067616Y-3065472D01*
G01X15857147Y-2943958D01*
G01X15808853Y-2956898D01*
G01X15808853Y-2956898D01*
G01X15735595Y-3083783D01*
G01X16467245Y-1306496D02*
G01X16182971Y-1142371D01*
G54D17*
G01X16492251Y-1263184D02*
G01X16492242Y-1263150D01*
G01X16278185Y-1139564D01*
G01X16249176Y-1031300D01*
G01X16238079Y-1024893D01*
G54D13*
G01X16038693Y-3258776D02*
G01X16098025Y-3156009D01*
G01X16279145Y-3107478D01*
G01X16412856Y-3184677D01*
G01X16603968Y-3133468D01*
G01X16660284Y-3035926D01*
G01X16660123Y-3035325D01*
G01X16588955Y-3054429D02*
G01X16569797Y-3087611D01*
G01X16385886Y-3136890D01*
G01X16275821Y-3073343D01*
G01X16053630Y-3132879D01*
G01X15995381Y-3233770D01*
G01X17115529Y-3094044D02*
G01X16775135Y-3683624D01*
G01X16774736Y-3683731D01*
G01X16417207Y-1393165D02*
G01X16562542Y-1477074D01*
G01X16621996Y-1698958D01*
G01X16675142Y-1756161D02*
G01X16945386Y-1288084D01*
G01X16748843Y-1730473D02*
G01X16989418Y-1313785D01*
G01X16986982Y-1304693D01*
G01X16515364Y-1553494D02*
G01X16523651Y-1539141D01*
G01X16515174Y-1507505D01*
G01X16392188Y-1436499D01*
G01X16442226Y-1349831D02*
G01X16611174Y-1447373D01*
G01X16661857Y-1636524D01*
G01X16063349Y-1374867D02*
G01X16095863Y-1496209D01*
G01X16292252Y-1609594D01*
G01X16135959Y-1407027D02*
G01X16153261Y-1471598D01*
G01X16317258Y-1566282D01*
G54D14*
G01X16471617Y-3508725D02*
G01X16370642Y-3683617D01*
G01X16377476Y-3709120D01*
G54D13*
G01X16779921Y-1932649D02*
G01X16814273Y-1873150D01*
G01X16803967Y-1834687D01*
G01X17075650Y-1364118D01*
G01X16870404Y-1818706D02*
G01X17118791Y-1388486D01*
G01X17118701Y-1388148D01*
G01X16763181Y-1802390D02*
G01X17031074Y-1338385D01*
G01X16772269Y-1188135D02*
G01X16658056Y-1385959D01*
G01X16656852Y-1386281D01*
G01X16815603Y-1213154D02*
G01X16733765Y-1354903D01*
G01X16731960Y-1355387D01*
G01X16172079Y-1337963D02*
G01X16199587Y-1440624D01*
G01X16342252Y-1522992D01*
G01X16241776Y-1354198D02*
G01X16258560Y-1416834D01*
G01X16367296Y-1479613D01*
G01X16765708Y-3162289D02*
G01X16722244Y-3237570D01*
G01X16459165Y-3308062D01*
G01X16306812Y-3220101D01*
G01X16220786Y-3243152D01*
G01X16168497Y-3333719D01*
G54D12*
G01X17102983Y-2944265D02*
G01X16892720Y-3000604D01*
G01X16818626Y-3128940D01*
G01X16832137Y-3179364D01*
G01X16746664Y-3327407D01*
G01X16613475Y-3363095D01*
G01X16530464Y-3506875D01*
G54D13*
G01X16125295Y-3308776D02*
G01X16179701Y-3214541D01*
G01X16298055Y-3182829D01*
G01X16446200Y-3268360D01*
G01X16684444Y-3204523D01*
G01X16746422Y-3097174D01*
G01X16675952Y-3108844D02*
G01X16639964Y-3171177D01*
G01X16430764Y-3227232D01*
G01X16289375Y-3145601D01*
G01X16138503Y-3186027D01*
G01X16082074Y-3283764D01*
G01X16082005Y-3283783D01*
G01X16819087Y-3708477D02*
G01X17192651Y-3061446D01*
G01X17191277Y-3056319D01*
G01X16601619Y-3583782D02*
G01X16673892Y-3458602D01*
G01X16725672Y-3444728D01*
G01X16894178Y-3152867D01*
G01X16886463Y-3124075D01*
G01X16711285Y-3594000D02*
G01X17034356Y-3034424D01*
G01X17036166Y-3033940D01*
G01X16966381Y-3060200D02*
G01X16957624Y-3075368D01*
G01X16961908Y-3091356D01*
G01X16735831Y-3482933D01*
G01X16714291Y-3488704D01*
G01X16669012Y-3567130D01*
G01X17050526Y-299999D02*
G01X17173955Y-371260D01*
G01X17214439Y-522350D01*
G01X16815603Y-1213154D01*
G01X16423613Y-1036960D02*
G01X16315048Y-631791D01*
G01X16446798Y-403593D01*
G01X16396441Y-215656D01*
G01X16312009Y-166909D01*
G01X16167271Y-1826067D02*
G01X16318475Y-1913364D01*
G01X16358670Y-2063375D01*
G01X16277229Y-2204434D01*
G01X16343128Y-2193251D02*
G01X16413279Y-2071745D01*
G01X16362110Y-1880778D01*
G01X16192290Y-1782733D01*
G01X16569938Y-2402558D02*
G01X16627040Y-2387258D01*
G01X16627040Y-2387257D01*
G01X16722282Y-2442246D01*
G01X16812742Y-2418007D01*
G01X17335174Y-1513128D01*
G01X17291839Y-1488109D02*
G01X16776429Y-2380827D01*
G01X16707792Y-2399218D01*
G01X16612564Y-2344238D01*
G01X16526597Y-2367273D01*
G01X16497805Y-2417141D01*
G01X16267246Y-1652906D02*
G01X16458059Y-1763072D01*
G01X16518670Y-1989276D01*
G01X16410230Y-2177100D01*
G01X16375552Y-56949D02*
G01X16457164Y-104068D01*
G01X16527913Y-368107D01*
G01X16388929Y-608835D01*
G01X16496737Y-1011179D01*
G54D14*
G01X16688293Y-3633823D02*
G01X16617685Y-3756121D01*
G01X16644953Y-3608801D02*
G01X16548981Y-3775030D01*
G01X16601619Y-3583782D02*
G01X16530521Y-3706928D01*
G54D13*
G01X16742233Y-1439430D02*
G01X16742835Y-1439269D01*
G01X16858938Y-1238173D01*
G01X15942227Y-2215854D02*
G01X16111262Y-2313446D01*
G01X16126251Y-2369387D01*
G01X16809382Y-2763793D01*
G01X16966033Y-2721819D01*
G01X17622708Y-3100950D01*
G01X17641447Y-3170885D01*
G01X17672215Y-3188649D01*
G01X15917246Y-2259123D02*
G01X16081767Y-2354109D01*
G01X16081795Y-2354213D01*
G01X16089785Y-2384033D01*
G01X16814048Y-2802186D01*
G01X16972484Y-2759733D01*
G01X17357436Y-2981986D01*
G01X17372852Y-3039519D01*
G01X15842278Y-2388971D02*
G01X16374433Y-2696211D01*
G01X16395159Y-2773565D01*
G01X16321601Y-2900972D01*
G01X16408802Y-2949018D02*
G01X16492949Y-2803272D01*
G01X16444164Y-2621206D01*
G01X16444164Y-2621206D01*
G01X15889130Y-2300757D01*
G01X15888160Y-2297137D01*
G01X15867297Y-2345637D02*
G01X16411652Y-2659921D01*
G01X16444449Y-2782322D01*
G01X16388150Y-2879836D01*
G01X17700345Y-3126563D02*
G01X17690796Y-3090924D01*
G01X16959180Y-2668526D01*
G01X16790943Y-2713604D01*
G01X16165776Y-2352664D01*
G01X16108376Y-2138444D01*
G01X16017284Y-2085852D01*
G01X16042303Y-2042518D02*
G01X16151781Y-2105725D01*
G01X16159388Y-2134113D01*
G01X16142212Y-2163862D01*
G01X16187535Y-2333010D01*
G01X16794885Y-2683664D01*
G01X16963121Y-2638585D01*
G01X17760480Y-3098940D01*
G01X17760495Y-3098998D01*
G01X17752376Y-3036677D02*
G01X16997074Y-2600603D01*
G01X16810902Y-2650488D01*
G01X16208258Y-2302551D01*
G01X16172152Y-2167804D01*
G01X16203450Y-2113594D01*
G01X16192190Y-2071569D01*
G01X16084856Y-2009600D01*
G01X16818804Y-1406881D02*
G01X16958571Y-1164799D01*
G01X16942526Y-1104918D01*
G01X17311862Y-465210D01*
G01X17260835Y-274773D01*
G01X17113982Y-189988D01*
G01X17812635Y-1995799D02*
G01X17810862Y-1989183D01*
G01X17898078Y-1838121D01*
G01X17501887Y-2094537D02*
G01X17470749Y-1978329D01*
G01X17638293Y-1688134D01*
G01X17786159Y-1934193D02*
G01X17855849Y-1813486D01*
G01X17720557Y-1944767D02*
G01X17721193Y-1944597D01*
G01X17811520Y-1788147D01*
G01X17594959Y-1663115D02*
G01X17413067Y-1978162D01*
G01X17434341Y-2057557D01*
G01X17508422Y-1613153D02*
G01X17508427Y-1613169D01*
G01X17229305Y-2096622D01*
G01X17162527Y-2112390D02*
G01X17465138Y-1588251D01*
G01X17465110Y-1588147D01*
G54D17*
G01X17724961Y-1738172D02*
G01X17837746Y-1542823D01*
G54D13*
G01X16941938Y-1791214D02*
G01X17164395Y-1405908D01*
G01X17166427Y-1405363D01*
G01X18428522Y-3358827D02*
G01X18428522Y-3358827D01*
G01X18398258Y-3366937D01*
G01X18245886Y-3630852D01*
G01X18141706Y-3658767D01*
G01X17580124Y-3334538D01*
G01X17299679Y-3409683D01*
G01X17232837Y-3379083D02*
G01X17590742Y-3283183D01*
G01X18161518Y-3612721D01*
G01X18232778Y-3593627D01*
G01X18405737Y-3294053D01*
G01X18406791Y-3293770D01*
G01X17363390Y-3446467D02*
G01X17365251Y-3445968D01*
G01X17213481Y-3124684D02*
G01X16996865Y-3499873D01*
G01X17033362Y-3636081D01*
G01X16971064Y-3743984D01*
G54D12*
G01X17127782Y-3650874D02*
G01X17074331Y-3665196D01*
G54D13*
G01X17335493Y-3601884D02*
G01X17349048Y-3578407D01*
G01X17385603Y-3568612D01*
G01X17587939Y-3685430D01*
G01X17334689Y-3603277D02*
G01X17264090Y-3622193D01*
G01X17253650Y-3616166D01*
G01X17365251Y-3445968D02*
G01X17575482Y-3389637D01*
G01X18116191Y-3701816D01*
G01X18264036Y-3662201D01*
G01X18390445Y-3443254D01*
G01X18441273Y-3429634D01*
G01X17334977Y-3503361D02*
G01X17428722Y-3478242D01*
G01X17428722Y-3478242D01*
G01X17637850Y-3598982D01*
G01X17364999Y-2020546D02*
G01X17354163Y-1980109D01*
G01X17551574Y-1638184D01*
G01X17551712Y-1638147D01*
G01X17697133Y-1886448D02*
G01X17768257Y-1763257D01*
G01X17768229Y-1763153D01*
G01X17421849Y-1563191D02*
G01X17143614Y-2045107D01*
G01X17073074Y-2067175D02*
G01X17378508Y-1538147D01*
G01X17432955Y-919866D02*
G01X17485229Y-905860D01*
G01X17562180Y-772577D01*
G54D17*
G01X17367457Y-1257061D02*
G01X17248505Y-1463090D01*
G54D13*
G01X17646247Y-870989D02*
G01X17537354Y-1059598D01*
G01X17567064Y-1170477D01*
G01X18111576Y-1484851D01*
G01X18145183Y-1610275D01*
G01X17977732Y-1900308D01*
G01X17980476Y-1910550D01*
G54D12*
G01X17337977Y-3133942D02*
G01X17315305Y-3173210D01*
G54D13*
G01X17949393Y-2049469D02*
G01X18188495Y-1635332D01*
G01X18143883Y-1468838D01*
G01X17600767Y-1155269D01*
G01X17583480Y-1090754D01*
G01X17694246Y-898902D01*
G01X17724794Y-890717D01*
G54D12*
G01X17377245Y-3156613D02*
G01X17337977Y-3133942D01*
G01X17320859Y-3070055D01*
G01X17102983Y-2944265D01*
G54D13*
G01X17912881Y-3122614D02*
G01X17912844Y-3122475D01*
G01X17825901Y-3072278D01*
G01X17810929Y-3016402D01*
G01X17810929Y-3016402D01*
G01X16935232Y-2510818D01*
G01X17004330Y-2481915D02*
G01X17962600Y-3035172D01*
G01X18137849Y-2732958D02*
G01X17389501Y-2300899D01*
G01X17197601Y-2256919D02*
G01X17208288Y-2254055D01*
G01X18112830Y-2776292D01*
G01X18187887Y-2646290D02*
G01X18016877Y-2547557D01*
G01X17970191Y-2560067D01*
G01X17397982Y-2229702D01*
G01X17319215Y-2250808D01*
G01X17229102Y-2195795D02*
G01X17237781Y-2200805D01*
G01X17368491Y-2165782D01*
G01X17959529Y-2507018D01*
G01X18016575Y-2491732D01*
G01X18210388Y-2603630D01*
G01X17283396Y-2137770D02*
G01X17346491Y-2120864D01*
G01X17950334Y-2469493D01*
G01X18040139Y-2445430D01*
G01X18237925Y-2559621D01*
G01X17901210Y-251456D02*
G01X17856065Y-263552D01*
G54D12*
G01X17954792Y-2742535D02*
G01X18214906Y-2892711D01*
G01X18282498Y-2874600D01*
G01X18404262Y-2944900D01*
G01X18431143Y-3045223D01*
G01X18215654Y-1462832D02*
G01X17707838Y-1169645D01*
G01X17699171Y-1137297D01*
G01X17811843Y-942143D01*
G01X17811441Y-940640D01*
G01X18277458Y-2960892D02*
G01X18247039Y-2969043D01*
G01X18062919Y-2862741D01*
G54D13*
G01X17930378Y-2341865D02*
G01X18006839Y-2209431D01*
G01X18109603Y-2181895D01*
G01X18131797Y-2143453D01*
G01X18111630Y-2068187D01*
G01X18157863Y-1988108D01*
G01X18061218Y-160357D02*
G01X18106460Y-81995D01*
G01X17986466Y-2376309D02*
G01X18066190Y-2238224D01*
G01X18144688Y-2217190D01*
G01X18362893Y-2343170D01*
G01X18086544Y-464299D02*
G01X18114453Y-415960D01*
G01X18179419Y-398552D01*
G01X18357515Y-501376D01*
G01X18390838Y-625741D01*
G01X18382149Y-640791D01*
G01X17897910Y-990666D02*
G01X17969821Y-971398D01*
G01X18071430Y-1030062D01*
G01X18114529Y-1963089D02*
G01X18175201Y-1858002D01*
G01X18171680Y-1844863D01*
G01X18330427Y-1569905D01*
G01X18667258Y-1479652D01*
G01X19038000Y-837507D01*
G01X19051766Y-833818D01*
G01X19097599Y-754433D01*
G01X19055668Y-727395D02*
G01X19008306Y-809427D01*
G01X19011716Y-822153D01*
G01X18647201Y-1453512D01*
G01X18310370Y-1543766D01*
G01X18145319Y-1829643D01*
G01X18132033Y-1833203D01*
G01X18071415Y-1938197D01*
G01X17892699Y-2011456D02*
G01X17917379Y-2004844D01*
G01X17977732Y-1900308D01*
G54D12*
G01X18413999Y-1844696D02*
G01X18287866Y-2063165D01*
G54D13*
G01X18343407Y-714255D02*
G01X18366798Y-801551D01*
G01X18436157Y-841596D01*
G01X18201197Y-2013127D02*
G01X18322896Y-1802339D01*
G01X18312278Y-1762713D01*
G01X18020013Y-1727771D02*
G01X17941926Y-1863021D01*
G01X17941434Y-1863153D01*
G54D11*
G01X18763022Y-1830133D02*
G01X18819902Y-1731614D01*
G01X18803981Y-1672195D01*
G01X18907602Y-1725119D02*
G01X18808289Y-1751730D01*
G54D17*
G01X18736002Y-1042898D02*
G01X18783594Y-1070375D01*
G01X18828057Y-1058461D01*
G01X18889574Y-951910D01*
G01X18865389Y-861652D01*
G01X18754328Y-797531D01*
G01X18710367Y-633465D01*
G54D13*
G01X18480379Y-1166407D02*
G01X18594967Y-1232564D01*
G01X18627841Y-1223755D01*
G54D11*
G01X18145659Y-1072918D02*
G01X18123071Y-1112041D01*
G01X18134137Y-1153336D01*
G01X18134137Y-1153337D01*
G01X18059116Y-1283276D01*
G54D17*
G01X18204324Y-1320949D02*
G01X18286512Y-1298927D01*
G01X18406389Y-1091294D01*
G01X18381887Y-999850D01*
G54D13*
G01X17941006Y-316074D02*
G01X17929412Y-272804D01*
G01X18007111Y-138225D01*
G01X17976720Y-120668D02*
G01X17902225Y-249697D01*
G01X18312855Y-2429839D02*
G01X18409503Y-2485638D01*
G01X18685274Y-2411746D01*
G01X19000550Y-2593771D01*
G01X19051559Y-2580103D01*
G54D12*
G01X18032726Y-3294338D02*
G01X17949101Y-3316745D01*
G01X17822245Y-3243505D01*
G54D13*
G01X18012881Y-2949409D02*
G01X18572196Y-3272330D01*
G01X18697035Y-3738236D01*
G01X18734991Y-3657684D02*
G01X18624318Y-3244643D01*
G01X18037900Y-2906075D01*
G01X18440013Y-3499257D02*
G01X18381235Y-3515007D01*
G01X18274799Y-3699359D01*
G01X18095208Y-3747480D01*
G01X17687888Y-3512313D01*
G01X18544718Y-3596312D02*
G01X18546657Y-3595792D01*
G01X18066611Y-2122963D02*
G01X18074651Y-2109036D01*
G01X18060582Y-2056529D01*
G01X18114529Y-1963089D01*
G01X18009685Y-2089814D02*
G01X18001505Y-2059285D01*
G01X18071415Y-1938197D01*
G54D17*
G01X18672056Y-1143496D02*
G01X18666323Y-1145032D01*
G54D13*
G01X18145659Y-1072918D02*
G01X18256397Y-1136853D01*
G54D17*
G01X18731097Y-1044912D02*
G01X18674567Y-1142823D01*
G01X18672056Y-1143496D01*
G54D13*
G01X18262880Y-2516397D02*
G01X18350106Y-2566757D01*
G01X18686185Y-2476705D01*
G01X19065121Y-2695484D01*
G01X19192336Y-2661397D01*
G01X18287836Y-2473173D02*
G01X18375320Y-2523682D01*
G01X18681332Y-2441687D01*
G01X19038877Y-2648115D01*
G01X19127561Y-2624352D01*
G01X19050451Y-728793D02*
G01X19055668Y-727395D01*
G01X19106626Y-639132D01*
G01X19143077Y-629365D01*
G01X19184632Y-653358D01*
G01X19193839Y-687718D01*
G01X19137726Y-784910D01*
G01X20165030Y-3406756D02*
G01X19992928Y-3307393D01*
G01X19873494Y-3339395D01*
G01X19687828Y-3660980D01*
G01X19537188Y-3701343D01*
G01X19385579Y-3613812D01*
G01X19357353Y-3543440D02*
G01X19535826Y-3646481D01*
G01X19685437Y-3606393D01*
G01X19873588Y-3280506D01*
G01X20032572Y-3237906D01*
G01X20195893Y-3332199D01*
G01X20198801Y-3343050D01*
G01X20245030Y-3268193D02*
G01X20094907Y-3181519D01*
G01X19852560Y-3246456D01*
G01X19673444Y-3556695D01*
G01X19536175Y-3593476D01*
G01X19330968Y-3475000D01*
G54D11*
G01X19388389Y-1966077D02*
G01X19341104Y-2047978D01*
G01X19347419Y-2071547D01*
G01X19419114Y-1992615D02*
G01X19392467Y-2038769D01*
G01X19408443Y-2098390D01*
G01X19352971Y-2194469D01*
G01X19534817Y-1932420D02*
G01X19590340Y-1964476D01*
G01X19624053Y-2090293D01*
G01X19673799Y-2119014D01*
G01X19683793Y-2156311D01*
G01X19843053Y-2248260D01*
G01X19881021Y-2238087D01*
G01X19881109Y-2238138D01*
G01X19824334Y-2105522D02*
G01X19924339Y-2163259D01*
G01X20008530Y-2017438D01*
G01X19996376Y-1972078D01*
G54D13*
G01X19576499Y-2890867D02*
G01X19890804Y-3072331D01*
G01X20228884Y-2981743D01*
G01X20365030Y-3060346D01*
G01X20405030Y-2991064D02*
G01X20256098Y-2905079D01*
G01X19897666Y-3001120D01*
G01X19614084Y-2837394D01*
G01X19589601Y-2763546D02*
G01X19880160Y-2931300D01*
G01X20277233Y-2824905D01*
G01X20450030Y-2924669D01*
G01X20450368Y-2925931D01*
G01X20485030Y-2852500D02*
G01X19936416Y-2535758D01*
G01X19391010Y-2681899D01*
G01X18803133Y-2342488D01*
G01X18433282Y-2441589D01*
G01X18337874Y-2386504D01*
G01X20565030Y-2713936D02*
G01X20028845Y-2404370D01*
G01X19414030Y-2569109D01*
G01X18362893Y-2343170D02*
G01X18457731Y-2397925D01*
G01X18797340Y-2306927D01*
G01X19380490Y-2643609D01*
G01X19987449Y-2480974D01*
G01X20520035Y-2788463D01*
G01X20530951Y-2785538D01*
G01X18467982Y-2233543D02*
G01X18625028Y-2324214D01*
G01X18801282Y-2276987D01*
G01X19279589Y-2553137D01*
G01X20076616Y-2339574D01*
G01X20605030Y-2644654D01*
G01X20645030Y-2575372D02*
G01X20408983Y-2439090D01*
G01X20341283Y-2457230D01*
G01X20080916Y-2306908D01*
G01X19283889Y-2520471D01*
G01X18805583Y-2244321D01*
G01X18656427Y-2284287D01*
G01X18466041Y-2174367D01*
G01X18401124Y-2191762D01*
G54D11*
G01X19967093Y-1261335D02*
G01X20051284Y-1309942D01*
G01X20092269Y-1462902D01*
G01X20065457Y-1509341D01*
G54D10*
G01X20449187Y-959083D02*
G01X20129384Y-774444D01*
G01X20088885Y-623302D01*
G01X19749886Y-427580D01*
G01X19339709Y-537487D01*
G54D11*
G01X18907470Y-646243D02*
G01X18938906Y-591794D01*
G01X18964045Y-585058D01*
G01X19056379Y-425131D01*
G01X19042225Y-1299296D02*
G01X19001726Y-1310147D01*
G01X19042225Y-1299296D01*
G01X19893425Y-1218802D02*
G01X19951769Y-1117747D01*
G01X20007713Y-1102757D01*
G01X19105990Y-1188852D02*
G01X19042225Y-1299296D01*
G01X19088396Y-1325953D01*
G01X19102936Y-1380214D01*
G54D13*
G01X19308457Y-3398394D02*
G01X19549221Y-3537399D01*
G01X19668629Y-3505404D01*
G01X19855651Y-3181472D01*
G01X20128292Y-3108418D01*
G01X20285030Y-3198911D01*
G01X20325030Y-3129628D02*
G01X20187499Y-3050225D01*
G01X19831492Y-3145616D01*
G01X19656216Y-3449204D01*
G01X19545928Y-3478756D01*
G01X19283190Y-3327064D01*
G54D14*
G01X13465743Y-434419D02*
G01X13493221Y-540662D01*
G01X14887651Y-1348165D01*
G01X15006287Y-1790921D01*
G01X15884690Y-2298067D01*
G01X15838249Y-2383586D02*
G01X14849169Y-1812540D01*
G01X14729603Y-1366312D01*
G01X13622761Y-727277D01*
G01X13563344Y-633456D02*
G01X13565629Y-641984D01*
G01X14806157Y-1358203D01*
G01X14924996Y-1801716D01*
G01X15867246Y-2345725D01*
G01X15913179Y-2253803D02*
G01X15108216Y-1789057D01*
G01X14994745Y-1365577D01*
G01X13514081Y-510716D01*
G01X13504368Y-474466D01*
G01X13529486Y-430960D01*
G01X13517945Y-387885D01*
G01X13847035Y-75690D02*
G01X13647515Y-421269D01*
G01X13680235Y-543380D01*
G01X15091972Y-1358448D01*
G01X15208152Y-1792036D01*
G01X15942227Y-2215854D01*
G01X16018554Y-2083652D02*
G01X15781967Y-1947059D01*
G01X15706615Y-1665840D01*
G01X13775535Y-550930D01*
G01X13740510Y-420216D01*
G01X13916326Y-115695D01*
G01X13985616Y-155700D02*
G01X13845209Y-398893D01*
G01X13889084Y-562638D01*
G01X15732058Y-1626679D01*
G01X15806125Y-1903101D01*
G01X16038274Y-2037132D01*
G54D10*
G01X20449187Y-959083D02*
G01X20469253Y-1033970D01*
G01X20430312Y-1101417D01*
G54D13*
G01X20501236Y-2268257D02*
G01X20542989Y-2424083D01*
G01X20685030Y-2506090D01*
G01X20382746Y-2040931D02*
G01X20392878Y-2046780D01*
G01X20445311Y-2032731D01*
G01X20690496Y-2174289D01*
G01X20708827Y-2242702D01*
G01X20809651Y-2300912D01*
G01X20810951Y-2300564D01*
G54D10*
G01X20392190Y-1326960D02*
G01X20456735Y-1364225D01*
G01X20793283Y-1274047D01*
G01X20817020Y-1287751D01*
G54D13*
G01X20534883Y-2206875D02*
G01X20572970Y-2349016D01*
G01X20703649Y-2424464D01*
G01X20419613Y-1973956D02*
G01X20848322Y-2221471D01*
G01X20850951Y-2231282D01*
G01X20596672Y-2177758D02*
G01X20626014Y-2287265D01*
G01X20745497Y-2356249D01*
G01X20601508Y-1657889D02*
G01X20874825Y-1815689D01*
G01X20911977Y-1805734D01*
G01X21049651Y-1885220D01*
G01X21050951Y-1884872D01*
G01X20648740Y-1571532D02*
G01X21073018Y-1816488D01*
G01X21085030Y-1813270D01*
G01X20813433Y-1453907D02*
G01X21114889Y-1627952D01*
G01X20919976Y-1624593D02*
G01X21055295Y-1702719D01*
G01X21117302Y-1554774D02*
G01X21073220Y-1529323D01*
G01X21032649Y-1540194D01*
G01X20906705Y-1467480D01*
G01X20902022Y-1450004D01*
G01X20973192Y-1452894D02*
G01X20995679Y-1465877D01*
G01X21067316Y-1446682D01*
G01X21157463Y-1498728D01*
G54D11*
G01X21139611Y-1130405D02*
G01X21127871Y-1150739D01*
G01X21175040Y-1326777D01*
G01X21240999Y-1441438D02*
G01X21165059Y-1397594D01*
G01X21155262Y-1361033D01*
G01X21175040Y-1326777D01*
G54D12*
G01X21139611Y-1130405D02*
G01X21190367Y-1319829D01*
G01X21279929Y-1371538D01*
G54D17*
G01X15924500Y-1594047D02*
G01X15952540Y-1586534D01*
G01X16217309Y-1739398D01*
G54D14*
G01X12844780Y-43180D02*
G01X13140618Y-213708D01*
G01X13293799Y-172663D01*
G01X12941300Y-40640D02*
G01X13158312Y-166144D01*
G01X13284935Y-132216D01*
G54D13*
G01X13882261Y-2600442D02*
G01X14037948Y-2330784D01*
G01X13984713Y-2132109D01*
G01X14153511Y-2406618D02*
G01X14236696Y-2262537D01*
G01X14225922Y-2222325D01*
G01X13678815Y-2358253D02*
G01X13663708Y-2301875D01*
G01X13597656Y-2263740D01*
G01X13593768Y-2249230D01*
G01X13214970Y-2315482D02*
G01X13209071Y-2293470D01*
G01X13318085Y-2104653D01*
G54D14*
G01X14294208Y-1540021D02*
G01X14237597Y-1638073D01*
G01X14237765Y-1638698D01*
G01X14093122Y-1247668D02*
G01X14093486Y-1249025D01*
G01X13960822Y-1478805D01*
G01X12871294Y-1147139D02*
G01X13456593Y-1485062D01*
G01X13720037Y-1414472D01*
G01X13840037Y-1207952D02*
G01X13752950Y-1358790D01*
G01X13647171Y-1380660D02*
G01X13436645Y-1437070D01*
G01X12894910Y-1124300D01*
G01X14237597Y-1638073D02*
G01X14140296Y-1806604D01*
G01X14139558Y-1806801D01*
G01X14366094Y-1575561D02*
G01X14306894Y-1678100D01*
G54D12*
G01X14414918Y-618961D02*
G01X14398705Y-558452D01*
G01X14548549Y-298915D01*
G54D11*
G01X14686807Y-2440047D02*
G01X14784713Y-2270469D01*
G54D14*
G01X15049377Y-551052D02*
G01X15049646Y-552056D01*
G01X14977926Y-676279D01*
G54D13*
G01X14970689Y-460316D02*
G01X14954061Y-489116D01*
G01X14966417Y-535230D01*
G01X14887185Y-672464D01*
G54D14*
G01X14678303Y-555623D02*
G01X14677992Y-555706D01*
G01X14678303Y-555623D01*
G54D13*
G01X14906481Y-427035D02*
G01X14874041Y-483223D01*
G01X14883816Y-519704D01*
G01X14813932Y-640747D01*
G01X14815429Y-646333D01*
G54D10*
G01X14942277Y-3494572D02*
G01X15270535Y-3684091D01*
G01X15359697Y-3660200D01*
G54D13*
G01X14445626Y-2994059D02*
G01X14420686Y-2900981D01*
G01X14490862Y-2779433D01*
G01X12765261Y-1771596D02*
G01X12748836Y-1775997D01*
G01X12658174Y-1723653D01*
G01X12438203Y-1596653D02*
G01X12520837Y-1574511D01*
G01X12556972Y-1595374D01*
G54D14*
G01X12405064Y-193194D02*
G01X12974965Y-522227D01*
G01X13015730Y-674364D01*
G01X12430083Y-149860D02*
G01X13006423Y-482610D01*
G01X13054678Y-662703D01*
G01X12455102Y-106526D02*
G01X13029142Y-437948D01*
G01X13088582Y-659781D01*
G01X12567120Y-987662D02*
G01X12692381Y-1059981D01*
G01X12740905Y-1241078D01*
G01X12831091Y-1293146D01*
G01X12855066Y-1382625D01*
G01X12495035Y-949388D02*
G01X12511441Y-1010618D01*
G01X12658790Y-1095689D01*
G01X12682991Y-1186010D01*
G01X12622322Y-1291092D01*
G01X12800879Y-767494D02*
G01X12694014Y-952591D01*
G01X12765254Y-1218462D01*
G01X12205039Y-539648D02*
G01X12529605Y-727036D01*
G01X12550367Y-721473D01*
G01X12688848Y-801426D01*
G01X12230058Y-496314D02*
G01X12534128Y-671869D01*
G01X12569268Y-662453D01*
G01X12680208Y-726504D01*
G01X12280096Y-409645D02*
G01X12782756Y-699856D01*
G01X12800879Y-767494D01*
G01X12305115Y-366311D02*
G01X12835364Y-672451D01*
G01X12852039Y-734684D01*
G01X12330134Y-322977D02*
G01X12875813Y-638025D01*
G01X12896179Y-714031D01*
G01X12355026Y-279863D02*
G01X12913316Y-602192D01*
G01X12938564Y-696418D01*
G01X12380045Y-236529D02*
G01X12946673Y-563672D01*
G01X12978609Y-682858D01*
G01X14226622Y-1497978D02*
G01X14167812Y-1599840D01*
G01X14166907Y-1600082D01*
G01X13683659Y-1318785D02*
G01X13771243Y-1167086D01*
G01X12916876Y-1098481D02*
G01X13414506Y-1385787D01*
G01X13576607Y-1342352D01*
G01X13701632Y-1127128D02*
G01X13614149Y-1278653D01*
G01X13508708Y-1299936D02*
G01X13388351Y-1332186D01*
G01X12940374Y-1073546D01*
G01X12991319Y-1062531D02*
G01X13387132Y-1291054D01*
G01X13429015Y-1279831D01*
G01X13461921Y-1222836D01*
G01X13544858Y-1238648D02*
G01X13632170Y-1087418D01*
G01X14595586Y-1818886D02*
G01X14690371Y-1873610D01*
G01X14695451Y-1871070D01*
G01X14514928Y-1798718D02*
G01X14556825Y-1726150D01*
G01X14601084Y-1714291D01*
G01X14670868Y-1754581D01*
G01X14684455Y-1805290D01*
G01X14503277Y-1654904D02*
G01X14504004Y-1657619D01*
G01X14445637Y-1758713D01*
G01X14433989Y-1618867D02*
G01X14377203Y-1717224D01*
G01X14379630Y-1726279D01*
G54D12*
G01X14455289Y-245070D02*
G01X14465767Y-284175D01*
G01X14401361Y-395730D01*
G54D13*
G01X13080936Y-2173434D02*
G01X13050551Y-2060036D01*
G01X13098115Y-1977653D01*
G01X13790575Y-2146496D02*
G01X13756511Y-2019367D01*
G01X13785987Y-1968314D01*
G01X13885613Y-2479796D02*
G01X13846738Y-2457351D01*
G01X13830951Y-2398433D01*
G01X14115202Y-2328549D02*
G01X14035265Y-2467003D01*
G01X14050921Y-2525433D01*
G54D14*
G01X13037820Y-38100D02*
G01X13178767Y-120176D01*
G01X13274477Y-94530D01*
G01X13587621Y-1007252D02*
G01X13485851Y-948496D01*
G01X13426294Y-964454D01*
G01X13337206Y-1118760D01*
G01X12969362Y-980586D02*
G01X12991319Y-1062531D01*
G01X13267915Y-1078755D02*
G01X13350448Y-935804D01*
G01X13502344Y-895104D01*
G01X13566275Y-932014D01*
G01X13456157Y-1013028D02*
G01X13467087Y-1053819D01*
G01X13388376Y-1190150D01*
G01X13496662Y-707900D02*
G01X14328851Y-1188365D01*
G01X14400594Y-1456112D01*
G01X14460368Y-1490622D01*
G01X12646660Y-43180D02*
G01X13093072Y-301815D01*
G01X13318547Y-241399D01*
G01X12740640Y-40640D02*
G01X13116845Y-257761D01*
G01X13306173Y-207031D01*
G01X13776047Y-36139D02*
G01X13606803Y-329280D01*
G01X13617484Y-369143D01*
G01X13552981Y-480866D01*
G01X13989252Y-309424D02*
G01X14054907Y-195705D01*
G01X14679486Y-786275D02*
G01X14666184Y-736634D01*
G01X14803116Y-499460D01*
G01X14731326Y-231534D01*
G01X14406880Y-43180D01*
G01X12480121Y-63192D02*
G01X13047899Y-390999D01*
G01X13342125Y-312161D01*
G01X12505013Y-20078D02*
G01X13068286Y-345284D01*
G01X13331506Y-274754D01*
G01X13645059Y-911373D02*
G01X13498547Y-826784D01*
G01X13288510Y-883063D01*
G01X13198624Y-1038750D01*
G01X12938564Y-696418D02*
G01X12786989Y-958955D01*
G01X12842591Y-1166464D01*
G01X12978609Y-682858D02*
G01X12820342Y-956985D01*
G01X12871294Y-1147139D01*
G01X13015730Y-674364D02*
G01X12850865Y-959919D01*
G01X12894910Y-1124300D01*
G01X13054678Y-662703D02*
G01X12880805Y-963860D01*
G01X12916876Y-1098481D01*
G01X13129334Y-998745D02*
G01X13226242Y-830895D01*
G01X13489057Y-760474D01*
G01X13621515Y-836949D01*
G01X13088582Y-659781D02*
G01X12911630Y-966270D01*
G01X12940374Y-1073546D01*
G01X13034913Y-1019545D02*
G01X13163265Y-797234D01*
G01X13496662Y-707900D01*
G01X12852039Y-734684D02*
G01X12723954Y-956533D01*
G01X12789212Y-1200078D01*
G01X12896179Y-714031D02*
G01X12755472Y-957744D01*
G01X12815901Y-1183271D01*
G01X12155128Y-626096D02*
G01X12620537Y-894801D01*
G01X12645145Y-888207D01*
G01X12180020Y-582982D02*
G01X12561119Y-803010D01*
G01X12583692Y-796962D01*
G54D12*
G01X13891311Y-1438673D02*
G01X13784976Y-1622852D01*
G54D14*
G01X14166907Y-1600082D02*
G01X14104373Y-1708394D01*
G01X13769334Y-1798168D01*
G01X12765254Y-1218462D01*
G01X14097616Y-1560077D02*
G01X14100324Y-1559352D01*
G01X14166853Y-1444120D01*
G01X12789212Y-1200078D02*
G01X13773275Y-1768227D01*
G01X14013288Y-1703916D01*
G01X14099301Y-1554937D01*
G01X14028326Y-1520072D02*
G01X13927699Y-1694363D01*
G01X13772956Y-1735826D01*
G01X12815901Y-1183271D01*
G01X14114704Y-1371785D02*
G01X14029231Y-1519830D01*
G01X14028326Y-1520072D01*
G01X12842591Y-1166464D02*
G01X13764318Y-1698623D01*
G01X13845741Y-1676806D01*
G01X13935536Y-1521278D01*
G54D12*
G01X13628907Y-1532745D02*
G01X13645622Y-1503794D01*
G01X13782848Y-1467024D01*
G01X13895679Y-1271596D01*
G01X13948128Y-1257543D01*
G54D18*
G01X8961120Y-60960D02*
G01X10769951Y-1113636D01*
G01X10907435Y-1650602D01*
G01X12618720Y-2631440D01*
G01X19429583Y-22112D02*
G01X21288818Y-1087749D01*
G54D14*
G01X51735Y-68607D02*
G01X1147563Y-702151D01*
G01X1315045Y-657275D01*
G01X1526615Y-290824D01*
G01X6316980Y-3751580D02*
G01X5998694Y-3567962D01*
G01X6022652Y-3549578D02*
G01X6370320Y-3749040D01*
G01X6431280Y-3754120D02*
G01X6049341Y-3532771D01*
G01X6076031Y-3515964D02*
G01X6484620Y-3751580D01*
G54D13*
G01X8663940Y-3751580D02*
G01X8171543Y-3468191D01*
G01X8132569Y-3322741D01*
G01X8258197Y-3105148D01*
G01X8327488Y-3145153D02*
G01X8206956Y-3353919D01*
G01X8232141Y-3447911D01*
G01X8753400Y-3748860D01*
G54D14*
G01X8285480Y-3637280D02*
G01X7008975Y-2900430D01*
G01X6973950Y-2769716D01*
G01X7149766Y-2465195D01*
G01X7219056Y-2505200D02*
G01X7078649Y-2748393D01*
G01X7122524Y-2912138D01*
G01X8580774Y-3754059D01*
G54D13*
G01X18112830Y-2776292D02*
G01X18213475Y-2834400D01*
G01X18304198Y-2810091D01*
G01X18618246Y-2991407D01*
G01X18826480Y-3766820D01*
G01X18855415Y-3768735D02*
G01X18642204Y-2973023D01*
G01X18296082Y-2773189D01*
G01X18235600Y-2789395D01*
G01X18137849Y-2732958D01*
G01X18912998Y-3768043D02*
G01X18690121Y-2936255D01*
G01X18187887Y-2646290D01*
G01X18941248Y-3765672D02*
G01X18705977Y-2887630D01*
G01X18212906Y-2602955D01*
G54D14*
G01X14511020Y-38100D02*
G01X15095618Y-377425D01*
G01X15171661Y-661223D01*
G01X15110119Y-767816D01*
G01X13318547Y-241399D02*
G01X13434060Y-40640D01*
G01X14119626Y-39451D02*
G01X14257025Y-118778D01*
G01X14294649Y-259194D01*
G01X14199726Y-423607D01*
G01X14198842Y-423843D01*
G01X14275475Y-451024D02*
G01X14357127Y-309598D01*
G01X14304748Y-114114D01*
G01X14175919Y-39735D01*
G01X13401040Y-43180D02*
G01X13306173Y-207031D01*
G01X13293799Y-172663D02*
G01X13370560Y-38100D01*
G01X14234160Y-40640D02*
G01X14633703Y-271821D01*
G01X14641302Y-300179D01*
G01X14487036Y-567376D01*
G01X14491409Y-583696D01*
G01X14527807Y-659290D02*
G01X14690776Y-377020D01*
G01X14657662Y-253437D01*
G01X14287500Y-40640D01*
G01X13337540Y-40640D02*
G01X13284935Y-132216D01*
G01X13274477Y-94530D02*
G01X13307060Y-38100D01*
G01X14343700Y-40095D02*
G01X14681620Y-235053D01*
G01X14739237Y-450083D01*
G01X14678303Y-555623D01*
G01X14594249Y-701208D01*
G01X14600947Y-726203D01*
G01X15049377Y-551052D02*
G01X15062848Y-527720D01*
G01X15019422Y-365651D01*
G01X14457680Y-40640D01*
G54D13*
G01X10265679Y-497074D02*
G01X10266979Y-496726D01*
G01X10390419Y-282921D01*
G01X10203381Y-459276D02*
G01X10315182Y-265631D01*
G01X4417060Y-73660D02*
G01X4764301Y-1370256D01*
G01X4934375Y-1468448D01*
G01X4913967Y-1396619D02*
G01X4779437Y-1318948D01*
G01X4445000Y-68580D01*
G01X4472940Y-68580D02*
G01X4638862Y-686516D01*
G01X4638862Y-686516D01*
G01X4776392Y-1199783D01*
G01X4963616Y-1307877D01*
G01X5011915Y-1219569D02*
G01X4773730Y-1082053D01*
G01X4500880Y-66040D01*
G01X5059579Y-1132363D02*
G01X4771535Y-966061D01*
G01X4528820Y-66040D01*
G01X4559300Y-66040D02*
G01X4769261Y-849779D01*
G01X4981106Y-972087D01*
G01X455725Y-152242D02*
G01X850924Y-380410D01*
G01X1065174Y-323001D01*
G01X1115094Y-236538D01*
G54D14*
G01X5488517Y-2802480D02*
G01X5438424Y-2773558D01*
G01X5353068Y-2796430D01*
G01X4902200Y-3578860D01*
G54D13*
G01X11946162Y-3750063D02*
G01X12271440Y-3187007D01*
G01X12285206Y-3183318D01*
G01X12331039Y-3103933D01*
G01X10879687Y-3220489D02*
G01X10770794Y-3409098D01*
G01X10800504Y-3519977D01*
G01X11164747Y-3730273D01*
G01X135487Y-3136669D02*
G01X26594Y-3325278D01*
G01X56304Y-3436157D01*
G01X600816Y-3750531D01*
G01X1171623Y-3718760D02*
G01X1527240Y-3103187D01*
G01X1541006Y-3099498D01*
G01X1586839Y-3020113D01*
G01X11229557Y-3733025D02*
G01X10834207Y-3504769D01*
G01X10816920Y-3440254D01*
G01X10927686Y-3248402D01*
G01X10958234Y-3240217D01*
G54D14*
G01X12255077Y-452980D02*
G01X12204984Y-424058D01*
G01X12119628Y-446930D01*
G01X11554502Y-1425757D01*
G01X11616428Y-1656870D01*
G01X15251919Y-3755822D01*
G01X15617119Y-3733030D02*
G01X15788823Y-3435631D01*
G54D13*
G01X3626029Y-3534094D02*
G01X3500085Y-3461380D01*
G01X3495402Y-3443904D01*
G54D11*
G01X13200533Y-3610835D02*
G01X13284724Y-3659442D01*
G01X13299270Y-3713728D01*
G54D13*
G01X9225669Y-3653247D02*
G01X9258183Y-3774589D01*
G01X8396778Y-3185158D02*
G01X8301660Y-3349907D01*
G01X8328380Y-3449625D01*
G01X8844280Y-3746500D01*
G01X9321699Y-3667143D02*
G01X9349207Y-3769804D01*
G01X9411716Y-3708778D02*
G01X9428500Y-3771414D01*
G54D14*
G01X7424344Y-3612065D02*
G01X7338871Y-3760110D01*
G01X6730102Y-3057400D02*
G01X7562291Y-3537865D01*
G01X7615827Y-3737662D01*
G54D12*
G01X7016288Y-3816524D02*
G01X7129119Y-3621096D01*
G01X7181568Y-3607043D01*
G54D14*
G01X6104734Y-3496639D02*
G01X6547497Y-3752268D01*
G54D13*
G01X633123Y-3734518D02*
G01X90007Y-3420949D01*
G01X72720Y-3356434D01*
G01X183486Y-3164582D01*
G01X214034Y-3156397D01*
G01X1544908Y-2993075D02*
G01X1497546Y-3075107D01*
G01X1500956Y-3087833D01*
G01X1136441Y-3719192D01*
G54D14*
G01X8228185Y-3715077D02*
G01X6747521Y-2860216D01*
G01X6737808Y-2823966D01*
G01X6762926Y-2780460D01*
G01X6751385Y-2737385D01*
G01X7080475Y-2425190D02*
G01X6880955Y-2770769D01*
G01X6913675Y-2892880D01*
G01X8325412Y-3707948D01*
G01X6695037Y-2786021D02*
G01X6723031Y-2890494D01*
G01X8120765Y-3695049D01*
G01X6796784Y-2982956D02*
G01X6799069Y-2991484D01*
G01X8039597Y-3707703D01*
G01X7963043Y-3715812D02*
G01X6856201Y-3076777D01*
G54D13*
G01X18237925Y-2559621D02*
G01X18721832Y-2839005D01*
G01X18969813Y-3764484D01*
G54D12*
G01X16053356Y-468791D02*
G01X15892678Y-747092D01*
G01X15913760Y-825770D01*
G01X16045841Y-902027D01*
G54D14*
G01X13342420Y-312332D02*
G01X13500100Y-38100D01*
G01X14004243Y-37720D02*
G01X14144234Y-118091D01*
G01X14159165Y-173814D01*
G01X14050365Y-362262D01*
G01X14128374Y-388556D02*
G01X14228060Y-215896D01*
G01X14202185Y-119333D01*
G01X14062483Y-38675D01*
G01X13467080Y-40640D02*
G01X13331506Y-274754D01*
G54D13*
G01X10676761Y-383773D02*
G01X10708061Y-500588D01*
G01X10444787Y-349039D02*
G01X10383852Y-454581D01*
G01X10399140Y-511636D01*
G01X18162868Y-2689624D02*
G01X18252087Y-2741135D01*
G01X18282328Y-2733032D01*
G01X18666163Y-2954639D01*
G01X18884562Y-3769714D01*
G01X17587939Y-3685430D02*
G01X17708145Y-3754831D01*
G01X18536920Y-3761740D02*
G01X18612225Y-3632505D01*
G01X18614694Y-3631843D01*
G01X18546657Y-3595792D02*
G01X18456257Y-3753574D01*
G01X17781876Y-3739914D02*
G01X17416720Y-3529091D01*
G01X17294711Y-3561784D01*
G01X17270833Y-3547997D01*
G01X11471693Y-330326D02*
G01X11246267Y-200177D01*
G01X11227132Y-128766D01*
G54D11*
G01X15797344Y-3729689D02*
G01X16034324Y-3666191D01*
G01X16211793Y-3358804D01*
G01X16211897Y-3358776D01*
G54D17*
G01X8971356Y-3115040D02*
G01X9009166Y-3256146D01*
G01X8859693Y-3515040D01*
G01X8900964Y-3669065D01*
G54D12*
G01X17377245Y-3156613D02*
G01X17442191Y-3139211D01*
G01X17655878Y-3262583D01*
G01X17723725Y-3244403D01*
G01X18059690Y-3438372D01*
G01X17109951Y-3603501D02*
G01X17121704Y-3647365D01*
G01X17289780Y-3754120D01*
G54D13*
G01X17454313Y-3723839D02*
G01X17393923Y-3688973D01*
G01X17376044Y-3622248D01*
G54D15*
G01X16558285Y-3558763D02*
G01X16477291Y-3699049D01*
G01X16424596Y-3690244D02*
G01X16525251Y-3515903D01*
G54D11*
G01X16255166Y-3383757D02*
G01X16064362Y-3714239D01*
G54D10*
G01X13625630Y-3676460D02*
G01X13692387Y-3560832D01*
G01X13846549Y-3519525D01*
G54D13*
G01X12289108Y-3076895D02*
G01X12241746Y-3158927D01*
G01X12245156Y-3171653D01*
G01X11903925Y-3762446D01*
G01X17662882Y-3555626D02*
G01X17964597Y-3729851D01*
G01X18394435Y-3716397D02*
G01X18484004Y-3561258D01*
G54D12*
G01X17377245Y-3156613D02*
G01X17264575Y-3186803D01*
G01X17133780Y-3413346D01*
G01X17161027Y-3515034D01*
G01X17074331Y-3665196D01*
G54D13*
G01X2449078Y-449194D02*
G01X2678311Y-52150D01*
G01X4698262Y-1354371D02*
G01X4362110Y-99837D01*
G01X4309989Y-127523D02*
G01X4628608Y-1316628D01*
G01X5569285Y-69390D02*
G01X5394009Y-372978D01*
G01X5283720Y-402529D01*
G01X5020982Y-250837D01*
G01X5046249Y-322168D02*
G01X5287014Y-461173D01*
G01X5406422Y-429178D01*
G01X5593444Y-105246D01*
G54D19*
G01X6736488Y-895025D02*
G01X6612278Y-823312D01*
G54D20*
G01X6624601Y-1088818D02*
G01X6475074Y-1002489D01*
G54D13*
G01X18074876Y-38332D02*
G01X18019904Y-133546D01*
G01X18017686Y-134141D01*
G01X2377757Y-26371D02*
G01X2168556Y-82426D01*
G01X2027168Y-795D01*
G01X1876295Y-41221D01*
G01X1819867Y-138958D01*
G01X1819797Y-138976D01*
G01X1863088Y-163970D02*
G01X1917494Y-69735D01*
G01X2035848Y-38023D01*
G01X2183993Y-123554D01*
G01X2422237Y-59717D01*
G54D12*
G01X2569930Y-34558D02*
G01X2484457Y-182601D01*
G01X2351268Y-218289D01*
G01X2268256Y-362069D01*
G54D13*
G01X2339412Y-438976D02*
G01X2411684Y-313796D01*
G01X2463464Y-299921D01*
G01X2602676Y-58801D01*
G01X2643402Y-44061D02*
G01X2473623Y-338126D01*
G01X2452084Y-343898D01*
G01X2406805Y-422324D01*
G01X2556880Y-563671D02*
G01X2852644Y-51393D01*
G54D14*
G01X13265891Y-53601D02*
G01X13195979Y-72334D01*
G01X13136880Y-38100D01*
G54D18*
G01X5675052Y-1252087D02*
G01X4634896Y-3068147D01*
G01X4784315Y-3601915D01*
G01X4726940Y-3700780D01*
G36*
G01X3339909Y-1728695D02*
G01X3399922Y-1712615D01*
G01X3415549Y-1721637D01*
G01X3498565Y-1769566D01*
G01X3519057Y-1764075D01*
G01X3573845Y-1795707D01*
G01X3575805Y-1803026D01*
G01X3545803Y-1854992D01*
G01X3539948Y-1856561D01*
G01X3467375Y-1814661D01*
G01X3371070Y-1840465D01*
G01X3356451Y-1832025D01*
G01X3332297Y-1741880D01*
G01X3339909Y-1728695D01*
G37*
G36*
G01X8415333Y-1062232D02*
G01X8392200Y-1102173D01*
G01X8398741Y-1126581D01*
G01X8430942Y-1145173D01*
G01X8440521Y-1142607D01*
G01X8516880Y-1186692D01*
G01X8522988Y-1185056D01*
G01X8549941Y-1138370D01*
G01X8548074Y-1131398D01*
G01X8424499Y-1060052D01*
G01X8415333Y-1062232D01*
G37*
G36*
G01X9113623Y-2335989D02*
G01X9015220Y-2279176D01*
G01X8993365Y-2285032D01*
G01X8887575Y-2468266D01*
G01X8889248Y-2474510D01*
G01X8950043Y-2509610D01*
G01X8954503Y-2508415D01*
G01X9010174Y-2411991D01*
G01X9014188Y-2410915D01*
G01X9080646Y-2393108D01*
G01X9113623Y-2335989D01*
G37*
G36*
G01X9087922Y-1727821D02*
G01X9063520Y-1770086D01*
G01X9010578Y-1784272D01*
G01X8977067Y-1793252D01*
G01X8958536Y-1825348D01*
G01X8938808Y-1859519D01*
G01X8916083Y-1865607D01*
G01X8907778Y-1867833D01*
G01X8890131Y-1857644D01*
G01X8884882Y-1854614D01*
G01X8882500Y-1845721D01*
G01X8877643Y-1827598D01*
G01X8971025Y-1665855D01*
G01X8973099Y-1662264D01*
G01X8996193Y-1656076D01*
G01X9001858Y-1654558D01*
G01X9030035Y-1670826D01*
G01X9080450Y-1699934D01*
G01X9087922Y-1727821D01*
G37*
G36*
G01X9955012Y-1862408D02*
G01X9955795Y-1866811D01*
G01X10093165Y-1946121D01*
G01X10095442Y-1954618D01*
G01X10096195Y-1957429D01*
G01X10072101Y-1999161D01*
G01X10064650Y-2012066D01*
G01X10053135Y-2015152D01*
G01X10049068Y-2012804D01*
G01X10049055Y-2012756D01*
G01X9901914Y-1927804D01*
G01X9892204Y-1891567D01*
G01X10108717Y-1516557D01*
G01X10112891Y-1515438D01*
G01X10142207Y-1532364D01*
G01X10067455Y-1661291D01*
G01X10068187Y-1666357D01*
G01X9958616Y-1856138D01*
G01X9955012Y-1862408D01*
G37*
G36*
G01X9487688Y-3261710D02*
G01X9419835Y-3379234D01*
G01X9421147Y-3384130D01*
G01X9487771Y-3422595D01*
G01X9494952Y-3420672D01*
G01X9560176Y-3307699D01*
G01X9557378Y-3297255D01*
G01X9493236Y-3260223D01*
G01X9487688Y-3261710D01*
G37*
G36*
G01X10156643Y-1538681D02*
G01X10423070Y-1692503D01*
G01X10423168Y-1692868D01*
G01X10428078Y-1711193D01*
G01X10033512Y-2394602D01*
G01X10026224Y-2407226D01*
G01X10005231Y-2412851D01*
G01X10002563Y-2413566D01*
G01X9924200Y-2368323D01*
G01X9918958Y-2348759D01*
G01X9926444Y-2335793D01*
G01X9943695Y-2305914D01*
G01X9981933Y-2295668D01*
G01X10005053Y-2289473D01*
G01X10016120Y-2270305D01*
G01X10313778Y-1754746D01*
G01X10307761Y-1732293D01*
G01X10150326Y-1641397D01*
G01X10139738Y-1644235D01*
G01X10121896Y-1675137D01*
G01X10119788Y-1675702D01*
G01X10089721Y-1658342D01*
G01X10088733Y-1654654D01*
G01X10155515Y-1538984D01*
G01X10156643Y-1538681D01*
G37*
G36*
G01X10191518Y-2697371D02*
G01X10145239Y-2670652D01*
G01X10131749Y-2674267D01*
G01X10013166Y-2879659D01*
G01X9947893Y-2897149D01*
G01X9917789Y-2949290D01*
G01X9919072Y-2954077D01*
G01X9991766Y-2996047D01*
G01X10000034Y-2993831D01*
G01X10066546Y-2878629D01*
G01X10080653Y-2874849D01*
G01X10226684Y-2959160D01*
G01X10237781Y-2956187D01*
G01X10248225Y-2953389D01*
G01X10300309Y-2863176D01*
G01X10335092Y-2802931D01*
G01X10327950Y-2776278D01*
G01X10327906Y-2776115D01*
G01X10191518Y-2697371D01*
G37*
G36*
G01X11623421Y-3402674D02*
G01X11523509Y-3344990D01*
G01X11460863Y-3361776D01*
G01X11394374Y-3323388D01*
G01X11456343Y-3216055D01*
G01X11467579Y-3213044D01*
G01X11664435Y-3326699D01*
G01X11665327Y-3330029D01*
G01X11665339Y-3330070D01*
G01X11623421Y-3402674D01*
G37*
G36*
G01X11854432Y-3130926D02*
G01X12045729Y-3241371D01*
G01X12058710Y-3289817D01*
G01X12018421Y-3359600D01*
G01X12012404Y-3361212D01*
G01X11818240Y-3249111D01*
G01X11807760Y-3210001D01*
G01X11853228Y-3131248D01*
G01X11854432Y-3130926D01*
G37*
G36*
G01X11433966Y-2658873D02*
G01X11491811Y-2558683D01*
G01X11489984Y-2551865D01*
G01X11478650Y-2513519D01*
G01X11506954Y-2465771D01*
G01X11608600Y-2439414D01*
G01X12542485Y-2978593D01*
G01X12554193Y-3022286D01*
G01X12534280Y-3056775D01*
G01X12532130Y-3060499D01*
G01X12529847Y-3064453D01*
G01X12559930Y-3176724D01*
G01X12501953Y-3277144D01*
G01X12502497Y-3279175D01*
G01X12552952Y-3308305D01*
G01X12554403Y-3307916D01*
G01X12613194Y-3206087D01*
G01X12599851Y-3164290D01*
G01X12687411Y-3012630D01*
G01X12658241Y-2900099D01*
G01X12610561Y-2872938D01*
G01X12245143Y-2661964D01*
G01X11554075Y-2262976D01*
G01X11504085Y-2276371D01*
G01X11414342Y-2431811D01*
G01X11439593Y-2526050D01*
G01X11380978Y-2627574D01*
G01X11382203Y-2632143D01*
G01X11430233Y-2659873D01*
G01X11433966Y-2658873D01*
G37*
G36*
G01X12402072Y-3524558D02*
G01X12355988Y-3604378D01*
G01X12346124Y-3607021D01*
G01X12161607Y-3500491D01*
G01X12156797Y-3482540D01*
G01X12215392Y-3381051D01*
G01X12228610Y-3377510D01*
G01X12294097Y-3415318D01*
G01X12297114Y-3426578D01*
G01X12308963Y-3470801D01*
G01X12402072Y-3524558D01*
G37*
G36*
G01X13539696Y-3281920D02*
G01X13449852Y-3437534D01*
G01X13406282Y-3449209D01*
G01X13320988Y-3596942D01*
G01X13322300Y-3601837D01*
G01X13444583Y-3672438D01*
G01X13457312Y-3669027D01*
G01X13552640Y-3503914D01*
G01X13544245Y-3472582D01*
G01X13626991Y-3329263D01*
G01X13624892Y-3321430D01*
G01X13551145Y-3278852D01*
G01X13539696Y-3281920D01*
G37*
G36*
G01X8823417Y-817454D02*
G01X8783863Y-885963D01*
G01X8790401Y-910364D01*
G01X8858910Y-949918D01*
G01X8862832Y-948868D01*
G01X8929180Y-833949D01*
G01X8928285Y-830608D01*
G01X8876443Y-800677D01*
G01X8825074Y-814441D01*
G01X8823391Y-817357D01*
G01X8823417Y-817454D01*
G37*
G36*
G01X7299625Y-1284338D02*
G01X7269800Y-1335996D01*
G01X7270967Y-1340353D01*
G01X7377944Y-1402116D01*
G01X7397334Y-1396920D01*
G01X7403870Y-1395169D01*
G01X7413918Y-1377765D01*
G01X7503313Y-1222929D01*
G01X7544708Y-1211837D01*
G01X7624083Y-1257664D01*
G01X7627424Y-1256769D01*
G01X7638411Y-1237739D01*
G01X7637555Y-1234544D01*
G01X7538160Y-1177158D01*
G01X7492928Y-1189278D01*
G01X7462535Y-1197421D01*
G01X7398659Y-1308058D01*
G01X7391136Y-1321088D01*
G01X7374578Y-1325525D01*
G01X7302094Y-1283676D01*
G01X7299625Y-1284338D01*
G37*
G36*
G01X7306166Y-1512513D02*
G01X7345793Y-1535391D01*
G01X7407588Y-1518833D01*
G01X7438130Y-1510650D01*
G01X7468751Y-1528328D01*
G01X7473254Y-1530928D01*
G01X7477124Y-1545371D01*
G01X7411608Y-1658848D01*
G01X7401664Y-1661512D01*
G01X7266006Y-1583190D01*
G01X7265145Y-1579980D01*
G01X7303719Y-1513168D01*
G01X7306166Y-1512513D01*
G37*
G36*
G01X7457037Y-494925D02*
G01X7483857Y-510409D01*
G01X7513903Y-622544D01*
G01X7461102Y-713998D01*
G01X7378205Y-736210D01*
G01X7260404Y-668198D01*
G01X7257314Y-656666D01*
G01X7369765Y-461895D01*
G01X7390363Y-456377D01*
G01X7452160Y-492055D01*
G01X7457020Y-494861D01*
G01X7457037Y-494925D01*
G37*
G36*
G01X7660118Y-1191499D02*
G01X7586636Y-1149074D01*
G01X7582219Y-1132589D01*
G01X7576615Y-1111673D01*
G01X7528962Y-1084161D01*
G01X7485868Y-1059280D01*
G01X7480614Y-1039672D01*
G01X7446288Y-911565D01*
G01X7399533Y-884571D01*
G01X7386825Y-877235D01*
G01X7385541Y-872441D01*
G01X7411468Y-827534D01*
G01X7406689Y-809696D01*
G01X7388607Y-742216D01*
G01X7378205Y-736210D01*
G01X7461102Y-713998D01*
G01X7461102Y-713998D01*
G01X7448999Y-734962D01*
G01X7484146Y-866135D01*
G01X7534410Y-1053720D01*
G01X7601123Y-1092237D01*
G01X7688141Y-1142477D01*
G01X7688550Y-1144002D01*
G01X7661312Y-1191179D01*
G01X7660118Y-1191499D01*
G37*
G36*
G01X8015368Y-1412407D02*
G01X8160305Y-1496087D01*
G01X8165014Y-1513661D01*
G01X8234843Y-1553977D01*
G01X8235777Y-1557463D01*
G01X8209479Y-1603013D01*
G01X8206768Y-1603740D01*
G01X8116036Y-1551356D01*
G01X8105846Y-1513326D01*
G01X8098302Y-1485172D01*
G01X8074279Y-1471302D01*
G01X8004972Y-1431288D01*
G01X8004522Y-1429609D01*
G01X8014286Y-1412697D01*
G01X8015368Y-1412407D01*
G37*
G36*
G01X8023827Y-965872D02*
G01X8107825Y-820382D01*
G01X8103934Y-805857D01*
G01X8144179Y-736151D01*
G01X8143167Y-732374D01*
G01X8098414Y-706537D01*
G01X8093621Y-707821D01*
G01X8045455Y-791248D01*
G01X8062618Y-855301D01*
G01X8005246Y-954673D01*
G01X8005616Y-956053D01*
G01X8023004Y-966092D01*
G01X8023827Y-965872D01*
G37*
G36*
G01X7835647Y-79055D02*
G01X7754110Y-220282D01*
G01X7724737Y-228152D01*
G01X7662699Y-192335D01*
G01X7655353Y-164920D01*
G01X7737607Y-22452D01*
G01X7835647Y-79055D01*
G37*
G36*
G01X6269100Y-2076215D02*
G01X6085690Y-1970323D01*
G01X6073141Y-1923489D01*
G01X6067952Y-1904124D01*
G01X5980297Y-1853516D01*
G01X5976148Y-1854628D01*
G01X5969855Y-1865528D01*
G01X5911918Y-1965877D01*
G01X5913295Y-1971015D01*
G01X5914433Y-1975264D01*
G01X5920113Y-1978542D01*
G01X6115388Y-2091285D01*
G01X6122816Y-2119007D01*
G01X6213024Y-2171088D01*
G01X6224278Y-2168073D01*
G01X6271703Y-2085931D01*
G01X6269100Y-2076215D01*
G37*
G36*
G01X7739440Y-2590355D02*
G01X7632123Y-2528396D01*
G01X7619068Y-2531893D01*
G01X7605689Y-2555067D01*
G01X7608604Y-2565946D01*
G01X7613492Y-2584187D01*
G01X7699207Y-2633675D01*
G01X7707612Y-2638527D01*
G01X7714974Y-2636555D01*
G01X7740140Y-2592966D01*
G01X7739440Y-2590355D01*
G37*
G36*
G01X7688258Y-87271D02*
G01X7665503Y-126684D01*
G01X7626972Y-137008D01*
G01X7612631Y-140851D01*
G01X7441558Y-437157D01*
G01X7457037Y-494925D01*
G01X7460141Y-496717D01*
G01X7344495Y-697022D01*
G01X7320017Y-703581D01*
G01X7263341Y-670859D01*
G01X7259486Y-656471D01*
G01X7371450Y-462544D01*
G01X7359644Y-418484D01*
G01X7585217Y-27780D01*
G01X7688258Y-87271D01*
G37*
G36*
G01X879221Y-3318854D02*
G01X779309Y-3261170D01*
G01X716663Y-3277956D01*
G01X650174Y-3239568D01*
G01X712143Y-3132235D01*
G01X723379Y-3129224D01*
G01X920235Y-3242879D01*
G01X921127Y-3246209D01*
G01X921139Y-3246250D01*
G01X879221Y-3318854D01*
G37*
G36*
G01X1110232Y-3047106D02*
G01X1301529Y-3157551D01*
G01X1314510Y-3205997D01*
G01X1274221Y-3275780D01*
G01X1268204Y-3277392D01*
G01X1074040Y-3165291D01*
G01X1063560Y-3126181D01*
G01X1109028Y-3047428D01*
G01X1110232Y-3047106D01*
G37*
G36*
G01X689766Y-2575053D02*
G01X747611Y-2474863D01*
G01X745784Y-2468045D01*
G01X734450Y-2429699D01*
G01X762754Y-2381951D01*
G01X864400Y-2355594D01*
G01X1798285Y-2894773D01*
G01X1809993Y-2938466D01*
G01X1790080Y-2972955D01*
G01X1787930Y-2976679D01*
G01X1785647Y-2980633D01*
G01X1815730Y-3092904D01*
G01X1757753Y-3193324D01*
G01X1758297Y-3195355D01*
G01X1808752Y-3224485D01*
G01X1810203Y-3224096D01*
G01X1868994Y-3122267D01*
G01X1855651Y-3080470D01*
G01X1943211Y-2928810D01*
G01X1914041Y-2816279D01*
G01X1866361Y-2789118D01*
G01X1500943Y-2578144D01*
G01X956300Y-2263694D01*
G01X675346Y-2338977D01*
G01X670142Y-2347991D01*
G01X695393Y-2442230D01*
G01X636778Y-2543754D01*
G01X638003Y-2548323D01*
G01X686033Y-2576053D01*
G01X689766Y-2575053D01*
G37*
G36*
G01X1317382Y-3778265D02*
G01X1318260Y-3776980D01*
G01X1371173Y-3685097D01*
G01X1361729Y-3649849D01*
G01X1278551Y-3601826D01*
G01X1269739Y-3604187D01*
G01X1170013Y-3778265D01*
G01X1317382Y-3778265D01*
G37*
G36*
G01X1657872Y-3440738D02*
G01X1611788Y-3520558D01*
G01X1601924Y-3523201D01*
G01X1417407Y-3416671D01*
G01X1412597Y-3398720D01*
G01X1471192Y-3297231D01*
G01X1484410Y-3293690D01*
G01X1549897Y-3331498D01*
G01X1552914Y-3342758D01*
G01X1564763Y-3386981D01*
G01X1657872Y-3440738D01*
G37*
G36*
G01X2795496Y-3086340D02*
G01X2705652Y-3241954D01*
G01X2662082Y-3253629D01*
G01X2576788Y-3401362D01*
G01X2578100Y-3406257D01*
G01X2700383Y-3476858D01*
G01X2713112Y-3473447D01*
G01X2808440Y-3308334D01*
G01X2800045Y-3277002D01*
G01X2882791Y-3133683D01*
G01X2880692Y-3125850D01*
G01X2806945Y-3083272D01*
G01X2795496Y-3086340D01*
G37*
G36*
G01X16254248Y-912210D02*
G01X16186395Y-1029734D01*
G01X16187707Y-1034630D01*
G01X16254331Y-1073095D01*
G01X16261512Y-1071172D01*
G01X16326736Y-958199D01*
G01X16323938Y-947755D01*
G01X16259796Y-910723D01*
G01X16254248Y-912210D01*
G37*
G36*
G01X16958078Y-347871D02*
G01X16911799Y-321152D01*
G01X16898309Y-324767D01*
G01X16779726Y-530159D01*
G01X16714453Y-547649D01*
G01X16684349Y-599790D01*
G01X16685632Y-604577D01*
G01X16758326Y-646547D01*
G01X16766594Y-644331D01*
G01X16833106Y-529129D01*
G01X16847213Y-525349D01*
G01X16993244Y-609660D01*
G01X17004341Y-606687D01*
G01X17014785Y-603889D01*
G01X17066869Y-513676D01*
G01X17101652Y-453431D01*
G01X17094510Y-426778D01*
G01X17094466Y-426615D01*
G01X16958078Y-347871D01*
G37*
G36*
G01X18389981Y-1053174D02*
G01X18290069Y-995490D01*
G01X18227423Y-1012276D01*
G01X18160934Y-973888D01*
G01X18222903Y-866555D01*
G01X18234139Y-863544D01*
G01X18430995Y-977199D01*
G01X18431887Y-980529D01*
G01X18431899Y-980570D01*
G01X18389981Y-1053174D01*
G37*
G36*
G01X18620992Y-781426D02*
G01X18812289Y-891871D01*
G01X18825270Y-940317D01*
G01X18784981Y-1010100D01*
G01X18778964Y-1011712D01*
G01X18584800Y-899611D01*
G01X18574320Y-860501D01*
G01X18619788Y-781748D01*
G01X18620992Y-781426D01*
G37*
G36*
G01X18830173Y-1816318D02*
G01X18726718Y-1756588D01*
G01X18714213Y-1709917D01*
G01X18881933Y-1419417D01*
G01X18872489Y-1384169D01*
G01X18789311Y-1336146D01*
G01X18780499Y-1338507D01*
G01X18560097Y-1720255D01*
G01X18571641Y-1763336D01*
G01X18574264Y-1773127D01*
G01X18763793Y-1882551D01*
G01X18780484Y-1892188D01*
G01X18787664Y-1890264D01*
G01X18830231Y-1816535D01*
G01X18830173Y-1816318D01*
G37*
G36*
G01X19310306Y-1882830D02*
G01X19251646Y-1984432D01*
G01X19195919Y-1999364D01*
G01X19122408Y-2019061D01*
G01X19087626Y-2079307D01*
G01X19037131Y-2166766D01*
G01X19025571Y-2169864D01*
G01X18936496Y-2118437D01*
G01X18932684Y-2104209D01*
G01X19042373Y-1914222D01*
G01X19086836Y-1902308D01*
G01X19120661Y-1921838D01*
G01X19160677Y-1911115D01*
G01X19285688Y-1877619D01*
G01X19287500Y-1874480D01*
G01X19289301Y-1871362D01*
G01X19290706Y-1870985D01*
G01X19310138Y-1882204D01*
G01X19310306Y-1882830D01*
G37*
G36*
G01X19379961Y-1922783D02*
G01X19283344Y-2090128D01*
G01X19285898Y-2099659D01*
G01X19472659Y-2207486D01*
G01X19477530Y-2225666D01*
G01X19445973Y-2280325D01*
G01X19427501Y-2285275D01*
G01X19157836Y-2129583D01*
G01X19156789Y-2125676D01*
G01X19198668Y-2053139D01*
G01X19206375Y-2051074D01*
G01X19239573Y-2042178D01*
G01X19282321Y-1968138D01*
G01X19326081Y-1892343D01*
G01X19327596Y-1891937D01*
G01X19379767Y-1922058D01*
G01X19379961Y-1922783D01*
G37*
G36*
G01X18836951Y-1555497D02*
G01X18898589Y-1591084D01*
G01X18950758Y-1577105D01*
G01X19032315Y-1624192D01*
G01X19044070Y-1668061D01*
G01X19168849Y-1740103D01*
G01X19206790Y-1729936D01*
G01X19315491Y-1792695D01*
G01X19315827Y-1793947D01*
G01X19305465Y-1811894D01*
G01X19304804Y-1812071D01*
G01X19210510Y-1757630D01*
G01X19158748Y-1771500D01*
G01X19117843Y-1782460D01*
G01X19081762Y-1761629D01*
G01X18993440Y-1710636D01*
G01X18988515Y-1692258D01*
G01X18892300Y-1636708D01*
G01X18864437Y-1644174D01*
G01X18808673Y-1611979D01*
G01X18807144Y-1606271D01*
G01X18836368Y-1555653D01*
G01X18836951Y-1555497D01*
G37*
G36*
G01X20172892Y-2034808D02*
G01X20374509Y-1685597D01*
G01X20357610Y-1622526D01*
G01X20237455Y-1553155D01*
G01X20214936Y-1559189D01*
G01X20181248Y-1617538D01*
G01X20192267Y-1658660D01*
G01X20222962Y-1773215D01*
G01X20203159Y-1807515D01*
G01X20147759Y-1903471D01*
G01X20127525Y-1908893D01*
G01X20088525Y-1976443D01*
G01X20091673Y-1988192D01*
G01X20172565Y-2034896D01*
G01X20172892Y-2034808D01*
G37*
G36*
G01X19449848Y-2165917D02*
G01X19527740Y-2210889D01*
G01X19532268Y-2227784D01*
G01X19481275Y-2316107D01*
G01X19471197Y-2318807D01*
G01X19390391Y-2272154D01*
G01X19385943Y-2255555D01*
G01X19435471Y-2169769D01*
G01X19449848Y-2165917D01*
G37*
G36*
G01X19419426Y-1692883D02*
G01X19514360Y-1528453D01*
G01X19497522Y-1465612D01*
G01X19472027Y-1370463D01*
G01X19541356Y-1250382D01*
G01X19436073Y-1189597D01*
G01X19426958Y-1192040D01*
G01X19325732Y-1367369D01*
G01X19385539Y-1590570D01*
G01X19407213Y-1671459D01*
G01X19401667Y-1681063D01*
G01X19401267Y-1681756D01*
G01X19401479Y-1682547D01*
G01X19419396Y-1692891D01*
G01X19419426Y-1692883D01*
G37*
G36*
G01X20169868Y-1825145D02*
G01X20010341Y-1733042D01*
G01X19995649Y-1678212D01*
G01X20039013Y-1603104D01*
G01X20079156Y-1592348D01*
G01X20104613Y-1585526D01*
G01X20118890Y-1593769D01*
G01X20151168Y-1612404D01*
G01X20156152Y-1631008D01*
G01X20116373Y-1699908D01*
G01X20121095Y-1717533D01*
G01X20200180Y-1763192D01*
G01X20201842Y-1769393D01*
G01X20201910Y-1769647D01*
G01X20169868Y-1825145D01*
G37*
G36*
G01X19324564Y-1777592D02*
G01X19224527Y-1719836D01*
G01X19215844Y-1687428D01*
G01X19180103Y-1554041D01*
G01X19125418Y-1522468D01*
G01X19070581Y-1537162D01*
G01X19043709Y-1521647D01*
G01X19000962Y-1496967D01*
G01X18985236Y-1438277D01*
G01X18917110Y-1398944D01*
G01X18914092Y-1387680D01*
G01X18939480Y-1343707D01*
G01X18947186Y-1341642D01*
G01X19010703Y-1378314D01*
G01X19018964Y-1409141D01*
G01X19110293Y-1461870D01*
G01X19138156Y-1454404D01*
G01X19216330Y-1499538D01*
G01X19232454Y-1559710D01*
G01X19251516Y-1630850D01*
G01X19238171Y-1653964D01*
G01X19253455Y-1711008D01*
G01X19264856Y-1717590D01*
G01X19335277Y-1758248D01*
G01X19335450Y-1758895D01*
G01X19324672Y-1777563D01*
G01X19324564Y-1777592D01*
G37*
G36*
G01X19168632Y-1175058D02*
G01X19122548Y-1254878D01*
G01X19112684Y-1257521D01*
G01X18928167Y-1150991D01*
G01X18923357Y-1133040D01*
G01X18981952Y-1031551D01*
G01X18995170Y-1028010D01*
G01X19060657Y-1065818D01*
G01X19063674Y-1077078D01*
G01X19075523Y-1121301D01*
G01X19168632Y-1175058D01*
G37*
G36*
G01X20306256Y-932420D02*
G01X20216412Y-1088034D01*
G01X20172842Y-1099709D01*
G01X20087548Y-1247442D01*
G01X20088860Y-1252337D01*
G01X20211143Y-1322938D01*
G01X20223872Y-1319527D01*
G01X20319200Y-1154414D01*
G01X20310805Y-1123082D01*
G01X20393551Y-979763D01*
G01X20391452Y-971930D01*
G01X20317705Y-929352D01*
G01X20306256Y-932420D01*
G37*
G36*
G01X20369034Y-1223071D02*
G01X20256056Y-1418756D01*
G01X20072881Y-1467837D01*
G01X19924057Y-1507714D01*
G01X19670956Y-1361586D01*
G01X19569654Y-1537045D01*
G01X19523092Y-1549521D01*
G01X19435046Y-1702021D01*
G01X19435383Y-1703278D01*
G01X19453407Y-1713684D01*
G01X19454374Y-1713425D01*
G01X19488691Y-1733238D01*
G01X19490818Y-1732668D01*
G01X19558370Y-1615664D01*
G01X19612330Y-1601206D01*
G01X19644171Y-1592674D01*
G01X19679583Y-1531338D01*
G01X19705040Y-1524517D01*
G01X19715062Y-1530304D01*
G01X19738335Y-1543740D01*
G01X19742009Y-1557448D01*
G01X19709573Y-1613628D01*
G01X19698319Y-1616643D01*
G01X19554612Y-1655149D01*
G01X19505059Y-1740978D01*
G01X19505750Y-1743557D01*
G01X19506976Y-1744265D01*
G01X19557983Y-1773714D01*
G01X19559788Y-1773230D01*
G01X19597259Y-1708330D01*
G01X19766964Y-1662857D01*
G01X19816480Y-1577093D01*
G01X19843133Y-1569951D01*
G01X19886981Y-1595267D01*
G01X20401038Y-1457526D01*
G01X20494336Y-1295929D01*
G01X20491384Y-1284914D01*
G01X20379440Y-1220283D01*
G01X20369034Y-1223071D01*
G37*
G36*
G01X19565143Y-1796558D02*
G01X19632732Y-1835580D01*
G01X19762562Y-1800792D01*
G01X19804357Y-1789594D01*
G01X19828009Y-1748627D01*
G01X19836037Y-1734721D01*
G01X19840780Y-1733450D01*
G01X19945169Y-1793720D01*
G01X19946043Y-1796980D01*
G01X19839609Y-1981330D01*
G01X19833384Y-1982998D01*
G01X19554177Y-1821797D01*
G01X19552915Y-1817088D01*
G01X19564698Y-1796677D01*
G01X19565143Y-1796558D01*
G37*
G36*
G01X13700885Y-1541030D02*
G01X13804340Y-1600760D01*
G01X13808363Y-1615773D01*
G01X13809062Y-1618384D01*
G01X13795046Y-1642661D01*
G01X13771112Y-1649074D01*
G01X13736075Y-1628846D01*
G01X13674493Y-1593291D01*
G01X13673625Y-1590051D01*
G01X13673295Y-1588819D01*
G01X13700885Y-1541030D01*
G37*
G36*
G01X14506000Y-240855D02*
G01X14398683Y-178896D01*
G01X14385628Y-182393D01*
G01X14372249Y-205567D01*
G01X14375164Y-216446D01*
G01X14380052Y-234687D01*
G01X14465767Y-284175D01*
G01X14474172Y-289027D01*
G01X14481534Y-287055D01*
G01X14506700Y-243466D01*
G01X14506000Y-240855D01*
G37*
G36*
G01X14026057Y-1805341D02*
G01X14135477Y-1868514D01*
G01X14136512Y-1872376D01*
G01X14106090Y-1925069D01*
G01X14103479Y-1925769D01*
G01X13995335Y-1863332D01*
G01X13993819Y-1857675D01*
G01X14023664Y-1805982D01*
G01X14026057Y-1805341D01*
G37*
G36*
G01X6713190Y-837990D02*
G01X6675471Y-903322D01*
G01X6303141Y-688532D01*
G01X6232275Y-811276D01*
G01X6608711Y-1028979D01*
G01X6564642Y-1105309D01*
G01X6122874Y-849886D01*
G01X6379287Y-405766D01*
G01X6613116Y-540767D01*
G01X6700873Y-388768D01*
G01X6467044Y-253767D01*
G01X6619825Y10858D01*
G01X6853654Y-124143D01*
G01X6901495Y-41279D01*
G01X6966827Y-78998D01*
G01X6881266Y-227193D01*
G01X6647438Y-92192D01*
G01X6570095Y-226154D01*
G01X6803923Y-361155D01*
G01X6640728Y-643817D01*
G01X6406900Y-508816D01*
G01X6340860Y-623201D01*
G01X6713190Y-837990D01*
G37*
G36*
G01X18270645Y73129D02*
G01X18180902Y-82311D01*
G01X18206153Y-176550D01*
G01X18147538Y-278074D01*
G01X18148763Y-282643D01*
G01X18196793Y-310373D01*
G01X18200526Y-309373D01*
G01X18258371Y-209183D01*
G01X18256544Y-202365D01*
G01X18245210Y-164019D01*
G01X18273514Y-116271D01*
G01X18375160Y-89914D01*
G01X19309045Y-629093D01*
G01X19320753Y-672786D01*
G01X19300840Y-707275D01*
G01X19298690Y-710999D01*
G01X19296407Y-714953D01*
G01X19326490Y-827224D01*
G01X19268513Y-927644D01*
G01X19269057Y-929675D01*
G01X19319512Y-958805D01*
G01X19320963Y-958416D01*
G01X19379754Y-856587D01*
G01X19366411Y-814790D01*
G01X19453971Y-663130D01*
G01X19424801Y-550599D01*
G01X19377121Y-523438D01*
G01X19011703Y-312464D01*
G01X18270645Y73129D01*
G37*

G04 Rect Start*
G36*
G01X380966Y-218743D02*
G01X176919Y-100936D01*
G01X217919Y-29922D01*
G01X421966Y-147728D01*
G01X380966Y-218743D01*
G37*
G36*
G01X392499Y-226094D02*
G01X300008Y-172694D01*
G01X343829Y-96793D01*
G01X436321Y-150193D01*
G01X392499Y-226094D01*
G37*
G36*
G01X1167878Y-493140D02*
G01X1088203Y-447140D01*
G01X1258653Y-151912D01*
G01X1338328Y-197912D01*
G01X1167878Y-493140D01*
G37*
G36*
G01X3839100Y-337153D02*
G01X3766440Y-295203D01*
G01X3852290Y-146506D01*
G01X3924950Y-188456D01*
G01X3839100Y-337153D01*
G37*
G36*
G01X9366354Y-2437833D02*
G01X9046444Y-2253133D01*
G01X9113644Y-2136739D01*
G01X9433554Y-2321439D01*
G01X9366354Y-2437833D01*
G37*
G36*
G01X9955425Y-3071770D02*
G01X9874192Y-3024870D01*
G01X9947942Y-2897131D01*
G01X10029175Y-2944031D01*
G01X9955425Y-3071770D01*
G37*
G36*
G01X10607507Y-3654017D02*
G01X10493278Y-3588067D01*
G01X10533878Y-3517746D01*
G01X10648107Y-3583696D01*
G01X10607507Y-3654017D01*
G37*
G36*
G01X10969275Y-3552732D02*
G01X10890640Y-3507332D01*
G01X10952540Y-3400118D01*
G01X11031175Y-3445518D01*
G01X10969275Y-3552732D01*
G37*
G36*
G01X12507113Y-3690856D02*
G01X12253887Y-3544656D01*
G01X12299087Y-3466367D01*
G01X12552313Y-3612567D01*
G01X12507113Y-3690856D01*
G37*
G36*
G01X8459111Y-875818D02*
G01X8347134Y-811168D01*
G01X8376134Y-760939D01*
G01X8488111Y-825589D01*
G01X8459111Y-875818D01*
G37*
G36*
G01X5224524Y-3807371D02*
G01X5132639Y-3754321D01*
G01X5412889Y-3268914D01*
G01X5504774Y-3321964D01*
G01X5224524Y-3807371D01*
G37*
G36*
G01X313017Y-3657396D02*
G01X255817Y-3756469D01*
G01X183244Y-3714569D01*
G01X240445Y-3615496D01*
G01X313017Y-3657396D01*
G37*
G36*
G01X225075Y-3468912D02*
G01X146440Y-3423512D01*
G01X208340Y-3316298D01*
G01X286975Y-3361698D01*
G01X225075Y-3468912D01*
G37*
G36*
G01X1762913Y-3607036D02*
G01X1509687Y-3460836D01*
G01X1554887Y-3382547D01*
G01X1808113Y-3528747D01*
G01X1762913Y-3607036D01*
G37*
G36*
G01X15430085Y-3637947D02*
G01X15350411Y-3591947D01*
G01X15520861Y-3296719D01*
G01X15600535Y-3342719D01*
G01X15430085Y-3637947D01*
G37*
G36*
G01X15919463Y-619035D02*
G01X15599553Y-434335D01*
G01X15649064Y-348579D01*
G01X15968974Y-533279D01*
G01X15919463Y-619035D01*
G37*
G36*
G01X16721985Y-722270D02*
G01X16640752Y-675370D01*
G01X16714502Y-547631D01*
G01X16795735Y-594531D01*
G01X16721985Y-722270D01*
G37*
G36*
G01X17844390Y-1592340D02*
G01X17745317Y-1535140D01*
G01X17787217Y-1462567D01*
G01X17886290Y-1519767D01*
G01X17844390Y-1592340D01*
G37*
G36*
G01X17374067Y-1304517D02*
G01X17259838Y-1238567D01*
G01X17300438Y-1168246D01*
G01X17414667Y-1234196D01*
G01X17374067Y-1304517D01*
G37*
G36*
G01X17735835Y-1203232D02*
G01X17657200Y-1157832D01*
G01X17719100Y-1050618D01*
G01X17797735Y-1096018D01*
G01X17735835Y-1203232D01*
G37*
G36*
G01X18352661Y-3036795D02*
G01X18240164Y-2971845D01*
G01X18269064Y-2921789D01*
G01X18381561Y-2986739D01*
G01X18352661Y-3036795D01*
G37*
G36*
G01X18931580Y-1989204D02*
G01X18688054Y-1848604D01*
G01X18737804Y-1762435D01*
G01X18981330Y-1903035D01*
G01X18931580Y-1989204D01*
G37*
G36*
G01X18461298Y-1905326D02*
G01X18363091Y-1848626D01*
G01X18404490Y-1776919D01*
G01X18502698Y-1833619D01*
G01X18461298Y-1905326D01*
G37*
G36*
G01X18101307Y-3481959D02*
G01X18028647Y-3440009D01*
G01X18114497Y-3291312D01*
G01X18187157Y-3333262D01*
G01X18101307Y-3481959D01*
G37*
G36*
G01X20171810Y-2036680D02*
G01X19943007Y-1904580D01*
G01X19991507Y-1820576D01*
G01X20220310Y-1952676D01*
G01X20171810Y-2036680D01*
G37*
G36*
G01X19273673Y-1341356D02*
G01X19020447Y-1195156D01*
G01X19065647Y-1116867D01*
G01X19318873Y-1263067D01*
G01X19273673Y-1341356D01*
G37*
G36*
G01X14500229Y-2500419D02*
G01X14346856Y-2411869D01*
G01X14450356Y-2232601D01*
G01X14603729Y-2321151D01*
G01X14500229Y-2500419D01*
G37*
G36*
G01X14539033Y-3282269D02*
G01X14310143Y-3150119D01*
G01X14351143Y-3079105D01*
G01X14580033Y-3211255D01*
G01X14539033Y-3282269D01*
G37*
G36*
G01X14550567Y-3289620D02*
G01X14458075Y-3236220D01*
G01X14718525Y-2785108D01*
G01X14811017Y-2838508D01*
G01X14550567Y-3289620D01*
G37*
G36*
G01X11991084Y-1457871D02*
G01X11899199Y-1404821D01*
G01X12179449Y-919414D01*
G01X12271334Y-972464D01*
G01X11991084Y-1457871D01*
G37*
G36*
G01X31394347Y-214300D02*
G01X31394347Y-114300D01*
G01X31994347Y-114300D01*
G01X31994347Y-214300D01*
G01X31394347Y-214300D01*
G37*
G36*
G01X31394347Y-353234D02*
G01X31394347Y-253234D01*
G01X31994347Y-253234D01*
G01X31994347Y-353234D01*
G01X31394347Y-353234D01*
G37*
G36*
G01X31394347Y-492167D02*
G01X31394347Y-392167D01*
G01X31994347Y-392167D01*
G01X31994347Y-492167D01*
G01X31394347Y-492167D01*
G37*
G36*
G01X31394347Y-631101D02*
G01X31394347Y-531101D01*
G01X31994347Y-531101D01*
G01X31994347Y-631101D01*
G01X31394347Y-631101D01*
G37*
G36*
G01X31394347Y-770035D02*
G01X31394347Y-670035D01*
G01X31994347Y-670035D01*
G01X31994347Y-770035D01*
G01X31394347Y-770035D01*
G37*
G36*
G01X31394347Y-908969D02*
G01X31394347Y-808969D01*
G01X31994347Y-808969D01*
G01X31994347Y-908969D01*
G01X31394347Y-908969D01*
G37*
G36*
G01X31394347Y-1047902D02*
G01X31394347Y-947902D01*
G01X31994347Y-947902D01*
G01X31994347Y-1047902D01*
G01X31394347Y-1047902D01*
G37*
G36*
G01X31394347Y-1186836D02*
G01X31394347Y-1086836D01*
G01X31994347Y-1086836D01*
G01X31994347Y-1186836D01*
G01X31394347Y-1186836D01*
G37*
G36*
G01X31394347Y-1325770D02*
G01X31394347Y-1225770D01*
G01X31994347Y-1225770D01*
G01X31994347Y-1325770D01*
G01X31394347Y-1325770D01*
G37*
G36*
G01X31394347Y-1464704D02*
G01X31394347Y-1364704D01*
G01X31994347Y-1364704D01*
G01X31994347Y-1464704D01*
G01X31394347Y-1464704D01*
G37*
G36*
G01X31394347Y-1603637D02*
G01X31394347Y-1503637D01*
G01X31994347Y-1503637D01*
G01X31994347Y-1603637D01*
G01X31394347Y-1603637D01*
G37*
G36*
G01X31394347Y-1742571D02*
G01X31394347Y-1642571D01*
G01X31994347Y-1642571D01*
G01X31994347Y-1742571D01*
G01X31394347Y-1742571D01*
G37*
G36*
G01X31394347Y-1881505D02*
G01X31394347Y-1781505D01*
G01X31994347Y-1781505D01*
G01X31994347Y-1881505D01*
G01X31394347Y-1881505D01*
G37*
G36*
G01X31394347Y-2020438D02*
G01X31394347Y-1920438D01*
G01X31994347Y-1920438D01*
G01X31994347Y-2020438D01*
G01X31394347Y-2020438D01*
G37*
G36*
G01X31394347Y-2159372D02*
G01X31394347Y-2059372D01*
G01X31994347Y-2059372D01*
G01X31994347Y-2159372D01*
G01X31394347Y-2159372D01*
G37*
G36*
G01X31394347Y-2298306D02*
G01X31394347Y-2198306D01*
G01X31994347Y-2198306D01*
G01X31994347Y-2298306D01*
G01X31394347Y-2298306D01*
G37*
G36*
G01X31394347Y-2437240D02*
G01X31394347Y-2337240D01*
G01X31994347Y-2337240D01*
G01X31994347Y-2437240D01*
G01X31394347Y-2437240D01*
G37*
G36*
G01X31394347Y-2576173D02*
G01X31394347Y-2476173D01*
G01X31994347Y-2476173D01*
G01X31994347Y-2576173D01*
G01X31394347Y-2576173D01*
G37*
G36*
G01X31394347Y-2715107D02*
G01X31394347Y-2615107D01*
G01X31994347Y-2615107D01*
G01X31994347Y-2715107D01*
G01X31394347Y-2715107D01*
G37*
G36*
G01X31394347Y-2854041D02*
G01X31394347Y-2754041D01*
G01X31994347Y-2754041D01*
G01X31994347Y-2854041D01*
G01X31394347Y-2854041D01*
G37*
G36*
G01X31394347Y-2992975D02*
G01X31394347Y-2892975D01*
G01X31994347Y-2892975D01*
G01X31994347Y-2992975D01*
G01X31394347Y-2992975D01*
G37*
G36*
G01X31394347Y-3131908D02*
G01X31394347Y-3031908D01*
G01X31994347Y-3031908D01*
G01X31994347Y-3131908D01*
G01X31394347Y-3131908D01*
G37*
G36*
G01X31394347Y-3270842D02*
G01X31394347Y-3170842D01*
G01X31994347Y-3170842D01*
G01X31994347Y-3270842D01*
G01X31394347Y-3270842D01*
G37*
G36*
G01X31394347Y-3409776D02*
G01X31394347Y-3309776D01*
G01X31994347Y-3309776D01*
G01X31994347Y-3409776D01*
G01X31394347Y-3409776D01*
G37*
G36*
G01X31394347Y-3548709D02*
G01X31394347Y-3448709D01*
G01X31994347Y-3448709D01*
G01X31994347Y-3548709D01*
G01X31394347Y-3548709D01*
G37*
G36*
G01X31394347Y-3687643D02*
G01X31394347Y-3587643D01*
G01X31994347Y-3587643D01*
G01X31994347Y-3687643D01*
G01X31394347Y-3687643D01*
G37*
G36*
G01X30678927Y-2570960D02*
G01X30578927Y-2570960D01*
G01X30578927Y-1224200D01*
G01X30678927Y-1224200D01*
G01X30678927Y-2570960D01*
G37*
G04 Rect End*

G04 Pad Start*
G54D21*
G01X665480Y-1899920D03*
G54D22*
G01X30629860Y-932180D03*
G01X30629860Y-2849880D03*
G54D23*
G01X595700Y-2347675D03*
G01X1944828Y-427516D03*
G01X2012706Y-405709D03*
G01X2036344Y-464032D03*
G01X2099296Y-455074D03*
G01X2115269Y-564314D03*
G01X2261408Y-574083D03*
G01X2286774Y-630224D03*
G01X2355477Y-611314D03*
G01X2372295Y-682735D03*
G01X2441093Y-659273D03*
G01X2460350Y-727544D03*
G01X2503501Y-17483D03*
G01X2768600Y-99060D03*
G01X2885943Y-99060D03*
G01X5020982Y-250837D03*
G01X5046249Y-322168D03*
G01X5069219Y-403860D03*
G01X5095146Y-467213D03*
G01X5123372Y-537585D03*
G01X4145280Y-151012D03*
G01X4166315Y-214021D03*
G01X4179066Y-284828D03*
G01X4177806Y-354451D03*
G01X4221796Y-416452D03*
G01X4284670Y-451808D03*
G01X4352486Y-487037D03*
G01X3037472Y-264877D03*
G01X3101183Y-301660D03*
G01X3072770Y-358555D03*
G01X3008626Y-403191D03*
G01X2991443Y-471360D03*
G01X3113837Y-477442D03*
G01X2970629Y-234277D03*
G01X3410008Y-43843D03*
G01X3154774Y-2381769D03*
G01X3218372Y-2419220D03*
G01X2675870Y-2100331D03*
G01X2315044Y-1931357D03*
G01X2893193Y-1199211D03*
G01X3884156Y-1377067D03*
G01X3957900Y-1365045D03*
G01X4023750Y-1345563D03*
G01X3846587Y-1946575D03*
G01X3923401Y-2022998D03*
G01X4313265Y-2068362D03*
G01X4364322Y-2207241D03*
G01X4368462Y-1980249D03*
G01X4419075Y-1893654D03*
G01X4471137Y-1807702D03*
G01X4182822Y-2353747D03*
G01X4261020Y-2510202D03*
G01X4215866Y-2590314D03*
G01X4400498Y-2385570D03*
G01X4503677Y-1307004D03*
G01X4698262Y-1354371D03*
G01X4628608Y-1316628D03*
G01X4913967Y-1396619D03*
G01X4934375Y-1468448D03*
G01X4985630Y-1377463D03*
G01X4964886Y-1305677D03*
G01X5038442Y-1289547D03*
G01X5011760Y-1218992D03*
G01X5084456Y-1204561D03*
G01X5059579Y-1132363D03*
G01X5133621Y-1116024D03*
G01X4983480Y-980440D03*
G01X4964194Y-905464D03*
G01X6550414Y-1942435D03*
G01X6537100Y-1863818D03*
G01X6610913Y-1837557D03*
G01X6476395Y-1965148D03*
G01X6490553Y-2037846D03*
G01X6429490Y-2352782D03*
G01X6481462Y-2284472D03*
G01X6480118Y-2213223D03*
G01X7706340Y-260011D03*
G01X7835043Y-265421D03*
G01X8025386Y-45908D03*
G01X8119383Y-81815D03*
G01X8000836Y-163825D03*
G01X7939960Y-205830D03*
G01X8165647Y-124525D03*
G01X8156493Y-187611D03*
G01X10203381Y-459276D03*
G01X10266979Y-496726D03*
G01X9969574Y-503318D03*
G01X11081570Y-106133D03*
G01X11299245Y-137956D03*
G01X11159768Y-262588D03*
G01X11114614Y-342700D03*
G01X11068466Y-428417D03*
G01X10848149Y-436175D03*
G01X10952204Y-435254D03*
G01X10988808Y-570770D03*
G01X12583692Y-796962D03*
G01X12688848Y-801426D03*
G01X12680208Y-726504D03*
G01X12645145Y-888207D03*
G01X12495035Y-949388D03*
G01X12567120Y-987662D03*
G01X12969362Y-980586D03*
G01X13034913Y-1019545D03*
G01X9320158Y-1509918D03*
G01X9207751Y-1515193D03*
G01X9405085Y-1477733D03*
G01X9487860Y-1432037D03*
G01X9559756Y-1409676D03*
G01X9414765Y-1891088D03*
G01X9504542Y-1873328D03*
G01X8184163Y-1760907D03*
G01X8112760Y-1732280D03*
G01X20813433Y-1453907D03*
G01X20902022Y-1450004D03*
G01X20973192Y-1452894D03*
G01X20817020Y-1287751D03*
G01X20919976Y-1624593D03*
G01X20648740Y-1571532D03*
G01X20601508Y-1657889D03*
G01X20419613Y-1973956D03*
G01X20392878Y-2046780D03*
G01X20596672Y-2177758D03*
G01X20534883Y-2206875D03*
G01X20501236Y-2268257D03*
G01X19414030Y-2569109D03*
G01X20430312Y-1101417D03*
G01X19225143Y-732629D03*
G01X19138888Y-682232D03*
G01X18710367Y-633465D03*
G01X18204324Y-1320949D03*
G01X18215132Y-1462972D03*
G01X18106460Y-81995D03*
G01X18018740Y-33463D03*
G01X17719970Y-1948731D03*
G01X17782710Y-1938308D03*
G01X17812635Y-1995799D03*
G01X17892699Y-2011456D03*
G01X18020013Y-1727771D03*
G01X17696067Y-1886734D03*
G01X17501887Y-2094537D03*
G01X17283396Y-2137770D03*
G01X17364999Y-2020546D03*
G01X17434341Y-2057557D03*
G01X17229305Y-2096622D03*
G01X17164524Y-2113280D03*
G01X17142460Y-2052320D03*
G01X17072122Y-2067430D03*
G01X17228026Y-2196083D03*
G01X17197601Y-2256919D03*
G01X17319215Y-2250808D03*
G01X17388489Y-2301171D03*
G01X17004330Y-2481915D03*
G01X16935232Y-2510818D03*
G01X16497805Y-2417141D03*
G01X16569938Y-2402558D03*
G01X16410230Y-2177100D03*
G01X16343128Y-2193251D03*
G01X16277229Y-2204434D03*
G01X16219910Y-2174240D03*
G01X16515364Y-1553494D03*
G01X16618655Y-1697368D03*
G01X16661857Y-1636524D03*
G01X16658056Y-1385959D03*
G01X16731960Y-1355387D03*
G01X16742835Y-1439269D03*
G01X16818804Y-1406881D03*
G01X16674619Y-1756301D03*
G01X16748843Y-1730473D03*
G01X16763181Y-1802390D03*
G01X16779921Y-1932649D03*
G01X16870404Y-1818706D03*
G01X16941938Y-1791214D03*
G01X16063349Y-1374867D03*
G01X16135959Y-1407027D03*
G01X16172079Y-1337963D03*
G01X16241776Y-1354198D03*
G01X15428735Y-1835844D03*
G01X15741665Y-759660D03*
G01X16423613Y-1036960D03*
G01X16496737Y-1011179D03*
G01X16045841Y-902027D03*
G01X15597092Y-867408D03*
G01X7822571Y-1632637D03*
G01X6876194Y-2459638D03*
G01X8622186Y-2077677D03*
G01X8803903Y-2022658D03*
G01X8657107Y-1879140D03*
G01X8560034Y-1938552D03*
G01X8390664Y-1969000D03*
G01X8756583Y-1848672D03*
G01X8226082Y-1377145D03*
G01X8289573Y-1381132D03*
G01X8288479Y-1320800D03*
G01X8338371Y-1295734D03*
G01X8308177Y-1231900D03*
G01X8378007Y-1215547D03*
G01X8436818Y-1199312D03*
G01X8347546Y-1051300D03*
G01X8229600Y-924560D03*
G01X9020503Y-841476D03*
G01X9084499Y-851278D03*
G01X9148303Y-849659D03*
G01X9215334Y-856407D03*
G01X9282988Y-856445D03*
G01X9541397Y-997026D03*
G01X10567044Y-2178205D03*
G01X11252030Y-2382402D03*
G01X11339900Y-2431495D03*
G01X13080936Y-2173434D03*
G01X13214970Y-2315482D03*
G01X12556972Y-1595374D03*
G01X12765261Y-1771596D03*
G01X13790575Y-2146496D03*
G01X13678815Y-2358253D03*
G01X13885613Y-2479796D03*
G01X13882261Y-2600442D03*
G01X14153511Y-2406618D03*
G01X14115202Y-2328549D03*
G01X14093486Y-1249025D03*
G01X14114704Y-1371785D03*
G01X14167273Y-1445381D03*
G01X14226622Y-1497978D03*
G01X14294208Y-1540021D03*
G01X14366094Y-1575561D03*
G01X14433424Y-1616756D03*
G01X14503277Y-1654904D03*
G01X14690371Y-1873610D03*
G01X14684455Y-1805290D03*
G01X13461803Y-1016000D03*
G01X13587621Y-1007252D03*
G01X13566275Y-932014D03*
G01X13645059Y-911373D03*
G01X13621515Y-836949D03*
G01X13632170Y-1087418D03*
G01X13701632Y-1127128D03*
G01X13771243Y-1167086D03*
G01X13840037Y-1207952D03*
G01X13622761Y-727277D03*
G01X13565629Y-641984D03*
G01X13461597Y-436521D03*
G01X13552981Y-480866D03*
G01X13510260Y-383540D03*
G01X14906481Y-427035D03*
G01X14970689Y-460316D03*
G01X14275475Y-451024D03*
G01X14199942Y-423549D03*
G01X14119906Y-402272D03*
G01X13989252Y-309424D03*
G01X14048853Y-363559D03*
G01X14491409Y-583696D03*
G01X14527807Y-659290D03*
G01X14600947Y-726203D03*
G01X14679486Y-786275D03*
G01X15449438Y-277338D03*
G01X15469053Y-368193D03*
G01X19051559Y-2580103D03*
G01X19127561Y-2624352D03*
G01X17940020Y-2057400D03*
G01X18009685Y-2089814D03*
G01X18066611Y-2122963D03*
G01X17930808Y-2343470D03*
G01X17986466Y-2376309D03*
G01X15264968Y-2494203D03*
G01X2907036Y-2429545D03*
G01X1427040Y-1386327D03*
G01X775331Y-759660D03*
G01X5912043Y-1631268D03*
G01X5696001Y-2005464D03*
G01X6727541Y-1122162D03*
G01X693564Y-3586629D03*
G01X704372Y-3728652D03*
G01X1199607Y-2899145D03*
G01X1628128Y-2947912D03*
G01X1714383Y-2998309D03*
G01X3309110Y-3441700D03*
G01X3731932Y-3120356D03*
G01X3949402Y-2683788D03*
G01X4053456Y-2682868D03*
G01X4169719Y-2676031D03*
G01X3564918Y-794276D03*
G01X3647323Y-784073D03*
G01X2510043Y-1242110D03*
G01X2557780Y-1155700D03*
G01X2246838Y-857142D03*
G01X14247532Y-3298156D03*
G01X13663752Y-3450917D03*
G01X12372328Y-3031732D03*
G01X12458583Y-3082129D03*
G01X11943807Y-2982965D03*
G01X11437764Y-3670449D03*
G01X14414918Y-618961D03*
G01X14460368Y-1490622D03*
G01X19283190Y-3327064D03*
G01X19308457Y-3398394D03*
G01X19330968Y-3475000D03*
G01X19357353Y-3543440D03*
G01X19385579Y-3613812D03*
G01X19568160Y-2893060D03*
G01X19606260Y-2837180D03*
G01X19589601Y-2763546D03*
G01X18404840Y-3284220D03*
G01X18429450Y-3359363D03*
G01X18441273Y-3429634D03*
G01X18440013Y-3499257D03*
G01X18032726Y-3294338D03*
G01X18484004Y-3561258D03*
G01X18546878Y-3596615D03*
G01X18612225Y-3632505D03*
G01X21138552Y-1126456D03*
G01X17372852Y-3039519D03*
G01X17034356Y-3034424D03*
G01X17115130Y-3094151D03*
G01X17191277Y-3056319D03*
G01X17211040Y-3116580D03*
G01X16960345Y-3056808D03*
G01X16886463Y-3124075D03*
G01X16765708Y-3162289D03*
G01X16746422Y-3097174D03*
G01X16675952Y-3108844D03*
G01X16660284Y-3035926D03*
G01X16588955Y-3054429D03*
G01X16570243Y-2984288D03*
G01X16498414Y-3006555D03*
G01X16480198Y-2930585D03*
G01X16223244Y-2851390D03*
G01X16295951Y-2829507D03*
G01X16319996Y-2901402D03*
G01X16388150Y-2879836D03*
G01X16191850Y-2772200D03*
G01X16127275Y-2781191D03*
G01X16152031Y-2845361D03*
G01X16045214Y-2794737D03*
G01X16031833Y-2726857D03*
G01X17232837Y-3379083D03*
G01X17299679Y-3409683D03*
G01X17363390Y-3446467D03*
G01X17320260Y-3507740D03*
G01X17270833Y-3547997D03*
G01X17238980Y-3606800D03*
G01X17376044Y-3622248D03*
G01X17434904Y-3654855D03*
G01X16298552Y-3608838D03*
G01X16207973Y-3575823D03*
G01X16274913Y-3550516D03*
G01X16360447Y-3600162D03*
G01X16377476Y-3709120D03*
G01X14445626Y-2994059D03*
G01X3770518Y-149531D03*
G01X6695037Y-2786021D03*
G01X6751385Y-2737385D03*
G01X6786421Y-2830366D03*
G01X6854955Y-3186449D03*
G01X6845300Y-3075940D03*
G01X6796784Y-2982956D03*
G01X6878499Y-3260873D03*
G01X6799715Y-3281514D03*
G01X6821061Y-3356752D03*
G01X6689597Y-3362528D03*
G01X6865610Y-3436918D03*
G01X6202802Y-3330086D03*
G01X5728475Y-3298888D03*
G01X5800560Y-3337162D03*
G01X5878585Y-3237707D03*
G01X5817132Y-3146462D03*
G01X5922288Y-3150926D03*
G01X5913648Y-3076004D03*
G01X6934892Y-3475958D03*
G01X7004683Y-3516586D03*
G01X7073477Y-3557452D03*
G01X7181568Y-3607043D03*
G01X7372646Y-3529945D03*
G01X7424344Y-3612065D03*
G01X7914392Y-3135382D03*
G01X7834387Y-3075703D03*
G01X7761247Y-3008790D03*
G01X7724849Y-2933196D03*
G01X7648358Y-2968461D03*
G01X7222692Y-2658924D03*
G01X7282293Y-2713059D03*
G01X7353103Y-2752576D03*
G01X7432282Y-2773343D03*
G01X7508915Y-2800524D03*
G01X8139921Y-2776535D03*
G01X8209458Y-2815826D03*
G01X9657053Y-3386460D03*
G01X8682878Y-2626838D03*
G01X8702493Y-2717693D03*
G01X9061672Y-2655568D03*
G01X9510421Y-2690187D03*
G01X9730177Y-3360679D03*
G01X8974075Y-3110332D03*
G01X9225669Y-3653247D03*
G01X9321699Y-3667143D03*
G01X9411716Y-3708778D03*
G01X9891496Y-3735459D03*
G01X9967205Y-3704403D03*
G01X9793073Y-1875168D03*
G01X10190058Y-1500171D03*
G01X9093340Y-524173D03*
G01X8721966Y-354339D03*
G01X13642632Y-109686D03*
G54D24*
G01X19297193Y-3081020D03*
G54D23*
G01X19192336Y-2661397D03*
G54D24*
G01X16705580Y-2115820D03*
G01X15339060Y-1656080D03*
G01X13256260Y-571500D03*
G01X6516284Y-2920306D03*
G01X4165600Y-1958340D03*
G01X873760Y-264160D03*
G01X19085560Y-99060D03*
G54D23*
G01X4090060Y-2818383D03*
G01X3406813Y-3447807D03*
G01X3495402Y-3443904D03*
G01X3566572Y-3446794D03*
G01X13948128Y-1257543D03*
G01X4902200Y-3578860D03*
G54D25*
G01X14502723Y-3611880D03*
G01X14465300Y-3675380D03*
G54D23*
G01X15797344Y-3729689D03*
G54D25*
G01X3923401Y-3393440D03*
G01X3884156Y-3462020D03*
G01X3841507Y-3535680D03*
G01X3799163Y-3606800D03*
G01X3753443Y-3677920D03*
G54D23*
G01X8900964Y-3669065D03*
G01X7963043Y-3715812D03*
G01X8039597Y-3707703D03*
G01X8121091Y-3697665D03*
G01X8228185Y-3715077D03*
G01X8325413Y-3707948D03*
G01X7616032Y-3738430D03*
G01X18697035Y-3738236D03*
G01X18734991Y-3657684D03*
G01X17781876Y-3739914D03*
G01X17708145Y-3754831D03*
G01X16523615Y-3718889D03*
G01X13299270Y-3713728D03*
G01X17964610Y-3729829D03*
G54D26*
G01X9780641Y-3469640D03*
G01X10005731Y-3537648D03*
G01X10049043Y-3562654D03*
G01X10092334Y-3587648D03*
G01X10135712Y-3612692D03*
G01X10178936Y-3637648D03*
G01X10222248Y-3662654D03*
G01X10265539Y-3687648D03*
G54D27*
G01X9725682Y-3612650D03*
G01X9700685Y-3655996D03*
G01X9675666Y-3699331D03*
G01X9650647Y-3742665D03*
G54D23*
G01X10517358Y-3751253D03*
G54D26*
G01X18287833Y-2063155D03*
G01X18028026Y-1913156D03*
G01X18244521Y-2038149D03*
G01X16772281Y-1188151D03*
G01X18201231Y-2013155D03*
G01X17984714Y-1888149D03*
G01X18157919Y-1988149D03*
G01X16815593Y-1213157D03*
G01X18114629Y-1963156D03*
G01X17941424Y-1863156D03*
G01X18071316Y-1938149D03*
G01X16858883Y-1238151D03*
G01X17898112Y-1838149D03*
G01X16902196Y-1263157D03*
G01X17854822Y-1813156D03*
G01X16945486Y-1288151D03*
G01X17811509Y-1788150D03*
G01X17768219Y-1763156D03*
G01X17724907Y-1738150D03*
G01X17681617Y-1713156D03*
G01X17638305Y-1688150D03*
G01X17595014Y-1663156D03*
G01X17551702Y-1638150D03*
G01X17508412Y-1613156D03*
G01X17465100Y-1588150D03*
G01X17421810Y-1563156D03*
G01X17378498Y-1538150D03*
G01X17335207Y-1513156D03*
G01X17291895Y-1488150D03*
G01X17248605Y-1463157D03*
G01X17205293Y-1438150D03*
G01X17162003Y-1413157D03*
G01X17118690Y-1388150D03*
G01X17075400Y-1363157D03*
G01X17032088Y-1338150D03*
G01X16988798Y-1313157D03*
G54D28*
G01X17862871Y-3209219D03*
G01X15992242Y-2129211D03*
G01X17887864Y-3165929D03*
G01X16017236Y-2085921D03*
G01X17912871Y-3122617D03*
G01X16042242Y-2042609D03*
G01X17937864Y-3079326D03*
G01X16067236Y-1999318D03*
G01X17962871Y-3036014D03*
G01X16092242Y-1956006D03*
G01X17987864Y-2992724D03*
G01X16117235Y-1912716D03*
G01X18012871Y-2949412D03*
G01X16142242Y-1869404D03*
G01X18037864Y-2906122D03*
G01X16167235Y-1826114D03*
G01X18062870Y-2862809D03*
G01X16192242Y-1782801D03*
G01X18087864Y-2819519D03*
G01X16217235Y-1739511D03*
G01X18112870Y-2776207D03*
G01X16242242Y-1696199D03*
G01X18137864Y-2732917D03*
G01X16267235Y-1652909D03*
G01X18162870Y-2689605D03*
G01X16292241Y-1609597D03*
G01X18187864Y-2646314D03*
G01X16317235Y-1566306D03*
G01X18212870Y-2603002D03*
G01X16342241Y-1522994D03*
G01X18237864Y-2559712D03*
G01X16367235Y-1479704D03*
G01X18262870Y-2516400D03*
G01X16392241Y-1436392D03*
G01X18287864Y-2473110D03*
G01X16417235Y-1393102D03*
G01X18312870Y-2429798D03*
G01X16442241Y-1349790D03*
G01X18337864Y-2386507D03*
G01X16467235Y-1306499D03*
G01X18362870Y-2343195D03*
G01X16492241Y-1263187D03*
G01X15767236Y-2518932D03*
G01X15792242Y-2475620D03*
G01X15817236Y-2432330D03*
G01X15842242Y-2389018D03*
G01X15867236Y-2345728D03*
G01X15892242Y-2302416D03*
G01X15917236Y-2259126D03*
G01X15942242Y-2215813D03*
G01X15967236Y-2172523D03*
G01X17637865Y-3598940D03*
G01X17662871Y-3555628D03*
G01X17687865Y-3512338D03*
G01X17712871Y-3469026D03*
G01X17737865Y-3425736D03*
G01X17762871Y-3382424D03*
G01X17787865Y-3339134D03*
G01X17812871Y-3295821D03*
G01X17837865Y-3252531D03*
G54D26*
G01X16081995Y-3283785D03*
G54D28*
G01X17562871Y-3728833D03*
G01X17587865Y-3685543D03*
G01X17612871Y-3642231D03*
G54D26*
G01X16125285Y-3308779D03*
G01X16038682Y-3258779D03*
G01X16168597Y-3333785D03*
G01X15995392Y-3233786D03*
G01X16211887Y-3358779D03*
G01X15952080Y-3208779D03*
G01X16255199Y-3383785D03*
G01X15908790Y-3183786D03*
G01X16298490Y-3408779D03*
G01X15865478Y-3158779D03*
G01X16341802Y-3433785D03*
G01X15822188Y-3133786D03*
G01X16385092Y-3458779D03*
G01X15778875Y-3108779D03*
G01X16428404Y-3483785D03*
G01X15735585Y-3083786D03*
G01X16471694Y-3508779D03*
G01X15692273Y-3058780D03*
G01X16515006Y-3533785D03*
G01X16558297Y-3558779D03*
G01X16601609Y-3583785D03*
G01X16644899Y-3608778D03*
G01X16688211Y-3633785D03*
G01X16731501Y-3658778D03*
G01X16774814Y-3683785D03*
G54D28*
G01X15617236Y-2778740D03*
G01X15642243Y-2735427D03*
G01X15667236Y-2692137D03*
G01X15692243Y-2648825D03*
G01X15717236Y-2605535D03*
G01X15742243Y-2562223D03*
G54D26*
G01X16818104Y-3708778D03*
G54D28*
G01X3600663Y-64413D03*
G01X3375657Y-454134D03*
G01X3400664Y-410822D03*
G01X3425657Y-367532D03*
G01X3450664Y-324220D03*
G01X3475657Y-280930D03*
G01X3500664Y-237617D03*
G01X3525657Y-194327D03*
G01X3550663Y-151015D03*
G01X3575657Y-107725D03*
G54D26*
G01X1819787Y-138979D03*
G54D28*
G01X3275658Y-627339D03*
G01X3300664Y-584027D03*
G01X3325658Y-540737D03*
G01X3350664Y-497424D03*
G54D26*
G01X1863077Y-163973D03*
G01X1776475Y-113973D03*
G01X1906390Y-188979D03*
G01X1949680Y-213973D03*
G01X1992992Y-238979D03*
G01X2036282Y-263973D03*
G01X2079594Y-288979D03*
G01X2122885Y-313972D03*
G01X2166197Y-338979D03*
G01X2209487Y-363972D03*
G01X2252799Y-388979D03*
G01X2296089Y-413972D03*
G01X2339401Y-438979D03*
G01X2382691Y-463972D03*
G01X2426004Y-488978D03*
G01X2469294Y-513972D03*
G01X2512606Y-538978D03*
G01X2555896Y-563972D03*
G01X2599208Y-588978D03*
G01X2642499Y-613972D03*
G01X2685811Y-638978D03*
G01X2729101Y-663972D03*
G01X2772413Y-688978D03*
G01X2815703Y-713972D03*
G01X2859016Y-738978D03*
G01X2902306Y-763972D03*
G01X2945618Y-788978D03*
G54D28*
G01X3225658Y-713941D03*
G01X3250664Y-670629D03*
G54D23*
G01X1115094Y-236538D03*
G54D29*
G01X317285Y-2579298D03*
G01X403887Y-2629298D03*
G01X128894Y-3105600D03*
G01X490489Y-2679297D03*
G01X215496Y-3155599D03*
G54D30*
G01X352986Y-2917459D03*
G54D29*
G01X577092Y-2729297D03*
G01X302099Y-3205599D03*
G01X663694Y-2779297D03*
G01X388701Y-3255599D03*
G54D31*
G01X11191693Y-815301D03*
G01X11591693Y-122480D03*
G01X11551693Y-191763D03*
G01X11511693Y-261045D03*
G01X11471693Y-330326D03*
G01X11431693Y-399609D03*
G01X11391693Y-468891D03*
G01X11351693Y-538173D03*
G01X11311693Y-607455D03*
G01X11271693Y-676737D03*
G01X11231693Y-746019D03*
G01X5908744Y-332850D03*
G01X6028744Y-125004D03*
G01X5988744Y-194286D03*
G01X5948744Y-263568D03*
G54D32*
G01X5406702Y-3389045D03*
G01X5231709Y-3692142D03*
G01X5626673Y-3516045D03*
G01X5846643Y-3643045D03*
G54D33*
G01X6085846Y-3721100D03*
G54D34*
G01X8050325Y-2985133D03*
G01X6432065Y-3388250D03*
G01X6362774Y-3348245D03*
G01X7426709Y-2625088D03*
G01X7357418Y-2585083D03*
G01X7011185Y-2385185D03*
G01X6941894Y-2345180D03*
G01X7080475Y-2425190D03*
G01X6501355Y-3428255D03*
G01X7055461Y-3748168D03*
G01X7149766Y-2465195D03*
G01X7773382Y-2825240D03*
G01X7703872Y-2785108D03*
G01X7634581Y-2745103D03*
G01X7565510Y-2705225D03*
G01X7496219Y-2665220D03*
G01X6847589Y-3628153D03*
G01X6778298Y-3588148D03*
G01X6709007Y-3548143D03*
G01X7288127Y-2545078D03*
G01X6639717Y-3508138D03*
G01X7218837Y-2505073D03*
G01X6570646Y-3468260D03*
G01X8119616Y-3025138D03*
G01X7981034Y-2945128D03*
G01X8188906Y-3065143D03*
G01X7911744Y-2905123D03*
G01X7842453Y-2865118D03*
G01X6917099Y-3668285D03*
G01X6986390Y-3708290D03*
G01X8258197Y-3105148D03*
G01X8396778Y-3185158D03*
G01X8327488Y-3145153D03*
G54D35*
G01X11813730Y-677410D03*
G54D36*
G01X12155128Y-626096D03*
G01X12180020Y-582982D03*
G01X12205039Y-539648D03*
G01X12230058Y-496314D03*
G01X12255077Y-452980D03*
G01X12280096Y-409645D03*
G01X12305115Y-366311D03*
G01X12330134Y-322977D03*
G01X12355026Y-279863D03*
G01X12380045Y-236529D03*
G01X12405064Y-193194D03*
G01X12430083Y-149860D03*
G01X12455102Y-106526D03*
G01X12480121Y-63192D03*
G54D37*
G01X18272864Y-283173D03*
G54D38*
G01X17974144Y-110707D03*
G01X18017258Y-135599D03*
G01X18060593Y-160618D03*
G01X18103800Y-185857D03*
G01X18147261Y-210656D03*
G54D37*
G01X18203573Y-243168D03*
G54D38*
G01X17930810Y-85688D03*
G54D39*
G01X6736488Y-895025D03*
G01X6624601Y-1088818D03*
G54D40*
G01X16923482Y-519944D03*
G01X16312052Y-166935D03*
G01X16986982Y-409959D03*
G01X17050482Y-299973D03*
G01X17113982Y-189988D03*
G54D41*
G01X16410230Y-76200D03*
G54D38*
G01X19223440Y-828962D03*
G01X19266902Y-853761D03*
G54D37*
G01X19323214Y-886273D03*
G01X19392505Y-926278D03*
G54D38*
G01X19050451Y-728793D03*
G01X19093785Y-753812D03*
G01X19136899Y-778704D03*
G01X19180233Y-803723D03*
G54D37*
G01X18838179Y-606238D03*
G01X18907470Y-646243D03*
G54D38*
G01X18963655Y-678975D03*
G01X19007117Y-703774D03*
G54D42*
G01X8720402Y-226053D03*
G54D43*
G01X8562374Y-365755D03*
G01X8262730Y-192756D03*
G54D44*
G01X5494020Y-3743528D03*
G54D23*
G01X8580120Y-3754120D03*
G01X8844280Y-3746500D03*
G54D34*
G01X14470432Y-435608D03*
G01X13891312Y-1438673D03*
G01X14099184Y-1558688D03*
G01X14029893Y-1518683D03*
G01X14584218Y-1838723D03*
G01X14514928Y-1798718D03*
G01X14168474Y-1598693D03*
G01X14307056Y-1678703D03*
G01X14237765Y-1638698D03*
G01X14678304Y-555623D03*
G01X14886176Y-675638D03*
G01X14816885Y-635633D03*
G01X14747594Y-595628D03*
G01X14609013Y-515618D03*
G01X14539942Y-475740D03*
G01X13960822Y-1478805D03*
G01X14376346Y-1718708D03*
G01X14445637Y-1758713D03*
G01X14193269Y-275588D03*
G01X13614149Y-1278653D03*
G01X14401141Y-395603D03*
G01X13822021Y-1398668D03*
G01X14332070Y-355725D03*
G01X13752950Y-1358790D03*
G01X14262779Y-315720D03*
G01X13683659Y-1318785D03*
G01X13544858Y-1238648D03*
G01X14123978Y-235583D03*
G01X13475567Y-1198643D03*
G01X14054687Y-195578D03*
G01X13129334Y-998745D03*
G01X13406277Y-1158638D03*
G01X13985397Y-155573D03*
G01X13337206Y-1118760D03*
G01X13916326Y-115695D03*
G01X13267915Y-1078755D03*
G01X13198625Y-1038750D03*
G01X15163338Y-835658D03*
G01X15094048Y-795653D03*
G01X14955466Y-715643D03*
G01X15024757Y-755648D03*
G54D23*
G01X13776047Y-36139D03*
G01X13847035Y-75690D03*
G54D45*
G01X480438Y-818582D03*
G01X780081Y-991582D03*
G54D46*
G01X322410Y-958284D03*
G01X734634Y-1196282D03*
G54D47*
G01X1140720Y-440516D03*
G01X1097439Y-515482D03*
G54D48*
G01X1296358Y-396015D03*
G01X1201947Y-341506D03*
G54D49*
G01X1274730Y-217288D03*
G01X1395978Y-287290D03*
G54D50*
G01X728037Y-832568D03*
G01X653071Y-789286D03*
G54D51*
G01X1814462Y-615088D03*
G01X1908873Y-669596D03*
G54D52*
G01X1691297Y-542965D03*
G01X1596886Y-488457D03*
G54D53*
G01X2161032Y-728576D03*
G01X2106523Y-822988D03*
G54D50*
G01X1210894Y-1112027D03*
G01X1135928Y-1068745D03*
G54D54*
G01X1725204Y-1408295D03*
G01X1800170Y-1451577D03*
G54D55*
G01X969406Y-1105601D03*
G01X1269050Y-1278600D03*
G54D56*
G01X811378Y-1245303D03*
G01X1223603Y-1483301D03*
G54D55*
G01X1521746Y-1419450D03*
G01X1821390Y-1592449D03*
G54D56*
G01X1363718Y-1559152D03*
G01X1775943Y-1797150D03*
G54D57*
G01X1502457Y-641487D03*
G01X1857489Y-846465D03*
G01X1737601Y-1054117D03*
G01X1382569Y-849139D03*
G54D53*
G01X2595186Y-865184D03*
G01X2540677Y-959595D03*
G54D58*
G01X2051189Y-1299048D03*
G01X2105698Y-1204636D03*
G01X2261878Y-1418322D03*
G01X2316386Y-1323911D03*
G54D59*
G01X2408079Y-1173299D03*
G01X2191629Y-1048331D03*
G54D53*
G01X3436098Y-810559D03*
G01X3381590Y-904970D03*
G54D52*
G01X3914456Y-342104D03*
G01X3820044Y-287595D03*
G54D60*
G01X3061421Y-1786604D03*
G01X3225960Y-1881600D03*
G01X3043691Y-2007307D03*
G54D47*
G01X2942151Y-1741909D03*
G01X2898869Y-1816875D03*
G54D54*
G01X2629476Y-1601709D03*
G01X2704442Y-1644991D03*
G54D61*
G01X2755477Y-2172918D03*
G01X3058596Y-2347924D03*
G54D62*
G01X2318409Y-2096415D03*
G01X2483509Y-1810454D03*
G01X2604932Y-1880558D03*
G01X2439832Y-2166519D03*
G54D50*
G01X2646960Y-1747738D03*
G01X2571994Y-1704456D03*
G54D54*
G01X3091451Y-1041442D03*
G01X3166417Y-1084723D03*
G54D51*
G01X2914877Y-1306722D03*
G01X3009288Y-1361231D03*
G54D63*
G01X3489743Y-1180058D03*
G01X3533033Y-1205052D03*
G01X3576345Y-1230058D03*
G01X3619635Y-1255052D03*
G01X3662947Y-1280058D03*
G01X3706237Y-1305052D03*
G54D64*
G01X3733692Y-1407512D03*
G01X3708698Y-1450802D03*
G01X3683692Y-1494114D03*
G01X3658698Y-1537405D03*
G01X3633692Y-1580717D03*
G01X3608698Y-1624007D03*
G54D63*
G01X3506238Y-1651461D03*
G01X3462948Y-1626467D03*
G01X3419636Y-1601461D03*
G01X3376345Y-1576468D03*
G01X3333033Y-1551461D03*
G01X3290425Y-1526861D03*
G54D64*
G01X3262289Y-1424007D03*
G01X3287282Y-1380717D03*
G01X3312289Y-1337405D03*
G01X3337282Y-1294115D03*
G01X3362289Y-1250803D03*
G01X3387282Y-1207512D03*
G54D65*
G01X3499068Y-1416382D03*
G54D54*
G01X3033734Y-1141002D03*
G01X3108700Y-1184284D03*
G54D58*
G01X3808235Y-1759341D03*
G01X3862743Y-1664930D03*
G54D51*
G01X3522365Y-1807743D03*
G01X3616776Y-1862251D03*
G54D54*
G01X3396142Y-2271394D03*
G01X3471108Y-2314676D03*
G54D66*
G01X3350533Y-2434130D03*
G01X3265443Y-2581510D03*
G54D52*
G01X4032426Y-1563483D03*
G01X3938014Y-1508975D03*
G54D54*
G01X3586550Y-2380990D03*
G01X3661516Y-2424272D03*
G54D67*
G01X3540857Y-2547310D03*
G01X3455767Y-2694691D03*
G54D68*
G01X5452945Y-1053736D03*
G01X5412945Y-1123018D03*
G01X5372946Y-1192299D03*
G01X5332945Y-1261582D03*
G01X5292945Y-1330864D03*
G01X5252946Y-1400146D03*
G01X5212945Y-1469428D03*
G01X5172945Y-1538710D03*
G01X4972945Y-1885120D03*
G01X4932945Y-1954402D03*
G01X4892946Y-2023684D03*
G01X4852945Y-2092966D03*
G01X4812945Y-2162248D03*
G01X4772945Y-2231530D03*
G01X4732945Y-2300812D03*
G01X4692945Y-2370094D03*
G01X4652945Y-2439376D03*
G01X4612945Y-2508658D03*
G01X4572945Y-2577940D03*
G01X4532945Y-2647222D03*
G01X4492945Y-2716504D03*
G01X4452945Y-2785786D03*
G01X4412945Y-2855068D03*
G01X4372945Y-2924351D03*
G01X4332945Y-2993633D03*
G01X4292945Y-3062915D03*
G54D61*
G01X9804084Y-250425D03*
G01X10107204Y-425431D03*
G54D67*
G01X10399140Y-511636D03*
G01X10314050Y-659016D03*
G54D54*
G01X10444749Y-348900D03*
G01X10519716Y-392182D03*
G01X10635157Y-458496D03*
G01X10710123Y-501778D03*
G54D67*
G01X10589464Y-624816D03*
G01X10504374Y-772197D03*
G54D60*
G01X9132350Y-1994712D03*
G01X9296888Y-2089708D03*
G01X9114619Y-2215414D03*
G54D51*
G01X8498640Y-1136186D03*
G01X8593052Y-1190694D03*
G54D60*
G01X8953090Y-2432497D03*
G01X9117628Y-2527493D03*
G01X8935359Y-2653199D03*
G54D54*
G01X9074022Y-2347318D03*
G01X9148988Y-2390600D03*
G54D52*
G01X9411677Y-3474484D03*
G01X9317266Y-3419975D03*
G54D69*
G01X10412764Y-1468357D03*
G01X8864172Y-574277D03*
G54D70*
G01X10137486Y-1606826D03*
G01X10094371Y-1581934D03*
G01X10051037Y-1556915D03*
G01X10007703Y-1531896D03*
G01X9964369Y-1506877D03*
G01X9921035Y-1481858D03*
G01X9877701Y-1456839D03*
G01X9834366Y-1431820D03*
G01X9791252Y-1406928D03*
G01X9747918Y-1381909D03*
G01X9704584Y-1356890D03*
G01X9661250Y-1331871D03*
G01X9617915Y-1306852D03*
G01X9574581Y-1281833D03*
G01X9531247Y-1256814D03*
G01X9488133Y-1231922D03*
G01X9444799Y-1206903D03*
G01X9401465Y-1181884D03*
G01X9358130Y-1156865D03*
G01X9314796Y-1131846D03*
G01X9271462Y-1106827D03*
G01X9228348Y-1081935D03*
G01X9185014Y-1056916D03*
G01X9141679Y-1031897D03*
G01X9098345Y-1006878D03*
G01X9055011Y-981859D03*
G01X9011677Y-956840D03*
G01X8968342Y-931821D03*
G01X8925229Y-906929D03*
G01X8881894Y-881910D03*
G54D52*
G01X9471430Y-3374342D03*
G01X9377019Y-3319834D03*
G54D51*
G01X9873826Y-2890326D03*
G01X9968237Y-2944834D03*
G54D40*
G01X9545492Y-2516435D03*
G01X9608992Y-2406449D03*
G01X9672492Y-2296464D03*
G01X9735992Y-2186479D03*
G01X10156922Y-2869444D03*
G01X10220422Y-2759459D03*
G01X10283922Y-2649473D03*
G01X10347422Y-2539488D03*
G54D71*
G01X9341088Y-2357317D03*
G01X9514570Y-2056838D03*
G54D72*
G01X10105125Y-1802086D03*
G01X9945105Y-2079248D03*
G01X10378006Y-2329184D03*
G01X10538026Y-2052022D03*
G54D73*
G01X11060067Y-2663838D03*
G01X11146669Y-2713838D03*
G01X11233271Y-2763838D03*
G01X11319873Y-2813838D03*
G01X11406476Y-2863838D03*
G01X11131483Y-3340140D03*
G01X11044880Y-3290140D03*
G01X10958278Y-3240140D03*
G01X10871676Y-3190140D03*
G01X10785073Y-3140140D03*
G54D30*
G01X11095781Y-3001978D03*
G54D52*
G01X10672034Y-3272620D03*
G01X10577622Y-3218112D03*
G54D53*
G01X10658620Y-3511214D03*
G01X10604111Y-3605625D03*
G54D51*
G01X10831614Y-3645586D03*
G01X10926026Y-3700094D03*
G01X10979274Y-3450815D03*
G01X11073685Y-3505323D03*
G54D74*
G01X11506652Y-2630714D03*
G01X11437361Y-2590709D03*
G54D75*
G01X11381049Y-2558197D03*
G01X11337587Y-2533398D03*
G01X11294380Y-2508159D03*
G01X11251046Y-2483140D03*
G01X11207932Y-2458248D03*
G01X11164598Y-2433229D03*
G01X11121264Y-2408210D03*
G01X11077802Y-2383411D03*
G54D74*
G01X11021617Y-2350679D03*
G01X10952326Y-2310674D03*
G54D52*
G01X11292468Y-3632725D03*
G01X11198057Y-3578217D03*
G54D50*
G01X11438652Y-3315185D03*
G01X11363686Y-3271903D03*
G54D76*
G01X11963658Y-3394022D03*
G01X12006940Y-3319056D03*
G54D77*
G01X11669663Y-3191134D03*
G01X11764659Y-3026596D03*
G01X11890366Y-3208865D03*
G54D50*
G01X11379187Y-3422469D03*
G01X11304221Y-3379187D03*
G54D47*
G01X11904562Y-3498290D03*
G01X11861281Y-3573256D03*
G54D77*
G01X11493051Y-3498138D03*
G01X11588047Y-3333600D03*
G01X11713753Y-3515869D03*
G54D47*
G01X11620078Y-2988877D03*
G01X11576797Y-3063844D03*
G54D58*
G01X13000406Y-3102826D03*
G01X13054914Y-3008414D03*
G54D37*
G01X12625945Y-3275778D03*
G01X12556654Y-3235773D03*
G54D38*
G01X12500342Y-3203261D03*
G01X12456880Y-3178462D03*
G01X12413673Y-3153223D03*
G01X12370339Y-3128204D03*
G01X12327225Y-3103312D03*
G01X12283891Y-3078293D03*
G01X12240557Y-3053274D03*
G01X12197095Y-3028475D03*
G54D37*
G01X12140910Y-2995743D03*
G01X12071619Y-2955738D03*
G54D78*
G01X12917881Y-3251536D03*
G01X12847879Y-3372784D03*
G54D49*
G01X13688396Y-3452419D03*
G01X13809644Y-3522421D03*
G54D50*
G01X12229483Y-3669081D03*
G01X12154517Y-3625799D03*
G54D79*
G01X13241153Y-3452257D03*
G01X13093773Y-3367167D03*
G54D54*
G01X13126216Y-3567928D03*
G01X13201182Y-3611209D03*
G54D80*
G01X12339481Y-3538264D03*
G01X12409483Y-3417016D03*
G54D76*
G01X12835839Y-3664603D03*
G01X12879121Y-3589637D03*
G54D81*
G01X13625586Y-3676434D03*
G01X13427701Y-3562185D03*
G54D82*
G01X12510359Y-3571344D03*
G01X12666098Y-3661260D03*
G54D83*
G01X8602040Y-2373796D03*
G01X8492055Y-2310296D03*
G01X8382070Y-2246796D03*
G01X8272084Y-2183296D03*
G01X8955049Y-1762366D03*
G01X8845064Y-1698866D03*
G01X8735079Y-1635366D03*
G01X8625093Y-1571866D03*
G54D54*
G01X9241039Y-1899134D03*
G01X9316005Y-1942415D03*
G54D52*
G01X7085915Y-1689630D03*
G01X6991504Y-1635122D03*
G54D53*
G01X7396763Y-1611919D03*
G01X7342255Y-1706330D03*
G01X7310046Y-1561628D03*
G01X7255537Y-1656039D03*
G54D58*
G01X7281857Y-1155493D03*
G01X7336365Y-1061082D03*
G01X6966280Y-970804D03*
G01X7020788Y-876392D03*
G54D52*
G01X7603209Y-1720898D03*
G01X7508798Y-1666389D03*
G01X7320714Y-1332986D03*
G01X7226303Y-1278478D03*
G54D58*
G01X6103390Y-2035817D03*
G01X6157899Y-1941406D03*
G54D84*
G01X7498282Y-1836154D03*
G01X7688821Y-1946161D03*
G01X7601318Y-2097721D03*
G01X7410779Y-1987714D03*
G54D54*
G01X7134911Y-1448592D03*
G01X7209877Y-1491874D03*
G54D49*
G01X7270109Y-449500D03*
G01X7391357Y-519502D03*
G54D52*
G01X7434912Y-869828D03*
G01X7340501Y-815319D03*
G54D51*
G01X7049224Y-1535012D03*
G01X7143635Y-1589520D03*
G54D52*
G01X7317243Y-644406D03*
G01X7222832Y-589897D03*
G54D48*
G01X7230435Y-988016D03*
G01X7136024Y-933507D03*
G54D51*
G01X7727908Y-1787679D03*
G01X7822319Y-1842187D03*
G54D85*
G01X7925250Y-1150724D03*
G54D86*
G01X7594967Y-1222767D03*
G01X7612467Y-1192455D03*
G01X7629968Y-1162143D03*
G01X7647469Y-1131831D03*
G01X7664969Y-1101520D03*
G01X7682470Y-1071207D03*
G01X7699970Y-1040896D03*
G01X7717471Y-1010584D03*
G01X7734972Y-980272D03*
G01X7752472Y-949960D03*
G01X7769973Y-919648D03*
G01X7787473Y-889336D03*
G01X7804974Y-859024D03*
G01X7822475Y-828712D03*
G54D87*
G01X8255509Y-1078724D03*
G01X8238008Y-1109036D03*
G01X8220507Y-1139348D03*
G01X8203007Y-1169660D03*
G01X8185506Y-1199972D03*
G01X8168006Y-1230284D03*
G01X8150505Y-1260596D03*
G01X8133004Y-1290908D03*
G01X8115504Y-1321220D03*
G01X8098003Y-1351532D03*
G01X8080503Y-1381844D03*
G01X8063002Y-1412155D03*
G01X8045501Y-1442468D03*
G01X8028001Y-1472779D03*
G54D88*
G01X7663840Y-1288488D03*
G01X7694153Y-1305988D03*
G01X7724464Y-1323489D03*
G01X7754776Y-1340990D03*
G01X7785088Y-1358490D03*
G01X7815400Y-1375991D03*
G01X7845712Y-1393491D03*
G01X7876024Y-1410992D03*
G01X7906336Y-1428493D03*
G01X7936648Y-1445993D03*
G54D89*
G01X8186635Y-1013004D03*
G01X8156323Y-995503D03*
G01X8126011Y-978002D03*
G01X8095699Y-960502D03*
G01X8065387Y-943001D03*
G01X8035075Y-925501D03*
G01X8004763Y-908000D03*
G01X7974451Y-890499D03*
G01X7944139Y-872999D03*
G01X7913827Y-855498D03*
G54D53*
G01X7622549Y-326296D03*
G01X7568040Y-420708D03*
G54D54*
G01X8318480Y-345861D03*
G01X8393446Y-389143D03*
G54D58*
G01X8099607Y-756146D03*
G01X8154115Y-661735D03*
G01X7669103Y-477307D03*
G01X7723612Y-382896D03*
G54D54*
G01X7630777Y-97739D03*
G01X7705743Y-141021D03*
G54D50*
G01X8388987Y-802200D03*
G01X8314021Y-758919D03*
G54D36*
G01X5788491Y-2282909D03*
G01X5763472Y-2326244D03*
G01X6238452Y-1503554D03*
G01X6213560Y-1546668D03*
G01X6188541Y-1590002D03*
G01X6163522Y-1633337D03*
G01X6138503Y-1676671D03*
G01X6113484Y-1720005D03*
G01X6088465Y-1763339D03*
G01X6063573Y-1806453D03*
G01X6038554Y-1849788D03*
G01X6013535Y-1893122D03*
G01X5988516Y-1936456D03*
G01X5963497Y-1979790D03*
G01X5938478Y-2023124D03*
G01X5913459Y-2066458D03*
G01X5888567Y-2109573D03*
G01X5863548Y-2152907D03*
G01X5838529Y-2196241D03*
G01X5813510Y-2239575D03*
G54D35*
G01X6112192Y-1182238D03*
G01X5047170Y-3026910D03*
G54D36*
G01X5738453Y-2369578D03*
G01X5713561Y-2412692D03*
G01X5688542Y-2456026D03*
G01X5663523Y-2499360D03*
G01X5638504Y-2542694D03*
G01X5613485Y-2586029D03*
G01X5588466Y-2629363D03*
G01X5563574Y-2672477D03*
G01X5538555Y-2715811D03*
G01X5513536Y-2759145D03*
G01X5488517Y-2802480D03*
G01X5463498Y-2845814D03*
G01X5438479Y-2889148D03*
G01X5413460Y-2932482D03*
G01X5388568Y-2975596D03*
G54D52*
G01X7783228Y-2649129D03*
G01X7688817Y-2594621D03*
G54D50*
G01X7647193Y-1612917D03*
G01X7572227Y-1569635D03*
G54D51*
G01X8186965Y-1559137D03*
G01X8281376Y-1613645D03*
G01X168086Y-3606064D03*
G01X262498Y-3660573D03*
G01X235074Y-3366995D03*
G01X329485Y-3421503D03*
G54D37*
G01X762452Y-2546894D03*
G01X693161Y-2506889D03*
G54D38*
G01X636849Y-2474377D03*
G01X593387Y-2449578D03*
G01X550180Y-2424339D03*
G01X506846Y-2399320D03*
G01X463732Y-2374428D03*
G01X420398Y-2349409D03*
G01X377064Y-2324390D03*
G01X333602Y-2299591D03*
G54D37*
G01X277417Y-2266859D03*
G01X208126Y-2226854D03*
G54D52*
G01X548268Y-3548905D03*
G01X453857Y-3494397D03*
G54D50*
G01X694452Y-3231365D03*
G01X619486Y-3188083D03*
G54D76*
G01X1219458Y-3310202D03*
G01X1262740Y-3235236D03*
G54D77*
G01X925463Y-3107314D03*
G01X1020459Y-2942776D03*
G01X1146166Y-3125045D03*
G54D50*
G01X634987Y-3338649D03*
G01X560021Y-3295367D03*
G54D47*
G01X1160362Y-3414470D03*
G01X1117081Y-3489436D03*
G54D77*
G01X748851Y-3414318D03*
G01X843847Y-3249780D03*
G01X969553Y-3432049D03*
G54D47*
G01X875878Y-2905057D03*
G01X832597Y-2980024D03*
G54D52*
G01X1700746Y-3700094D03*
G01X1606334Y-3645586D03*
G54D37*
G01X1881745Y-3191958D03*
G01X1812454Y-3151953D03*
G54D38*
G01X1756142Y-3119441D03*
G01X1712680Y-3094642D03*
G01X1669473Y-3069403D03*
G01X1626139Y-3044384D03*
G01X1583025Y-3019492D03*
G01X1539691Y-2994473D03*
G01X1496357Y-2969454D03*
G01X1452895Y-2944655D03*
G54D37*
G01X1396710Y-2911923D03*
G01X1327419Y-2871918D03*
G54D78*
G01X2396881Y-3547175D03*
G01X2326879Y-3668423D03*
G01X2250940Y-3461747D03*
G01X2180937Y-3582995D03*
G54D76*
G01X1447735Y-3650705D03*
G01X1491017Y-3575739D03*
G54D79*
G01X2496953Y-3256677D03*
G01X2349573Y-3171587D03*
G54D54*
G01X2382016Y-3372348D03*
G01X2456982Y-3415629D03*
G54D80*
G01X1595281Y-3454444D03*
G01X1665283Y-3333196D03*
G54D90*
G01X2881386Y-3480854D03*
G01X2683501Y-3366605D03*
G54D91*
G01X1766159Y-3487524D03*
G01X1921898Y-3577440D03*
G54D53*
G01X15622904Y-1817647D03*
G01X15568396Y-1912058D03*
G54D52*
G01X15558565Y-3540821D03*
G01X15464154Y-3486313D03*
G01X15953504Y-3687772D03*
G01X15859093Y-3633263D03*
G54D47*
G01X15402928Y-3585322D03*
G01X15359646Y-3660288D03*
G54D60*
G01X15488510Y-644337D03*
G01X15653048Y-739333D03*
G01X15470779Y-865039D03*
G54D76*
G01X15675559Y-408323D03*
G01X15718841Y-333357D03*
G54D49*
G01X15536938Y-3362094D03*
G01X15658186Y-3432097D03*
G54D53*
G01X15418519Y-2465650D03*
G01X15364010Y-2560061D03*
G54D52*
G01X16178237Y-1124984D03*
G01X16083826Y-1070475D03*
G01X16237990Y-1024842D03*
G01X16143579Y-970334D03*
G54D51*
G01X16640386Y-540826D03*
G01X16734797Y-595334D03*
G54D92*
G01X15900019Y-538860D03*
G01X16073501Y-238380D03*
G54D29*
G01X17826627Y-314338D03*
G01X17913229Y-364338D03*
G01X17999831Y-414338D03*
G01X18086433Y-464338D03*
G01X18173036Y-514338D03*
G01X17898043Y-990640D03*
G01X17811440Y-940640D03*
G01X17724838Y-890640D03*
G01X17638236Y-840640D03*
G01X17551633Y-790640D03*
G54D30*
G01X17862341Y-652478D03*
G54D52*
G01X17438594Y-923120D03*
G01X17344182Y-868612D03*
G54D53*
G01X17425180Y-1161714D03*
G01X17370671Y-1256125D03*
G01X17895722Y-1447409D03*
G01X17841213Y-1541820D03*
G54D51*
G01X17745834Y-1101315D03*
G01X17840245Y-1155823D03*
G54D52*
G01X18059028Y-1283225D03*
G01X17964617Y-1228717D03*
G01X18425850Y-3046566D03*
G01X18331439Y-2992058D03*
G54D50*
G01X18205212Y-965685D03*
G01X18130246Y-922403D03*
G54D76*
G01X18730218Y-1044522D03*
G01X18773500Y-969556D03*
G54D53*
G01X18363533Y-1673934D03*
G01X18309024Y-1768345D03*
G54D77*
G01X18436223Y-841634D03*
G01X18531219Y-677096D03*
G01X18656926Y-859365D03*
G54D80*
G01X18692969Y-1951469D03*
G01X18762971Y-1830221D03*
G54D53*
G01X18464149Y-1733741D03*
G01X18409640Y-1828152D03*
G54D50*
G01X18145747Y-1072969D03*
G01X18070781Y-1029687D03*
G54D47*
G01X18671122Y-1148790D03*
G01X18627841Y-1223756D03*
G54D52*
G01X18176663Y-3486910D03*
G01X18082252Y-3432402D03*
G54D91*
G01X18881449Y-1960271D03*
G01X19037188Y-2050187D03*
G54D77*
G01X18259611Y-1148638D03*
G01X18354607Y-984100D03*
G01X18480313Y-1166369D03*
G54D58*
G01X18907653Y-1725031D03*
G01X18962161Y-1630619D03*
G54D76*
G01X18803930Y-1672283D03*
G01X18847212Y-1597317D03*
G54D47*
G01X18386638Y-639377D03*
G01X18343357Y-714344D03*
G54D78*
G01X20156860Y-1969727D03*
G01X20086857Y-2090975D03*
G54D47*
G01X19717030Y-2044136D03*
G01X19673748Y-2119102D03*
G54D54*
G01X20159961Y-1782575D03*
G01X20234928Y-1825856D03*
G54D58*
G01X19762896Y-2201864D03*
G01X19817404Y-2107453D03*
G54D53*
G01X19352971Y-2194469D03*
G01X19298463Y-2288880D03*
G54D58*
G01X19048376Y-1474714D03*
G01X19102885Y-1380302D03*
G54D91*
G01X19834206Y-1858164D03*
G01X19989945Y-1948080D03*
G54D76*
G01X19011996Y-1786497D03*
G01X19055278Y-1711531D03*
G01X19881109Y-2238138D03*
G01X19924390Y-2163171D03*
G54D78*
G01X19222617Y-2115351D03*
G01X19152615Y-2236599D03*
G01X19907641Y-1393255D03*
G01X19837639Y-1514503D03*
G01X19761700Y-1307827D03*
G01X19691697Y-1429075D03*
G54D76*
G01X18958495Y-1385025D03*
G01X19001777Y-1310059D03*
G54D93*
G01X19255093Y-1816968D03*
G01X19275032Y-1782433D03*
G01X19295098Y-1747677D03*
G01X19315037Y-1713142D03*
G01X19335103Y-1678387D03*
G54D94*
G01X19430647Y-1652600D03*
G01X19465402Y-1672666D03*
G01X19499938Y-1692605D03*
G01X19534473Y-1712544D03*
G01X19569228Y-1732610D03*
G54D93*
G01X19594888Y-1828374D03*
G01X19574822Y-1863129D03*
G01X19554883Y-1897664D03*
G01X19534817Y-1932420D03*
G01X19514878Y-1966955D03*
G54D95*
G01X19419114Y-1992615D03*
G01X19384579Y-1972676D03*
G01X19349824Y-1952610D03*
G01X19315288Y-1932671D03*
G01X19280533Y-1912605D03*
G54D96*
G01X19424881Y-1822607D03*
G54D79*
G01X20007713Y-1102757D03*
G01X19860333Y-1017667D03*
G54D54*
G01X19892776Y-1218428D03*
G01X19967742Y-1261709D03*
G54D80*
G01X19106041Y-1188764D03*
G01X19176043Y-1067516D03*
G54D76*
G01X19169515Y-1509755D03*
G01X19212797Y-1434789D03*
G54D90*
G01X20392146Y-1326934D03*
G01X20194261Y-1212685D03*
G54D91*
G01X19276919Y-1221844D03*
G01X19432658Y-1311760D03*
G54D68*
G01X21330951Y-1399897D03*
G01X21290951Y-1469179D03*
G01X21250951Y-1538461D03*
G01X21210951Y-1607744D03*
G01X21170951Y-1677026D03*
G01X21130951Y-1746307D03*
G01X21090951Y-1815590D03*
G01X21050951Y-1884872D03*
G01X20850951Y-2231282D03*
G01X20810951Y-2300564D03*
G01X20730951Y-2439128D03*
G01X20690951Y-2508410D03*
G01X20650951Y-2577692D03*
G01X20610951Y-2646974D03*
G01X20570951Y-2716256D03*
G01X20530951Y-2785538D03*
G01X20490951Y-2854820D03*
G01X20450951Y-2924102D03*
G01X20410951Y-2993384D03*
G01X20370951Y-3062666D03*
G01X20330951Y-3131948D03*
G01X20290951Y-3201230D03*
G01X20250951Y-3270512D03*
G01X20210951Y-3339794D03*
G01X20170951Y-3409076D03*
G01X20770951Y-2369846D03*
G54D97*
G01X12173262Y-1039545D03*
G01X11998269Y-1342642D03*
G01X12393233Y-1166545D03*
G01X12218239Y-1469642D03*
G01X12613203Y-1293545D03*
G01X12438210Y-1596642D03*
G01X12833173Y-1420545D03*
G01X12658180Y-1723642D03*
G01X13053144Y-1547545D03*
G01X12878151Y-1850642D03*
G01X13273114Y-1674545D03*
G01X13098121Y-1977642D03*
G01X13493085Y-1801545D03*
G01X13318091Y-2104642D03*
G54D53*
G01X15979059Y-1499548D03*
G01X15924551Y-1593959D03*
G54D47*
G01X14139609Y-1806713D03*
G01X14096328Y-1881679D03*
G54D52*
G01X13723406Y-1587305D03*
G01X13628995Y-1532796D03*
G54D76*
G01X14783164Y-2270440D03*
G01X14826446Y-2195474D03*
G54D52*
G01X14549788Y-299629D03*
G01X14455377Y-245121D03*
G54D32*
G01X13785981Y-1968325D03*
G01X13610987Y-2271422D03*
G01X14005951Y-2095325D03*
G01X13830958Y-2398422D03*
G01X14225922Y-2222325D03*
G01X14050928Y-2525422D03*
G01X14445892Y-2349325D03*
G01X14270899Y-2652422D03*
G01X14665862Y-2476325D03*
G01X14490869Y-2779422D03*
G01X14885833Y-2603325D03*
G01X14710840Y-2906422D03*
G01X15105803Y-2730325D03*
G01X14930810Y-3033422D03*
G54D83*
G01X11481973Y-1673505D03*
G01X11371988Y-1610005D03*
G01X11262003Y-1546505D03*
G01X11152018Y-1483005D03*
G01X11834982Y-1062075D03*
G01X11724997Y-998575D03*
G01X11615012Y-935075D03*
G01X11505027Y-871575D03*
G54D50*
G01X2000903Y-3392221D03*
G01X1925937Y-3348939D03*
G04 Pad End*

M02*

